<svg width="165" height="33" viewBox="0 0 165 33" fill="none" xmlns="http://www.w3.org/2000/svg">
<g clip-path="url(#clip0_34_2127)">
<path fill-rule="evenodd" clip-rule="evenodd" d="M143.534 27.5488H143.306V27.7768V32.5273V32.7553H143.534H144.035H144.263V32.5273V27.7768V27.5488H144.035H143.534ZM122.108 27.7319H121.88V27.9599V29.3494C121.643 29.1954 121.337 29.0837 120.952 29.0837C119.952 29.0837 119.228 29.9088 119.228 30.9538C119.228 31.9987 119.952 32.8238 120.952 32.8238C121.36 32.8238 121.679 32.7013 121.932 32.5243V32.7474H122.16H122.609H122.837V32.5194V27.9675V27.9599V27.7319H122.609H122.108ZM120.185 30.9614C120.185 30.6535 120.285 30.4218 120.431 30.2688C120.576 30.1157 120.779 30.0285 121.011 30.0285C121.419 30.0285 121.737 30.2962 121.888 30.6267V31.3096C121.737 31.6267 121.419 31.8943 121.011 31.8943C120.779 31.8943 120.576 31.807 120.431 31.6539C120.285 31.5009 120.185 31.2693 120.185 30.9614ZM109.362 27.8466C109.221 27.8466 109.081 27.8958 108.975 27.9989C108.867 28.1037 108.81 28.2489 108.81 28.4107C108.81 28.5729 108.868 28.7178 108.978 28.8212C109.085 28.9224 109.225 28.9671 109.362 28.9671C109.499 28.9671 109.639 28.9224 109.747 28.8212C109.857 28.7178 109.914 28.5729 109.914 28.4107C109.914 28.2469 109.858 28.1001 109.748 27.9947C109.64 27.8914 109.499 27.8466 109.362 27.8466ZM109.119 29.1755H108.891V29.4035V32.5273V32.7553H109.119H109.62H109.848V32.5273V29.4035V29.1755H109.62H109.119ZM95.3627 28.3036V28.0068L95.0759 28.0833L94.5896 28.2132L94.4204 28.2583V28.4335V29.1754H94.0884H93.8604V29.4034V29.8846V30.1126H94.0884H94.4204V31.5877C94.4204 31.9736 94.5366 32.2911 94.7659 32.5112C94.9935 32.7296 95.3031 32.8239 95.6357 32.8239C95.952 32.8239 96.2741 32.7573 96.5198 32.6639L96.6668 32.608V32.4508V31.9696V31.6258L96.3501 31.7596C96.1708 31.8353 95.973 31.8867 95.7757 31.8867C95.5732 31.8867 95.4859 31.8506 95.4448 31.8136C95.4095 31.7817 95.3627 31.7067 95.3627 31.4961V30.1126H96.3283H96.5563V29.8846V29.4034V29.1754H96.3283H95.3627V28.3036ZM83.3676 29.0912C82.9293 29.0912 82.4683 29.2365 82.1138 29.5479C81.7543 29.8637 81.5186 30.3378 81.5186 30.9613C81.5186 31.5788 81.7454 32.0494 82.0991 32.3634C82.4481 32.6732 82.9044 32.8161 83.3455 32.8161C83.7501 32.8161 84.1044 32.7418 84.423 32.5767L84.5461 32.5129V32.3742V31.8549V31.4488L84.1994 31.6602C83.9838 31.7916 83.6932 31.8789 83.4118 31.8789C83.1596 31.8789 82.9231 31.8035 82.7535 31.658C82.5893 31.5171 82.4683 31.2943 82.4683 30.9537C82.4683 30.6026 82.5939 30.3788 82.7614 30.2388C82.9352 30.0935 83.176 30.0208 83.4265 30.0208C83.7087 30.0208 83.9707 30.108 84.143 30.2509L84.5166 30.5606V30.0754V29.5713V29.4507L84.4169 29.3828C84.1111 29.1745 83.7384 29.0912 83.3676 29.0912ZM85.939 29.1755H85.711V29.4035V31.3357C85.711 31.7636 85.8417 32.1432 86.104 32.4175C86.3676 32.6931 86.7422 32.8392 87.1842 32.8392C87.5078 32.8392 87.7985 32.7361 88.0319 32.5865V32.7552H88.2599H88.7094H88.9374V32.5272V29.4035V29.1755H88.7094H88.2157H87.9877V29.4035V31.4275C87.8066 31.6893 87.5491 31.8944 87.2432 31.8944C87.018 31.8944 86.887 31.8373 86.8095 31.7569C86.7305 31.675 86.668 31.5287 86.668 31.267V29.4035V29.1755H86.44H85.939ZM91.5537 29.0912C91.2434 29.0912 90.909 29.1624 90.6448 29.3415C90.3706 29.5274 90.1837 29.8233 90.1837 30.2281C90.1837 30.5856 90.3423 30.8409 90.5677 31.0207C90.7812 31.1911 91.0545 31.2938 91.2947 31.3727C91.3671 31.3964 91.4356 31.4178 91.5003 31.4381H91.5005C91.6666 31.49 91.8075 31.5341 91.9235 31.5895C92.0857 31.6669 92.092 31.7167 92.092 31.7403C92.092 31.7759 92.0835 31.7894 92.0789 31.7955C92.0724 31.8042 92.0558 31.8206 92.0137 31.838C91.9219 31.8759 91.7713 31.8942 91.5611 31.8942C91.2201 31.8942 90.8128 31.7879 90.5582 31.6077L90.1984 31.353V31.7938V32.2979V32.4183L90.298 32.4862C90.6264 32.7102 91.1248 32.8313 91.5832 32.8313C91.9281 32.8313 92.2835 32.7714 92.5604 32.6022C92.8519 32.4241 93.0416 32.1324 93.0416 31.725C93.0416 31.3663 92.884 31.111 92.6583 30.932C92.4448 30.7628 92.1719 30.6626 91.9329 30.5858C91.8645 30.5638 91.7995 30.5438 91.7381 30.5249H91.738C91.5686 30.4729 91.4256 30.429 91.3087 30.3726C91.1518 30.2969 91.1407 30.2456 91.1407 30.2128C91.1407 30.1671 91.1583 30.1291 91.2325 30.09C91.3153 30.0465 91.4424 30.0208 91.5832 30.0208C91.9051 30.0208 92.2795 30.1327 92.4877 30.2723L92.8427 30.5105V30.083V29.5866V29.4512L92.7239 29.3864C92.4129 29.2167 91.9924 29.0912 91.5537 29.0912ZM99.3416 29.0912C98.4216 29.0912 97.5147 29.7503 97.5147 30.9613C97.5147 32.1723 98.4216 32.8313 99.3416 32.8313C99.7993 32.8313 100.255 32.6697 100.597 32.35C100.943 32.0274 101.161 31.5552 101.161 30.9613C101.161 30.368 100.945 29.8958 100.6 29.5729C100.258 29.2527 99.8026 29.0912 99.3416 29.0912ZM98.4718 30.9613C98.4718 30.6514 98.5744 30.4261 98.7236 30.2786C98.874 30.13 99.0884 30.0437 99.3416 30.0437C99.5947 30.0437 99.8092 30.13 99.9595 30.2786C100.109 30.4261 100.212 30.6514 100.212 30.9613C100.212 31.2712 100.109 31.4965 99.9595 31.644C99.8092 31.7926 99.5947 31.8789 99.3416 31.8789C99.0884 31.8789 98.874 31.7926 98.7236 31.644C98.5744 31.4965 98.4718 31.2712 98.4718 30.9613ZM102.605 32.5193H102.377V29.4033V29.1753H102.605H103.055H103.283V29.3256C103.489 29.1966 103.757 29.0912 104.079 29.0912C104.491 29.0912 104.836 29.2379 105.071 29.5004C105.344 29.2725 105.698 29.0912 106.127 29.0912C106.56 29.0912 106.912 29.2538 107.152 29.5379C107.387 29.817 107.497 30.1925 107.497 30.5947V32.5193V32.7473H107.269H106.768H106.54V32.5193V30.5794C106.54 30.3839 106.486 30.248 106.411 30.1639C106.339 30.083 106.229 30.0284 106.068 30.0284C105.808 30.0284 105.588 30.1971 105.438 30.3769C105.445 30.4477 105.449 30.5195 105.449 30.5947V32.5193V32.7473H105.221H104.72H104.492V32.5193V30.5794C104.492 30.3823 104.439 30.2466 104.365 30.1633C104.295 30.0836 104.185 30.0284 104.02 30.0284C103.727 30.0284 103.494 30.2403 103.334 30.4423V32.5193V32.7473H103.106H102.605V32.5193ZM111.344 29.1755H111.116V29.4035V29.8541V30.0821H111.344H112.55L111.084 31.9191L111.035 31.9815V32.0613V32.5196V32.7476H111.263H113.724H113.952V32.5196V32.0689V31.8409H113.724H112.324L113.784 30.0035L113.834 29.9413V29.8617V29.4035V29.1755H113.606H111.344ZM116.582 29.0912C115.751 29.0912 114.858 29.7343 114.866 30.9544C114.866 31.5681 115.081 32.0434 115.439 32.363C115.794 32.679 116.266 32.8237 116.752 32.8237C117.172 32.8237 117.605 32.744 117.924 32.5655L118.041 32.5002V32.3666V31.8625V31.4726L117.701 31.6638C117.476 31.7903 117.153 31.8866 116.825 31.8866C116.554 31.8866 116.312 31.8244 116.136 31.7059C116.029 31.6337 115.941 31.5378 115.885 31.4108H117.975H118.16L118.198 31.2292C118.3 30.7395 118.236 30.2104 117.97 29.7958C117.699 29.3716 117.23 29.0912 116.582 29.0912ZM117.287 30.5042H115.864C115.98 30.1934 116.276 30.0284 116.612 30.0284C116.922 30.0284 117.091 30.1476 117.185 30.2769C117.237 30.3484 117.269 30.4283 117.287 30.5042ZM128.275 29.0912C127.442 29.0912 126.559 29.7358 126.559 30.9537C126.559 31.5677 126.774 32.0433 127.133 32.363C127.487 32.679 127.959 32.8237 128.445 32.8237C128.865 32.8237 129.299 32.744 129.617 32.5655L129.734 32.5002V32.3666V31.8625V31.4726L129.394 31.6638C129.169 31.7903 128.847 31.8866 128.519 31.8866C128.248 31.8866 128.005 31.8244 127.829 31.7059C127.722 31.6337 127.635 31.5378 127.579 31.4108H129.668H129.853L129.891 31.2292C129.993 30.7395 129.929 30.2104 129.664 29.7958C129.392 29.3716 128.923 29.0912 128.275 29.0912ZM128.98 30.5042H127.558C127.673 30.1934 127.969 30.0284 128.305 30.0284C128.615 30.0284 128.784 30.1476 128.878 30.2769C128.93 30.3484 128.963 30.4283 128.98 30.5042ZM130.979 29.1755H130.53L130.795 29.538L131.802 30.9157L130.729 32.3851L130.464 32.7476H130.913H131.488H131.606L131.674 32.6514L132.365 31.6766L133.055 32.6514L133.123 32.7476H133.241H133.816H134.263L134.001 32.3856L132.934 30.9157L133.934 29.5374L134.197 29.1755H133.75H133.175H133.057L132.989 29.2718L132.365 30.1543L131.74 29.2718L131.672 29.1755H131.554H130.979ZM136.579 29.0912C136.141 29.0912 135.68 29.2365 135.325 29.5479C134.966 29.8637 134.73 30.3378 134.73 30.9613C134.73 31.5788 134.957 32.0494 135.31 32.3634C135.659 32.6732 136.116 32.8161 136.557 32.8161C136.961 32.8161 137.316 32.7418 137.634 32.5767L137.757 32.5129V32.3742V31.8549V31.4488L137.411 31.6602C137.195 31.7916 136.905 31.8789 136.623 31.8789C136.371 31.8789 136.134 31.8035 135.965 31.658C135.801 31.5171 135.68 31.2943 135.68 30.9537C135.68 30.6026 135.805 30.3788 135.973 30.2388C136.147 30.0935 136.387 30.0208 136.638 30.0208C136.913 30.0208 137.182 30.1083 137.354 30.2509L137.728 30.5606V30.0754V29.5713V29.4507L137.628 29.3828C137.322 29.1745 136.95 29.0912 136.579 29.0912ZM140.44 29.0912C139.608 29.0912 138.715 29.7343 138.723 30.9544C138.723 31.5681 138.939 32.0434 139.297 32.363C139.651 32.679 140.124 32.8237 140.609 32.8237C141.029 32.8237 141.463 32.744 141.781 32.5655L141.898 32.5002V32.3666V31.8625V31.4726L141.558 31.6638C141.333 31.7903 141.011 31.8866 140.683 31.8866C140.412 31.8866 140.169 31.8244 139.993 31.7059C139.886 31.6337 139.799 31.5378 139.743 31.4108H141.832H142.018L142.055 31.2292C142.157 30.7395 142.093 30.2104 141.828 29.7958C141.556 29.3716 141.087 29.0912 140.44 29.0912ZM141.144 30.5042H139.722C139.837 30.1934 140.134 30.0284 140.469 30.0284C140.78 30.0284 140.949 30.1476 141.042 30.2769C141.094 30.3484 141.127 30.4283 141.144 30.5042ZM145.929 27.5488H145.701V27.7768V32.5273V32.7553H145.929H146.43H146.658V32.5273V27.7768V27.5488H146.43H145.929ZM149.599 29.0912C148.774 29.0912 147.882 29.7351 147.882 30.9537C147.882 31.5677 148.097 32.0433 148.456 32.363C148.81 32.679 149.283 32.8237 149.768 32.8237C150.189 32.8237 150.622 32.744 150.941 32.5655L151.057 32.5002V32.3666V31.8625V31.4726L150.717 31.6638C150.492 31.7903 150.17 31.8866 149.842 31.8866C149.571 31.8866 149.328 31.8244 149.152 31.7059C149.045 31.6337 148.958 31.5378 148.902 31.4108H150.991H151.177L151.214 31.2292C151.316 30.7395 151.253 30.2104 150.987 29.7958C150.715 29.3716 150.247 29.0912 149.599 29.0912ZM150.311 30.5042H148.888C149.004 30.1934 149.3 30.0284 149.635 30.0284C149.946 30.0284 150.115 30.1476 150.209 30.2769C150.261 30.3484 150.293 30.4283 150.311 30.5042ZM154.209 29.0912C153.882 29.0912 153.589 29.1965 153.354 29.3478V29.1753H153.126H152.677H152.449V29.4033V32.5193V32.7473H152.677H153.178H153.406V32.5193V30.4953C153.587 30.2336 153.844 30.0284 154.15 30.0284C154.335 30.0284 154.473 30.082 154.564 30.1707C154.653 30.258 154.725 30.407 154.725 30.6558V32.5193V32.7473H154.953H155.454H155.682V32.5193V30.5947C155.682 30.1585 155.53 29.78 155.262 29.5099C154.993 29.24 154.622 29.0912 154.209 29.0912ZM158.713 29.0912C158.274 29.0912 157.813 29.2365 157.459 29.5479C157.099 29.8637 156.864 30.3378 156.864 30.9613C156.864 31.5788 157.091 32.0494 157.444 32.3634C157.793 32.6732 158.249 32.8161 158.691 32.8161C159.095 32.8161 159.45 32.7418 159.768 32.5767L159.891 32.5129V32.3742V31.8549V31.4488L159.544 31.6602C159.329 31.7916 159.038 31.8789 158.757 31.8789C158.505 31.8789 158.268 31.8035 158.099 31.658C157.934 31.5171 157.813 31.2943 157.813 30.9537C157.813 30.6026 157.939 30.3788 158.107 30.2388C158.28 30.0935 158.521 30.0208 158.772 30.0208C159.047 30.0208 159.316 30.1083 159.488 30.2509L159.862 30.5606V30.0754V29.5713V29.4507L159.762 29.3828C159.456 29.1745 159.083 29.0912 158.713 29.0912ZM162.566 29.0912C161.741 29.0912 160.85 29.7351 160.85 30.9537C160.85 31.5677 161.065 32.0433 161.424 32.363C161.778 32.679 162.25 32.8237 162.736 32.8237C163.156 32.8237 163.59 32.744 163.908 32.5655L164.025 32.5002V32.3666V31.8625V31.4726L163.685 31.6638C163.46 31.7903 163.138 31.8866 162.81 31.8866C162.539 31.8866 162.296 31.8244 162.12 31.7059C162.013 31.6337 161.926 31.5378 161.87 31.4108H163.959H164.144L164.182 31.2292C164.284 30.7395 164.22 30.2104 163.955 29.7958C163.683 29.3716 163.214 29.0912 162.566 29.0912ZM163.274 30.5042H161.849C161.964 30.1934 162.26 30.0284 162.596 30.0284C162.907 30.0284 163.078 30.1479 163.172 30.2775C163.225 30.3493 163.257 30.4291 163.274 30.5042Z" fill="#79858D"/>
<path fill-rule="evenodd" clip-rule="evenodd" d="M124.754 19.5979H126.021H126.036V13.3581C126.036 12.8006 125.933 12.2889 125.734 11.8382C125.535 11.3876 125.277 10.9981 124.96 10.6697C124.651 10.3413 124.268 10.074 123.833 9.86783C123.391 9.66162 122.905 9.55469 122.367 9.55469C121.092 9.55469 120.083 10.1045 119.346 11.2043C119.044 10.7155 118.609 10.3184 118.057 10.0129C117.504 9.71508 116.915 9.56233 116.303 9.56233C115.286 9.56233 114.417 9.93657 113.695 10.685L112.634 9.822V19.5979H113.901V13.3581C113.901 12.6096 114.144 12.0063 114.631 11.5557C115.117 11.105 115.669 10.8759 116.303 10.8759C116.944 10.8759 117.511 11.105 117.983 11.5557C118.454 12.0063 118.698 12.6096 118.698 13.3581V19.5979H119.965V13.3581C119.965 12.6096 120.201 12.0063 120.687 11.5557C121.173 11.105 121.726 10.8759 122.359 10.8759C123 10.8759 123.56 11.105 124.039 11.5557C124.518 12.0063 124.754 12.6096 124.754 13.3581V19.5979ZM42.6004 11.9909C43.3077 11.2501 44.1918 10.8759 45.2381 10.8759C46.2696 10.8759 47.1464 11.2501 47.8684 11.9986C48.5905 12.747 48.9515 13.6559 48.9515 14.7251C48.9515 15.7944 48.5905 16.7032 47.8684 17.4517C47.1464 18.2002 46.2696 18.5744 45.2381 18.5744C44.1918 18.5744 43.3151 18.2078 42.6004 17.467C41.8783 16.7262 41.5246 15.8097 41.5246 14.7251C41.5246 13.6406 41.8857 12.7318 42.6004 11.9909ZM45.2381 19.8881C46.638 19.8881 47.8316 19.3534 48.8336 18.2842L50.2188 19.6055V9.82957L48.8336 11.1661C47.839 10.0968 46.638 9.56226 45.2381 9.56226C43.8824 9.56226 42.7109 10.0663 41.731 11.0668C40.7436 12.0749 40.25 13.2893 40.25 14.7251C40.25 16.1304 40.7436 17.3372 41.731 18.3606C42.7183 19.3764 43.8824 19.8881 45.2381 19.8881ZM59.2373 18.2843H55.0892L59.1195 9.82203H53.122V11.1356H57.0933L53.0557 19.5979H59.2373V18.2843ZM63.3271 16.8789L68.8384 11.8076C68.1458 11.189 67.3353 10.8759 66.4143 10.8759C65.3681 10.8759 64.4913 11.2501 63.7766 11.9909C63.0619 12.7318 62.7082 13.6406 62.7082 14.7251C62.7082 15.5042 62.9145 16.2221 63.3271 16.8789ZM69.693 16.5199L70.7982 17.1615C70.3856 17.9711 69.7815 18.6355 69.0005 19.132C68.2195 19.636 67.3574 19.8881 66.4143 19.8881C65.0586 19.8881 63.8945 19.3764 62.9072 18.3606C61.9272 17.3448 61.4336 16.1304 61.4336 14.7251C61.4336 13.2893 61.9272 12.0749 62.9072 11.0668C63.8945 10.0663 65.0586 9.56226 66.4143 9.56226C67.2764 9.56226 68.0868 9.78375 68.8457 10.2343C69.6046 10.6849 70.1941 11.2501 70.6067 11.9298L64.1745 17.8107C64.8228 18.3224 65.567 18.5744 66.4143 18.5744C67.1216 18.5744 67.7626 18.3911 68.3373 18.0245C68.9194 17.6579 69.3688 17.1539 69.693 16.5199ZM78.166 10.9675L78.7407 9.79902C78.3723 9.63864 77.9523 9.56226 77.5029 9.56226C76.4566 9.56226 75.5798 9.94413 74.8725 10.7078L73.8115 9.82193V19.5978H75.0788V13.3809C75.0788 12.6936 75.2998 12.1055 75.7567 11.6091C76.2061 11.1126 76.7882 10.8682 77.4955 10.8682C77.7607 10.8682 77.9818 10.9064 78.166 10.9675ZM89.2988 11.4258L88.3041 12.243C87.5526 11.3341 86.6021 10.8759 85.4675 10.8759C84.4212 10.8759 83.5445 11.2501 82.8298 11.9909C82.1151 12.7318 81.7541 13.6406 81.7541 14.7251C81.7541 15.8097 82.1151 16.7262 82.8298 17.467C83.5445 18.2078 84.4212 18.5744 85.4675 18.5744C86.5874 18.5744 87.5158 18.1467 88.2378 17.2837L89.2546 18.0933C88.7757 18.6661 88.2157 19.109 87.5747 19.4222C86.9263 19.7353 86.2264 19.8881 85.4749 19.8881C84.1265 19.8881 82.955 19.3764 81.9677 18.3606C80.9804 17.3372 80.4941 16.1304 80.4941 14.7251C80.4941 13.2893 80.9878 12.0749 81.9677 11.0668C82.955 10.0663 84.1192 9.56226 85.4749 9.56226C86.2559 9.56226 86.9779 9.72265 87.6189 10.0434C88.2599 10.3565 88.8199 10.8224 89.2988 11.4258ZM93.8664 11.9909C94.5738 11.2501 95.4579 10.8759 96.5041 10.8759C97.5357 10.8759 98.4124 11.2501 99.1345 11.9986C99.8566 12.747 100.218 13.6559 100.218 14.7251C100.218 15.7944 99.8566 16.7032 99.1345 17.4517C98.4124 18.2002 97.5357 18.5744 96.5041 18.5744C95.4579 18.5744 94.5811 18.2078 93.8664 17.467C93.1444 16.7262 92.7907 15.8097 92.7907 14.7251C92.7907 13.6406 93.1517 12.7318 93.8664 11.9909ZM100.033 11.0668C99.0608 10.0663 97.8893 9.56226 96.5041 9.56226C95.1558 9.56226 93.9843 10.0663 92.997 11.0668C92.0171 12.0749 91.5234 13.2893 91.5234 14.7251C91.5234 16.1304 92.0171 17.3372 92.997 18.3606C93.9843 19.3764 95.1484 19.8881 96.5041 19.8881C97.8893 19.8881 99.0608 19.3764 100.033 18.3606C101.006 17.3372 101.485 16.1304 101.485 14.7251C101.485 13.2893 101.006 12.0673 100.033 11.0668ZM105.037 17.5204C105.346 18.1543 105.855 18.4751 106.562 18.4751C107.041 18.4751 107.439 18.3071 107.763 17.971C108.087 17.635 108.249 17.2226 108.249 16.7261C108.249 16.329 108.139 15.9777 107.91 15.6645C107.689 15.3514 107.409 15.1528 107.07 15.0535L105.965 14.7175C105.413 14.5418 104.963 14.2287 104.624 13.7704C104.285 13.3198 104.116 12.8005 104.116 12.2277C104.116 11.5097 104.359 10.8987 104.845 10.4023C105.332 9.89828 105.921 9.64625 106.606 9.64625C107.1 9.64625 107.557 9.79136 107.977 10.0739C108.404 10.3641 108.706 10.746 108.89 11.2195L107.733 11.7236C107.549 11.2119 107.174 10.9598 106.606 10.9598C106.253 10.9598 105.965 11.0897 105.729 11.3417C105.501 11.5937 105.383 11.8916 105.383 12.2277C105.383 12.8616 105.685 13.274 106.282 13.4497L107.387 13.7857C108.021 13.9614 108.529 14.3203 108.92 14.8626C109.31 15.4048 109.509 16.0235 109.509 16.7261C109.509 17.2989 109.377 17.8183 109.119 18.2842C108.861 18.7424 108.5 19.109 108.058 19.384C107.608 19.6513 107.115 19.7887 106.562 19.7887C106.009 19.7887 105.501 19.6436 105.037 19.3458C104.573 19.0479 104.204 18.6508 103.932 18.1391L105.037 17.5204ZM134.089 10.8759C133.043 10.8759 132.159 11.2501 131.451 11.9909C130.737 12.7318 130.376 13.6406 130.376 14.7251C130.376 15.8097 130.737 16.7262 131.451 17.467C132.166 18.2078 133.043 18.5744 134.089 18.5744C135.121 18.5744 135.997 18.2002 136.719 17.4517C137.442 16.7032 137.803 15.7944 137.803 14.7251C137.803 13.6559 137.442 12.747 136.719 11.9986C135.997 11.2501 135.121 10.8759 134.089 10.8759ZM134.089 9.56226C135.474 9.56226 136.646 10.0663 137.618 11.0668C138.584 12.0673 139.07 13.2893 139.07 14.7251C139.07 16.1304 138.584 17.3372 137.618 18.3606C136.646 19.3764 135.474 19.8881 134.089 19.8881C132.733 19.8881 131.569 19.3764 130.582 18.3606C129.602 17.3372 129.108 16.1304 129.108 14.7251C129.108 13.2893 129.602 12.0749 130.582 11.0668C131.562 10.0663 132.733 9.56226 134.089 9.56226ZM144.138 18.4751C143.423 18.4751 142.922 18.1543 142.613 17.5204L141.508 18.1391C141.78 18.6508 142.149 19.0479 142.613 19.3458C143.077 19.6436 143.586 19.7887 144.138 19.7887C144.691 19.7887 145.192 19.6513 145.634 19.384C146.083 19.109 146.437 18.7424 146.695 18.2842C146.953 17.8183 147.085 17.2989 147.085 16.7261C147.085 16.0235 146.886 15.4048 146.496 14.8626C146.105 14.3203 145.59 13.9614 144.963 13.7857L143.858 13.4497C143.261 13.274 142.959 12.8616 142.959 12.2277C142.959 11.8916 143.077 11.5937 143.306 11.3417C143.541 11.0897 143.829 10.9598 144.182 10.9598C144.75 10.9598 145.125 11.2119 145.31 11.7236L146.466 11.2195C146.282 10.746 145.98 10.3641 145.553 10.0739C145.133 9.79136 144.676 9.64625 144.182 9.64625C143.497 9.64625 142.908 9.89828 142.421 10.4023C141.935 10.8987 141.692 11.5097 141.692 12.2277C141.692 12.8005 141.861 13.3198 142.2 13.7704C142.539 14.2287 142.989 14.5418 143.541 14.7175L144.647 15.0535C144.985 15.1528 145.265 15.3514 145.486 15.6645C145.715 15.9777 145.825 16.329 145.825 16.7261C145.825 17.2226 145.663 17.635 145.339 17.971C145.015 18.3071 144.617 18.4751 144.138 18.4751Z" fill="#79858D"/>
<path fill-rule="evenodd" clip-rule="evenodd" d="M19.8934 3.2001C14.9863 7.25559 10.8161 12.2199 7.61843 17.8488C12.1865 11.6548 18.0514 6.53767 24.7709 2.91751C24.5867 2.78767 24.3952 2.65784 24.2036 2.528C24.152 2.49745 24.1005 2.4669 24.0563 2.42871C23.9789 2.38289 23.9034 2.33516 23.8279 2.28742C23.7523 2.23969 23.6768 2.19195 23.5994 2.14613C23.5737 2.13086 23.5497 2.1175 23.5258 2.10414V2.10412C23.5018 2.09075 23.4779 2.07739 23.4521 2.06212C23.2679 1.95519 23.0837 1.8559 22.8921 1.75662L22.8479 1.7337C20.726 0.626272 18.324 0 15.7821 0C7.06583 0 0 7.32433 0 16.3594C0 16.5427 0.00736792 16.7337 0.0147358 16.917C0.294717 8.75253 6.76375 2.2225 14.7137 2.2225C16.541 2.2225 18.2798 2.57383 19.8934 3.2001ZM29.8105 8.87476C24.1667 12.6018 19.4512 17.7189 16.1357 23.7678C19.5544 19.277 23.8351 15.527 28.7053 12.7699C29.1695 14.2515 29.42 15.8325 29.42 17.4745C29.42 25.7077 23.1204 32.4134 15.2441 32.7113C15.421 32.7189 15.5978 32.7266 15.782 32.7266C24.4982 32.7266 31.5641 25.4022 31.5641 16.3671C31.5641 14.7174 31.3283 13.1288 30.8936 11.6319C30.6063 10.6619 30.2452 9.74543 29.8105 8.87476ZM27.7325 7.15632C26.3473 7.93535 24.999 8.79074 23.7022 9.71488C21.0792 11.5402 18.6773 13.694 16.4743 16.0692C15.3691 17.2454 14.3302 18.4903 13.3503 19.7887C12.363 21.0794 11.442 22.4313 10.5873 23.8289C8.86321 26.6166 7.43384 29.6105 6.24023 32.7342C6.98439 29.4577 8.17063 26.2882 9.67369 23.279C10.4399 21.7744 11.2873 20.3157 12.2082 18.9104C13.1292 17.5051 14.146 16.1609 15.2217 14.8702C17.3658 12.2734 19.8414 9.97455 22.5012 7.94298C23.8422 6.94248 25.2347 6.01071 26.6788 5.17058C27.4009 4.75052 28.1303 4.35338 28.8745 3.9715C29.2429 3.78057 29.6186 3.58963 29.9944 3.41397C30.1786 3.31468 30.3849 3.24594 30.628 3.29941C30.7373 3.31357 30.8593 3.37368 30.9881 3.43714C30.9982 3.44213 31.0083 3.44714 31.0185 3.45215C31.1659 3.53617 31.3133 3.62782 31.4975 3.81112L31.6301 4.13953C31.6301 4.38524 31.5927 4.55351 31.5581 4.7096C31.555 4.72332 31.552 4.73695 31.549 4.75052C31.5048 4.90327 31.4533 5.04838 31.3869 5.14767C31.2617 5.36916 31.0996 5.47608 30.9154 5.54482C30.5544 5.70521 30.1933 5.87323 29.8397 6.04889C29.125 6.40022 28.425 6.76681 27.7325 7.15632Z" fill="#005CB9"/>
</g>
<defs>
<clipPath id="clip0_34_2127">
<rect width="165" height="33" fill="white"/>
</clipPath>
</defs>
</svg>
