<svg width="31" height="30" viewBox="0 0 31 30" fill="none" xmlns="http://www.w3.org/2000/svg">
<g clip-path="url(#clip0_34_2046)">
<path fill-rule="evenodd" clip-rule="evenodd" d="M26.1598 10.313C26.7165 11.4504 27.0195 12.6611 27.1316 13.9106C27.4244 17.1781 26.5555 20.1159 24.4383 22.65C22.3452 25.1549 19.6499 26.6136 16.3764 26.9412C12.3804 27.3412 8.95346 26.0975 6.19461 23.2135C3.82638 20.7383 2.79207 17.7372 2.95749 14.3354C3.19628 9.41752 6.89944 4.90329 11.7283 3.61183C14.5391 2.85996 17.2806 3.02749 19.9576 4.16824C20.0194 4.19448 20.0762 4.23149 20.1353 4.26345C20.1451 4.39027 20.0486 4.39666 19.9624 4.41483C19.2409 4.22947 18.5653 3.90282 17.8295 3.7548C13.608 2.9047 9.88757 3.83352 6.75168 6.81643C4.80941 8.66397 3.66843 10.93 3.32808 13.5678C2.89363 16.9322 3.79106 19.942 5.97518 22.5481C7.89299 24.8363 10.3665 26.224 13.3407 26.6183C17.1573 27.1242 20.513 26.0915 23.318 23.4319C25.3734 21.4834 26.5531 19.0919 26.8411 16.3041C27.0307 14.4676 26.8265 12.6511 26.1316 10.9132C26.0769 10.7766 26.0079 10.6427 26.0089 10.4893C26.0256 10.4025 26.0331 10.3073 26.1598 10.313Z" fill="#0C9CD0"/>
<path fill-rule="evenodd" clip-rule="evenodd" d="M15.169 2.156C15.3901 2.26298 15.3748 2.04734 15.4248 1.95584C15.7274 1.40313 16.0253 0.847384 16.3083 0.284577C16.4017 0.0988815 16.5172 0.0443837 16.7206 0.0588492C16.9265 0.073651 16.9947 0.179619 17.0409 0.351859C17.2084 0.971855 17.3867 1.58849 17.5549 2.20815C17.5854 2.32017 17.7203 2.48905 17.5083 2.53345C17.3504 2.56642 17.1493 2.55363 17.0671 2.34304C17.0114 2.20075 17.0572 1.98578 16.8616 1.9407C16.6269 1.88621 16.3806 1.87645 16.1388 1.85862C16.096 1.85526 16.0185 1.89798 16.009 1.9333C15.865 2.46213 15.4509 2.31243 15.0905 2.29931C15.0664 2.22463 15.1024 2.18224 15.169 2.156Z" fill="#069BD0"/>
<mask id="mask0_34_2046" style="mask-type:alpha" maskUnits="userSpaceOnUse" x="12" y="0" width="4" height="3">
<path fill-rule="evenodd" clip-rule="evenodd" d="M12.8867 0H15.1695V2.48235H12.8867V0Z" fill="white"/>
</mask>
<g mask="url(#mask0_34_2046)">
<path fill-rule="evenodd" clip-rule="evenodd" d="M15.1695 2.15619C15.1433 2.20396 15.1172 2.25173 15.091 2.2995C14.8543 2.36443 14.6651 2.33583 14.5893 2.06234C14.5075 1.76798 14.2676 1.81979 14.0611 1.85107C13.841 1.88471 13.5458 1.79523 13.4731 2.13769C13.4592 2.20295 13.4449 2.27091 13.4147 2.32944C13.3186 2.51379 13.1304 2.49596 12.9854 2.45728C12.7979 2.40782 12.93 2.26149 12.9589 2.16494C13.1386 1.56143 13.3356 0.962625 13.5071 0.356758C13.5655 0.150542 13.6545 0.0388549 13.8794 0.00555078C14.1403 -0.0331359 14.2004 0.137085 14.2822 0.308316C14.5764 0.924948 14.8736 1.54023 15.1695 2.15619Z" fill="#069BD0"/>
</g>
<mask id="mask1_34_2046" style="mask-type:alpha" maskUnits="userSpaceOnUse" x="12" y="27" width="4" height="3">
<path fill-rule="evenodd" clip-rule="evenodd" d="M12.8115 27.7383H15.0387V29.9995H12.8115V27.7383Z" fill="white"/>
</mask>
<g mask="url(#mask1_34_2046)">
<path fill-rule="evenodd" clip-rule="evenodd" d="M14.6592 29.1825C14.6881 28.8215 14.716 28.4602 14.7472 28.0996C14.7571 27.9862 14.7275 27.8267 14.9242 27.86C15.0757 27.8859 15.0366 28.0033 15.0271 28.115C14.984 28.623 14.9565 29.1323 14.9116 29.6403C14.8991 29.7789 14.9833 29.9801 14.7109 29.9982C14.452 30.0154 14.3994 29.861 14.3529 29.6615C14.2438 29.1979 14.1205 28.7381 13.9779 28.1783C13.7448 28.7021 13.5427 29.1357 13.3593 29.5767C13.2771 29.7742 13.1749 29.9128 12.9418 29.8388C12.7238 29.7691 12.8433 29.5922 12.8518 29.463C12.8838 28.9813 12.9272 28.5006 12.969 28.0195C12.9799 27.8933 12.9429 27.7194 13.1575 27.7399C13.3505 27.7588 13.2819 27.9223 13.2764 28.0262C13.2615 28.3071 13.2265 28.587 13.1997 28.8672C13.1901 28.9786 13.0638 29.1202 13.2805 29.1727C13.449 28.7821 13.6151 28.3906 13.7876 28.0017C13.8338 27.8977 13.8644 27.7675 14.0359 27.7971C14.1752 27.8214 14.1881 27.9246 14.2143 28.0279C14.3175 28.44 14.4225 28.8514 14.5271 29.2632C14.629 29.3291 14.6338 29.2393 14.6592 29.1825Z" fill="#0D9CD0"/>
</g>
<path fill-rule="evenodd" clip-rule="evenodd" d="M27.7176 10.2504C28.0858 10.0926 28.452 9.92945 28.8239 9.78076C28.9173 9.74342 29.0372 9.62265 29.1272 9.81003C29.2217 10.0062 29.0433 10.0072 28.9533 10.0475C28.4591 10.2675 27.9615 10.4795 27.4611 10.6857C27.3728 10.7224 27.2665 10.8367 27.1728 10.7143C27.0851 10.6002 27.0936 10.4754 27.1823 10.3449C27.4472 9.95502 27.6999 9.55739 27.956 9.16178C27.9825 9.1204 28.0301 9.07868 27.9554 8.99324C27.6164 9.05312 27.3113 9.25563 26.9744 9.36934C26.8558 9.40937 26.6965 9.60146 26.6001 9.39221C26.492 9.1574 26.7495 9.15538 26.8786 9.09618C27.2842 8.91048 27.6914 8.72613 28.1079 8.56634C28.239 8.51621 28.3871 8.3359 28.5362 8.49199C28.7176 8.6824 28.5267 8.83782 28.4313 8.98785C28.1789 9.38481 27.9183 9.77639 27.6609 10.17C27.6799 10.1969 27.6986 10.2235 27.7176 10.2504Z" fill="#119CD0"/>
<path fill-rule="evenodd" clip-rule="evenodd" d="M26.8562 7.93506C26.8022 8.32159 26.6106 8.63142 26.4581 8.98263C26.258 8.86286 26.2057 8.72662 26.3063 8.51939C26.4112 8.30275 26.5046 8.0787 26.5811 7.85096C26.6527 7.63667 26.5576 7.43987 26.4051 7.30362C26.2346 7.15123 26.1276 7.38503 25.9846 7.42372C25.8127 7.47048 25.6497 7.80823 25.4883 7.55626C25.3348 7.31674 25.6853 7.2683 25.8249 7.16772C26.1857 6.90734 26.5804 6.69338 26.9415 6.43334C27.1572 6.27826 27.2635 6.33175 27.3756 6.53796C27.4714 6.71458 27.5957 6.87605 27.7037 7.04661C27.881 7.32717 28.0536 7.6185 27.7754 7.92564C27.4924 8.23782 27.1758 8.1665 26.8562 7.93506Z" fill="#0F9CD0"/>
<path fill-rule="evenodd" clip-rule="evenodd" d="M21.9208 2.43671C21.6586 2.87774 21.4602 3.22188 21.2493 3.55829C21.1864 3.65887 21.1389 3.85365 20.9568 3.73692C20.7754 3.62119 20.9402 3.49807 20.9986 3.3958C21.2533 2.95208 21.5159 2.51274 21.7815 2.07541C21.8325 1.99131 21.8576 1.85237 22.004 1.88332C22.1446 1.91293 22.1895 2.02192 22.197 2.15547C22.215 2.47708 22.2367 2.79868 22.2588 3.11995C22.2741 3.34568 22.2472 3.57746 22.3675 3.8338C22.5944 3.45602 22.8057 3.10178 23.0196 2.74923C23.0794 2.65066 23.1192 2.51408 23.2904 2.62375C23.448 2.72501 23.3301 2.80777 23.2829 2.8885C23.0108 3.35342 22.7367 3.81732 22.4558 4.27719C22.4004 4.36802 22.38 4.53319 22.2017 4.46961C22.0502 4.41579 22.0247 4.29502 22.0183 4.14767C21.9952 3.61682 21.9592 3.08665 21.9208 2.43671Z" fill="#129CD0"/>
<path fill-rule="evenodd" clip-rule="evenodd" d="M1.26925 16.6532C1.54914 16.3979 1.81545 16.155 2.09297 15.9023C2.26144 16.1126 2.21253 16.2573 2.03828 16.3979C1.85995 16.5415 1.69011 16.6956 1.52299 16.852C1.33753 17.0256 1.35859 17.2533 1.43229 17.4528C1.51721 17.6816 1.71287 17.4878 1.85383 17.5147C2.03216 17.5487 2.32666 17.3173 2.36912 17.5844C2.42211 17.9181 2.06749 17.7792 1.89018 17.8128C1.46592 17.8932 1.02978 17.9157 0.609259 18.0089C0.323592 18.0725 0.248523 17.986 0.240031 17.7247C0.232898 17.5117 0.194854 17.2981 0.150697 17.0888C0.079704 16.7521 0.124202 16.4527 0.474408 16.3144C0.825293 16.1762 1.10315 16.3134 1.26925 16.6532Z" fill="#0D9CD0"/>
<path fill-rule="evenodd" clip-rule="evenodd" d="M2.03424 11.8711C1.5305 11.7671 1.1341 11.6874 0.738713 11.6016C0.621185 11.5764 0.428588 11.6151 0.480219 11.3944C0.522339 11.2128 0.669079 11.2874 0.779814 11.3086C1.2968 11.4085 1.81311 11.5108 2.3284 11.6198C2.42588 11.6407 2.56889 11.6343 2.58519 11.7685C2.60353 11.9195 2.50265 12.009 2.36338 12.0642C1.8627 12.2627 1.36406 12.4655 0.800194 12.6929C1.20475 12.8625 1.58111 12.8736 1.93166 12.9769C2.06617 13.0166 2.32602 12.9557 2.27303 13.2023C2.23023 13.4021 2.02201 13.2921 1.89361 13.2685C1.40244 13.178 0.913986 13.0714 0.425192 12.9681C0.324647 12.9469 0.194551 12.9563 0.180964 12.8087C0.168057 12.6664 0.254334 12.592 0.379675 12.5419C0.891907 12.3367 1.40278 12.1278 2.03424 11.8711Z" fill="#109CD0"/>
<path fill-rule="evenodd" clip-rule="evenodd" d="M27.7685 19.3017C28.2695 19.4447 28.6727 19.5554 29.0725 19.6772C29.1737 19.7078 29.35 19.6997 29.2991 19.8827C29.2525 20.0516 29.1112 19.9978 28.9957 19.9645C28.4896 19.8195 27.9842 19.6714 27.4787 19.5238C27.3663 19.4908 27.2219 19.4928 27.2277 19.3199C27.2325 19.1702 27.3401 19.1278 27.4651 19.0885C27.9781 18.9273 28.4886 18.7588 29.065 18.5717C28.6465 18.3642 28.2447 18.3151 27.8738 18.1805C27.7607 18.1394 27.5694 18.1519 27.6336 17.9406C27.6961 17.7331 27.8384 17.8771 27.9295 17.9006C28.4393 18.0331 28.9465 18.1765 29.4502 18.3292C29.5382 18.3558 29.6914 18.3295 29.6961 18.4833C29.7012 18.6377 29.6065 18.7211 29.4604 18.7665C28.9329 18.93 28.4071 19.0992 27.7685 19.3017Z" fill="#0D9CD0"/>
<path fill-rule="evenodd" clip-rule="evenodd" d="M18.6098 29.5271C18.1013 29.5241 17.7911 29.2196 17.6546 28.6434C17.5265 28.1038 17.6784 27.7041 18.086 27.5063C18.9566 27.0841 19.0982 27.1477 19.3448 28.0691C19.3761 28.1858 19.4236 28.2992 19.4437 28.4173C19.4922 28.7029 19.7616 29.0666 19.586 29.2452C19.3499 29.4847 18.9165 29.4817 18.6098 29.5271Z" fill="#0F9CD0"/>
<path fill-rule="evenodd" clip-rule="evenodd" d="M7.74445 27.9936C7.17821 27.9892 6.69112 27.5105 6.70538 26.9716C6.72135 26.3654 7.26041 25.7979 7.82156 25.7969C8.39527 25.7955 8.88033 26.2537 8.88135 26.798C8.88237 27.412 8.32496 27.998 7.74445 27.9936Z" fill="#119CD0"/>
<path fill-rule="evenodd" clip-rule="evenodd" d="M28.9461 17.6264C28.2855 17.6213 27.7997 17.1759 27.8018 16.5771C27.8041 15.978 28.278 15.5481 28.9196 15.5629C29.5667 15.5777 30.0579 16.0227 30.0487 16.5852C30.0389 17.1971 29.5789 17.6311 28.9461 17.6264Z" fill="#119CD0"/>
<path fill-rule="evenodd" clip-rule="evenodd" d="M26.6961 5.67325C26.6673 5.71059 26.6401 5.75668 26.602 5.792C26.5141 5.87442 26.457 5.80075 26.4033 5.74255C26.2209 5.54441 26.0283 5.354 25.8633 5.1424C25.706 4.9409 25.5973 5.00515 25.4424 5.14644C25.2943 5.28201 25.1907 5.37621 25.3874 5.55787C25.565 5.72136 25.7155 5.91378 25.8745 6.09645C25.9227 6.15196 26.0073 6.20578 25.9193 6.29527C25.8347 6.38071 25.7539 6.37264 25.6764 6.28787C25.5039 6.09948 25.3215 5.91816 25.1632 5.71833C25.0093 5.52456 24.8976 5.60463 24.7834 5.74558C24.6815 5.87173 24.4064 5.93935 24.6387 6.18156C24.8435 6.39518 25.0351 6.62192 25.2376 6.83789C25.3113 6.91594 25.3541 6.97615 25.2546 7.06799C25.1479 7.16622 25.0912 7.09423 25.0253 7.02224C24.7437 6.71443 24.4655 6.40292 24.1761 6.10217C24.0694 5.99116 24.1064 5.92623 24.2009 5.84213C24.6336 5.45661 25.0616 5.0657 25.4947 4.68086C25.5722 4.61223 25.6618 4.52342 25.7715 4.64217C26.064 4.95839 26.3561 5.27529 26.6472 5.59252C26.6652 5.61169 26.6754 5.63827 26.6961 5.67325Z" fill="#119CD0"/>
<mask id="mask2_34_2046" style="mask-type:alpha" maskUnits="userSpaceOnUse" x="0" y="13" width="3" height="3">
<path fill-rule="evenodd" clip-rule="evenodd" d="M0 13.6309H2.21165V15.7023H0V13.6309Z" fill="white"/>
</mask>
<g mask="url(#mask2_34_2046)">
<path fill-rule="evenodd" clip-rule="evenodd" d="M7.11791e-06 14.6761C-0.00203094 14.0541 0.433774 13.6319 1.07814 13.6309C1.75104 13.6302 2.21504 14.0581 2.21164 14.6764C2.20824 15.2644 1.7687 15.686 1.142 15.7018C0.473176 15.7186 0.00204518 15.2954 7.11791e-06 14.6761Z" fill="#0D9CD0"/>
</g>
<path fill-rule="evenodd" clip-rule="evenodd" d="M16.2233 28.0499C16.0354 28.0715 15.8476 28.0933 15.6598 28.1142C15.5511 28.126 15.4325 28.1502 15.4206 27.9867C15.4108 27.8538 15.5062 27.84 15.6064 27.832C15.9971 27.8007 16.388 27.7697 16.7783 27.7351C16.9383 27.7206 17.029 27.762 17.0436 27.9443C17.0861 28.4779 17.1363 29.0111 17.1988 29.5426C17.2253 29.767 17.1577 29.8507 16.9237 29.8605C16.5735 29.8753 16.225 29.9274 15.8755 29.9631C15.7837 29.9725 15.6771 30.0068 15.6567 29.8652C15.6343 29.7115 15.7382 29.6936 15.8561 29.6835C16.1119 29.6617 16.3673 29.6129 16.6224 29.6142C16.8972 29.6159 16.8846 29.4608 16.8673 29.2741C16.849 29.077 16.8072 28.9448 16.5473 28.9986C16.3113 29.0474 16.0633 29.0393 15.8211 29.0649C15.7233 29.075 15.6618 29.0534 15.654 28.9502C15.6465 28.8529 15.6964 28.8038 15.7943 28.7941C16.0229 28.7715 16.2511 28.7281 16.4797 28.7261C16.7134 28.7244 16.8452 28.6696 16.7837 28.4062C16.7386 28.2114 16.779 27.943 16.4264 28.0456C16.3632 28.0641 16.2922 28.0563 16.2246 28.0607C16.224 28.057 16.2236 28.0536 16.2233 28.0499Z" fill="#119CD0"/>
<path fill-rule="evenodd" clip-rule="evenodd" d="M2.51719 20.7538C2.54912 20.9593 2.59328 21.183 2.61604 21.4091C2.64049 21.655 2.56373 21.8723 2.31916 21.9733C2.05421 22.0826 1.81848 22.0133 1.62316 21.7997C1.34463 21.4949 1.26073 21.0441 1.44823 20.7662C1.50971 20.6747 1.57187 20.519 1.71929 20.6071C1.84939 20.6848 1.80319 20.7982 1.72031 20.9142C1.5216 21.1921 1.6748 21.4229 1.85788 21.6335C1.92785 21.7139 2.02398 21.7721 2.14661 21.7196C2.26176 21.6701 2.31339 21.582 2.2998 21.4639C2.27093 21.2116 2.22813 20.961 2.20163 20.7087C2.17106 20.4137 2.25938 20.1755 2.56543 20.0668C2.86196 19.9612 3.09498 20.0779 3.28826 20.2926C3.60823 20.6481 3.66462 21.1797 3.41394 21.4717C3.33921 21.5588 3.25701 21.6887 3.1174 21.5712C3.00972 21.4808 3.06407 21.3953 3.14559 21.3004C3.37182 21.038 3.28146 20.7733 3.10891 20.5281C3.01516 20.3948 2.88948 20.2754 2.69994 20.335C2.49817 20.3982 2.51074 20.5704 2.51719 20.7538Z" fill="#119CD0"/>
<path fill-rule="evenodd" clip-rule="evenodd" d="M8.22899 4.1693C8.14 4.13836 8.02281 4.12355 7.94061 4.06233C7.83802 3.98596 7.62335 3.93214 7.73272 3.74678C7.837 3.57017 7.95114 3.72155 8.06459 3.78513C8.32138 3.93012 8.81255 3.75754 8.94061 3.48943C8.99054 3.38514 8.99632 3.28153 8.92329 3.18532C8.83158 3.06455 8.70658 3.03259 8.56119 3.06522C8.31085 3.1214 8.07036 3.22064 7.80847 3.22569C7.57783 3.22972 7.37301 3.18969 7.27042 2.95152C7.17022 2.71771 7.20962 2.50746 7.3747 2.3147C7.6692 1.96988 8.20997 1.84777 8.50345 2.06677C8.57478 2.11992 8.68619 2.17576 8.62132 2.28711C8.56119 2.3914 8.46778 2.41999 8.35093 2.33387C8.06968 2.12698 7.83768 2.28072 7.62165 2.45666C7.5228 2.53706 7.47219 2.65817 7.53197 2.78331C7.59821 2.92225 7.71574 2.96632 7.87063 2.92393C8.09244 2.86338 8.31561 2.80686 8.54047 2.75775C8.80474 2.69988 9.03334 2.77356 9.17669 3.00332C9.31663 3.22703 9.30712 3.47059 9.15393 3.68757C8.9362 3.99639 8.60263 4.10438 8.22899 4.1693Z" fill="#119CD0"/>
<path fill-rule="evenodd" clip-rule="evenodd" d="M4.08645 8.22252C4.09936 8.94176 3.4645 9.3515 2.81504 9.02922C2.47707 8.86169 2.15573 8.66052 1.82964 8.47045C1.74472 8.421 1.60342 8.39375 1.67849 8.24102C1.75593 8.08426 1.86395 8.1327 1.98012 8.20032C2.30655 8.39039 2.63569 8.57541 2.96416 8.76178C3.2624 8.93099 3.50968 8.88356 3.68699 8.58281C3.85819 8.29216 3.81403 8.03918 3.51885 7.85786C3.18597 7.65299 2.84527 7.46023 2.50696 7.2641C2.41389 7.20994 2.29704 7.17327 2.38399 7.02794C2.46008 6.90112 2.55077 6.92635 2.65641 6.99027C3.03719 7.22003 3.42442 7.44004 3.80078 7.67721C3.9944 7.79932 4.09257 7.98872 4.08645 8.22252Z" fill="#159CD0"/>
<path fill-rule="evenodd" clip-rule="evenodd" d="M27.6215 11.0313C28.2003 11.0963 28.7519 11.1555 29.3022 11.2224C29.4319 11.2379 29.5668 11.2463 29.6242 11.4138C29.688 11.5989 29.5542 11.6486 29.4489 11.726C28.9812 12.0698 28.5158 12.417 28.0433 12.7537C27.9628 12.8109 27.8613 12.9808 27.7485 12.8096C27.6581 12.6723 27.7414 12.5532 27.8748 12.4786C28.1306 12.3353 28.2757 12.1782 28.1802 11.835C28.0902 11.5121 27.9937 11.2991 27.6092 11.3324C27.4747 11.3439 27.3066 11.2937 27.3246 11.1188C27.3514 10.8628 27.5579 11.1373 27.6215 11.0313Z" fill="#159CD0"/>
<path fill-rule="evenodd" clip-rule="evenodd" d="M26.7205 21.1838C27.0038 21.2666 27.1458 21.1388 27.2416 20.8838C27.337 20.6301 27.5772 20.3889 27.2029 20.1625C27.1356 20.1218 27.0809 20.0538 27.0334 19.9896C26.9614 19.8924 27.0273 19.7975 27.086 19.7363C27.1757 19.6428 27.2209 19.7602 27.2698 19.8099C27.7049 20.2537 28.137 20.7001 28.5718 21.1438C28.6625 21.2366 28.7233 21.3214 28.6482 21.4614C28.5748 21.5976 28.4692 21.5973 28.3408 21.5899C27.7857 21.5576 27.23 21.5371 26.6757 21.4977C26.5463 21.4886 26.3163 21.527 26.3194 21.3598C26.3234 21.1219 26.5364 21.1327 26.7205 21.1838Z" fill="#159CD0"/>
<path fill-rule="evenodd" clip-rule="evenodd" d="M4.94433 23.127C4.27143 23.2884 3.60193 23.4489 2.93276 23.61C2.81761 23.6376 2.72251 23.6269 2.65083 23.5158C2.59071 23.4233 2.59513 23.3382 2.65117 23.2528C3.00681 22.7125 3.36347 22.1729 3.72149 21.6343C3.76497 21.5684 3.8166 21.487 3.91137 21.5654C4.04419 21.6754 4.02109 21.7958 3.92326 21.9176C3.75071 22.1329 3.62435 22.3189 3.84615 22.6153C4.05709 22.8972 4.23474 23.0721 4.59922 22.9053C4.75411 22.8343 4.89575 22.8699 4.94433 23.127Z" fill="#119CD0"/>
<path fill-rule="evenodd" clip-rule="evenodd" d="M22.9951 25.2291C23.131 24.9159 23.3277 24.9996 23.4989 25.1244C23.8569 25.3855 24.0162 25.0645 24.2472 24.9088C24.4914 24.744 24.4404 24.5653 24.3314 24.3608C24.294 24.2901 24.2601 24.2151 24.241 24.1381C24.2129 24.0227 24.308 23.9598 24.3868 23.9255C24.4972 23.8774 24.5094 23.9928 24.5355 24.0587C24.7669 24.6437 24.9917 25.2311 25.2264 25.8147C25.2733 25.9308 25.2679 26.0135 25.1738 26.0997C25.0943 26.172 25.0209 26.1925 24.9201 26.1441C24.2784 25.8366 23.6351 25.5328 22.9951 25.2291Z" fill="#109CD0"/>
<path fill-rule="evenodd" clip-rule="evenodd" d="M2.72247 9.61221C2.84407 9.60649 2.9667 9.59068 3.08728 9.59841C3.17899 9.60413 3.3349 9.53483 3.32947 9.71346C3.32539 9.84971 3.233 9.91766 3.0832 9.92002C2.82913 9.92405 2.56554 9.83659 2.43646 10.2177C2.31622 10.5726 2.24183 10.8482 2.6277 11.0621C2.75881 11.1351 2.78667 11.2505 2.69461 11.3639C2.58048 11.5042 2.51085 11.3551 2.44427 11.2976C1.9959 10.909 1.55194 10.5158 1.10833 10.1222C1.02001 10.0438 0.925581 9.9799 0.977891 9.82145C1.03835 9.63844 1.17422 9.66132 1.30364 9.66031C1.77647 9.65627 2.2493 9.65863 2.72213 9.65863C2.72247 9.64315 2.72247 9.62768 2.72247 9.61221Z" fill="#139CD0"/>
<path fill-rule="evenodd" clip-rule="evenodd" d="M21.2703 28.0422C21.2163 28.2386 21.4252 28.5444 21.1528 28.6786C20.8444 28.8304 20.7214 28.4795 20.5438 28.3278C20.1858 28.0213 19.8559 27.6825 19.5213 27.3502C19.4609 27.2903 19.2985 27.2267 19.4324 27.111C19.5197 27.0356 19.6511 26.9949 19.7493 27.1312C19.7727 27.1635 19.8131 27.1843 19.8339 27.2173C20.0696 27.5931 20.3396 27.3868 20.6314 27.2927C20.9358 27.1944 20.9317 27.0067 20.8909 26.7672C20.8777 26.6898 20.8804 26.6047 20.8991 26.5287C20.9205 26.4422 21.0064 26.4039 21.0866 26.3988C21.2116 26.3911 21.1881 26.5014 21.1926 26.5717C21.2211 27.0528 21.2442 27.5345 21.2703 28.0422Z" fill="#0F9CD0"/>
<path fill-rule="evenodd" clip-rule="evenodd" d="M6.30415 3.15234C6.36903 3.16614 6.45021 3.17589 6.52664 3.20112C6.62311 3.23274 6.77257 3.24149 6.74471 3.38345C6.7172 3.52205 6.60545 3.56007 6.46006 3.50288C6.12141 3.36966 5.8765 3.5123 5.71176 3.79791C5.50557 4.15517 5.6924 4.44986 5.92066 4.70889C6.12854 4.94471 6.37141 5.15732 6.73045 5.00829C7.0528 4.87474 7.2437 4.65271 7.14247 4.28536C7.10783 4.15988 7.11122 4.07107 7.24472 4.03205C7.40301 3.98596 7.41354 4.10908 7.44445 4.21404C7.59187 4.71629 7.14485 5.28818 6.56536 5.33562C6.12175 5.37229 5.57996 4.976 5.39926 4.48317C5.23757 4.04214 5.38499 3.60885 5.79464 3.32088C5.9424 3.21727 6.1085 3.16681 6.30415 3.15234Z" fill="#0F9CD0"/>
<path fill-rule="evenodd" clip-rule="evenodd" d="M23.6534 26.8303C23.6503 27.5008 22.9156 28.0098 22.3623 27.7205C22.2791 27.6767 22.1266 27.6488 22.2125 27.4957C22.274 27.3861 22.3626 27.3662 22.4842 27.4365C22.7682 27.6004 23.0101 27.491 23.2115 27.2811C23.4116 27.0729 23.417 26.8256 23.3005 26.5713C23.2047 26.3614 23.0885 26.1646 22.8976 26.0246C22.6833 25.8682 22.4554 25.8325 22.2135 25.9651C21.9795 26.0936 21.8395 26.2864 21.8742 26.5538C21.8932 26.7028 21.9272 26.835 21.7271 26.8421C21.5389 26.8485 21.5797 26.6678 21.5671 26.5703C21.4883 25.9641 22.259 25.4278 22.8596 25.6613C23.3049 25.8346 23.6554 26.3513 23.6534 26.8303Z" fill="#0F9CD0"/>
<path fill-rule="evenodd" clip-rule="evenodd" d="M26.16 10.3131C26.0989 10.3491 26.0893 10.4083 26.0873 10.4708C25.892 10.485 25.8944 10.31 25.8427 10.2034C24.7643 7.98042 23.1668 6.23246 21.0075 4.99448C20.8947 4.92989 20.7507 4.88549 20.7591 4.71258C20.788 4.65404 20.8233 4.60896 20.8984 4.64664C22.6725 5.5583 24.0764 6.87499 25.1821 8.5106C25.5662 9.07812 25.9348 9.65875 26.16 10.3131Z" fill="#269ED1"/>
<path fill-rule="evenodd" clip-rule="evenodd" d="M4.84348 25.6957C4.9352 25.7603 4.99192 25.7946 5.04185 25.8366C5.18622 25.9577 5.33635 26.0738 5.46883 26.207C5.6655 26.4051 5.79729 26.3769 5.98446 26.1663C6.1886 25.9365 6.0422 25.8508 5.88867 25.7307C5.77216 25.6395 5.65871 25.5439 5.55001 25.4437C5.48581 25.3845 5.38289 25.3273 5.47732 25.2153C5.56054 25.1164 5.639 25.1574 5.72121 25.2207C5.92977 25.3811 6.11081 25.7034 6.34893 25.6603C6.54832 25.6244 6.69845 25.3165 6.86863 25.1275C6.93045 25.0589 6.99194 25.0279 7.07244 25.0992C7.15022 25.1685 7.19744 25.2361 7.11014 25.3354C6.71102 25.7892 6.31326 26.2447 5.91754 26.7015C5.82685 26.8061 5.73955 26.8038 5.6407 26.7183C5.36557 26.4812 5.08907 26.2454 4.81427 26.0079C4.76298 25.9634 4.71339 25.913 4.75449 25.837C4.77928 25.7909 4.81019 25.7478 4.84348 25.6957Z" fill="#159CD0"/>
<path fill-rule="evenodd" clip-rule="evenodd" d="M11.74 0.531167C11.703 0.338406 11.8276 0.313512 11.975 0.2866C12.1157 0.261033 12.204 0.267425 12.2376 0.433946C12.3667 1.07547 12.5039 1.71498 12.6411 2.35482C12.6799 2.53648 12.5702 2.59233 12.4248 2.62058C12.3032 2.6448 12.1873 2.67374 12.1507 2.4914C12.0189 1.83709 11.8776 1.18447 11.74 0.531167Z" fill="#0D9CD0"/>
<path fill-rule="evenodd" clip-rule="evenodd" d="M12.2223 29.7097C11.9795 29.7023 11.8477 29.629 11.8032 29.4181C11.7675 29.2485 11.6829 29.0897 11.6428 28.9209C11.5705 28.6174 11.4584 28.5723 11.24 28.8189C11.116 28.9589 10.9485 29.0605 10.8191 29.1967C10.6826 29.3404 10.5494 29.3538 10.3555 29.2192C10.4954 29.0921 10.6204 28.9582 10.7655 28.8509C11.1951 28.532 11.5831 28.1922 11.6286 27.6092C11.6364 27.5103 11.6744 27.3852 11.8337 27.4289C11.9533 27.4619 11.9798 27.5456 11.9302 27.6462C11.6184 28.2793 11.9305 28.8388 12.1364 29.4113C12.1673 29.4981 12.1877 29.5883 12.2223 29.7097Z" fill="#189DD1"/>
<path fill-rule="evenodd" clip-rule="evenodd" d="M29.654 12.8809C29.6659 12.7511 29.5232 12.5714 29.7549 12.5503C29.9763 12.5301 29.9009 12.7292 29.9179 12.8436C29.9726 13.2136 30.0195 13.585 30.063 13.9568C30.0745 14.0563 30.1173 14.1896 29.9624 14.2195C29.7742 14.2555 29.763 14.0964 29.7722 13.987C29.8055 13.5945 29.6421 13.5201 29.2759 13.5998C28.9091 13.6799 28.5259 13.6846 28.1509 13.728C28.0205 13.7431 27.8632 13.8195 27.8343 13.6113C27.8024 13.3815 28.0113 13.4495 28.118 13.4333C28.5045 13.3744 28.8934 13.3189 29.2834 13.3008C29.5935 13.2863 29.7474 13.1918 29.654 12.8809Z" fill="#1B9DD1"/>
<path fill-rule="evenodd" clip-rule="evenodd" d="M25.2401 4.07662C25.1772 4.17519 25.1555 4.22464 25.1202 4.26165C25.0546 4.33027 24.9891 4.2788 24.95 4.23272C24.5417 3.74627 24.325 4.09311 24.0852 4.41404C23.8926 4.67173 23.6766 4.91259 23.4704 5.16019C23.4028 5.2416 23.3494 5.34521 23.2126 5.24294C23.0577 5.12722 23.1535 5.04581 23.2329 4.95128C23.5009 4.63237 23.7513 4.29731 24.037 3.99555C24.2414 3.77958 24.2598 3.63391 24.0026 3.4536C23.9143 3.39204 23.6518 3.34326 23.8365 3.14377C23.9996 2.96783 24.0937 3.19356 24.1891 3.26319C24.4823 3.47715 24.7554 3.71802 25.039 3.94543C25.1012 3.99555 25.1735 4.03356 25.2401 4.07662Z" fill="#179CD0"/>
<path fill-rule="evenodd" clip-rule="evenodd" d="M5.1188 6.95463C5.07158 7.01585 5.03795 7.07371 4.99108 7.11677C4.90582 7.19448 4.84094 7.1198 4.78116 7.0717C4.44386 6.80122 4.10011 6.53782 3.7764 6.25255C3.56784 6.06853 3.41362 6.00092 3.24854 6.29662C3.19419 6.39384 3.11437 6.59164 2.94928 6.47222C2.74242 6.32286 2.96865 6.21958 3.04338 6.12135C3.27198 5.82161 3.51688 5.53432 3.75364 5.2403C3.82225 5.15519 3.88034 5.05158 4.01009 5.15385C4.14834 5.26318 4.041 5.36275 3.96933 5.41927C3.59195 5.71564 3.78591 5.90168 4.07158 6.10554C4.36845 6.31714 4.64495 6.55565 4.92926 6.78407C4.99142 6.83419 5.04814 6.89071 5.1188 6.95463Z" fill="#169CD0"/>
<path fill-rule="evenodd" clip-rule="evenodd" d="M0.619431 18.5957C0.7784 18.6142 0.763114 18.7891 0.782816 18.8975C0.836484 19.1918 0.967939 19.2258 1.23458 19.1269C1.61264 18.9869 2.00667 18.8877 2.3956 18.777C2.51007 18.7444 2.64934 18.6166 2.73018 18.8272C2.82053 19.0626 2.60824 19.0179 2.50429 19.0522C2.13337 19.1753 1.76346 19.3085 1.38268 19.3933C1.06407 19.4643 0.944501 19.5884 1.09396 19.9013C1.14253 20.0026 1.22949 20.1499 1.06848 20.2121C0.863319 20.2912 0.868074 20.086 0.831729 19.9753C0.705709 19.5945 0.598711 19.2073 0.473031 18.8261C0.430911 18.6983 0.434987 18.6196 0.619431 18.5957Z" fill="#179CD0"/>
<path fill-rule="evenodd" clip-rule="evenodd" d="M25.5546 22.828C25.4139 22.7805 25.4037 22.6924 25.4792 22.5804C25.667 22.3018 25.8592 22.026 26.0417 21.7444C26.1092 21.6401 26.1782 21.6341 26.2733 21.6963C26.7692 22.022 27.2662 22.3466 27.7625 22.6716C27.8623 22.7371 27.9269 22.8115 27.844 22.9353C27.7434 23.0857 27.6585 22.9699 27.5777 22.9188C27.2363 22.7018 26.8773 22.505 26.5641 22.2527C26.2607 22.0082 26.0929 22.0788 25.9401 22.3923C25.882 22.5121 25.7937 22.6171 25.7183 22.7281C25.6792 22.7853 25.6327 22.832 25.5546 22.828Z" fill="#169CD0"/>
<path fill-rule="evenodd" clip-rule="evenodd" d="M28.9491 15.0722C28.6777 15.0722 28.406 15.0732 28.1346 15.0716C28.0262 15.0709 27.9033 15.082 27.9148 14.9155C27.9233 14.7974 28.0001 14.7594 28.1091 14.7587C28.7066 14.756 29.3038 14.752 29.9012 14.7483C30.0113 14.7476 30.0823 14.7806 30.0765 14.9094C30.0707 15.0379 29.9906 15.0608 29.886 15.0608C29.5738 15.0608 29.2613 15.0608 28.9491 15.0608C28.9491 15.0645 28.9491 15.0685 28.9491 15.0722Z" fill="#229DD1"/>
<path fill-rule="evenodd" clip-rule="evenodd" d="M21.2294 1.63342C21.1656 1.77639 21.1 1.92273 21.0348 2.06907C20.85 2.48385 20.6639 2.89831 20.4814 3.3141C20.4302 3.43117 20.3602 3.49139 20.2328 3.42445C20.1166 3.36322 20.1547 3.2771 20.1954 3.18627C20.437 2.65004 20.6744 2.11213 20.9159 1.57623C20.9475 1.5066 20.9801 1.41644 21.0898 1.46488C21.1591 1.49549 21.2444 1.52039 21.2294 1.63342Z" fill="#1D9DD1"/>
<path fill-rule="evenodd" clip-rule="evenodd" d="M4.51221 4.49219C4.57743 4.54837 4.63008 4.5884 4.67695 4.63449C5.08015 5.03212 5.48334 5.43042 5.88416 5.83075C5.95481 5.90106 6.06521 5.96194 5.94055 6.08978C5.82506 6.20786 5.75712 6.13822 5.67628 6.05782C5.26493 5.64909 4.85189 5.2417 4.44088 4.83229C4.38653 4.77847 4.30263 4.7233 4.36241 4.63112C4.39638 4.57898 4.45582 4.54298 4.51221 4.49219Z" fill="#0C9CD0"/>
<path fill-rule="evenodd" clip-rule="evenodd" d="M10.694 2.15943C10.6206 2.37372 10.423 2.41409 10.2755 2.41914C10.0687 2.4262 10.0626 2.19038 10.0476 2.05918C10.0235 1.84624 10.2599 1.8274 10.3927 1.80789C10.6454 1.77122 10.5564 2.05985 10.694 2.15943Z" fill="#259ED1"/>
<path fill-rule="evenodd" clip-rule="evenodd" d="M19.3239 1.77919C19.2356 1.88448 19.3317 2.14453 19.1086 2.12872C18.9822 2.11963 18.6992 2.1822 18.722 1.91745C18.7335 1.78625 18.6751 1.50906 18.955 1.5464C19.0807 1.56322 19.3062 1.52016 19.3239 1.77919Z" fill="#279ED1"/>
<path fill-rule="evenodd" clip-rule="evenodd" d="M20.8988 4.6465C20.8628 4.67779 20.8272 4.70874 20.7911 4.74002C20.4559 4.73262 20.1672 4.63237 19.9756 4.33869C20.0391 4.33432 20.1009 4.32692 20.1359 4.26367C20.4094 4.35383 20.6746 4.46013 20.8988 4.6465Z" fill="#41A3D4"/>
<path fill-rule="evenodd" clip-rule="evenodd" d="M13.2803 29.1726C13.2562 29.2335 13.2317 29.2944 13.174 29.4401C13.1183 29.1898 13.0958 29.0283 13.1994 28.8672C13.2453 28.9641 13.1648 29.0939 13.2803 29.1726Z" fill="#87BCE0"/>
<path fill-rule="evenodd" clip-rule="evenodd" d="M14.6589 29.1823C14.662 29.2614 14.7259 29.3714 14.6022 29.398C14.521 29.4155 14.5258 29.324 14.5268 29.2631C14.571 29.2362 14.6148 29.2093 14.6589 29.1823Z" fill="#97C3E3"/>
<path fill-rule="evenodd" clip-rule="evenodd" d="M19.9753 4.33853C20.247 4.47242 20.5191 4.60631 20.7909 4.73986C22.4899 5.70972 23.9339 6.95408 25.0263 8.58094C25.4312 9.18344 25.7573 9.82766 26.0871 10.4705C26.7882 12.2034 27.1234 13.9977 26.9903 15.8661C26.7729 18.9234 25.5378 21.5184 23.2916 23.6169C20.7708 25.9718 17.7416 27.0204 14.2952 26.839C8.76768 26.548 4.11242 22.3416 3.25983 16.911C2.26798 10.5933 6.55197 4.63759 12.8947 3.52409C15.2779 3.1056 17.5904 3.34579 19.8214 4.2921C19.8703 4.31296 19.924 4.32339 19.9753 4.33853Z" fill="#FEFEFE"/>
<path fill-rule="evenodd" clip-rule="evenodd" d="M16.2412 1.43025C16.3693 1.17727 16.4756 0.96769 16.6013 0.71875C16.7504 0.975091 16.871 1.24657 16.7922 1.45077C16.7314 1.60922 16.4634 1.44606 16.2412 1.43025Z" fill="#E7EFF7"/>
<path fill-rule="evenodd" clip-rule="evenodd" d="M13.9164 0.623047C14.056 0.933549 14.1572 1.15961 14.2632 1.39476C13.6599 1.48458 13.6599 1.48458 13.9164 0.623047Z" fill="#F0F4FA"/>
<path fill-rule="evenodd" clip-rule="evenodd" d="M27.6179 7.53647C27.5829 7.70938 27.4735 7.82342 27.2626 7.81434C27.1083 7.80795 26.5917 7.24447 26.6365 7.0904C26.6994 6.87409 26.9338 6.80983 27.1189 6.72607C27.2001 6.68906 27.6226 7.36659 27.6179 7.53647Z" fill="#F8FAFC"/>
<path fill-rule="evenodd" clip-rule="evenodd" d="M1.15394 17.4475C1.16277 17.7856 0.828194 17.6881 0.683832 17.6659C0.28675 17.605 0.464061 17.2376 0.415827 17.0005C0.371669 16.7818 0.449795 16.5847 0.729348 16.5941C1.02385 16.6042 1.06665 16.8188 1.15394 17.4475Z" fill="#F8FAFC"/>
<path fill-rule="evenodd" clip-rule="evenodd" d="M18.5671 29.2583C18.2043 29.2203 18.0559 28.9441 17.9757 28.6178C17.8928 28.2803 17.8643 27.949 18.2437 27.7455C18.7488 27.474 18.8942 27.5342 19.0369 28.0762C19.0776 28.2309 19.1201 28.385 19.1588 28.5401C19.2981 29.0992 19.1778 29.2519 18.5671 29.2583Z" fill="#FCFDFE"/>
<path fill-rule="evenodd" clip-rule="evenodd" d="M7.87069 26.0605C8.2338 26.0612 8.56464 26.3959 8.566 26.7646C8.5677 27.201 8.1251 27.7136 7.73685 27.7251C7.35404 27.7362 7.00859 27.3877 7.0198 27.0018C7.0327 26.5544 7.47972 26.0599 7.87069 26.0605Z" fill="#FCFDFE"/>
<path fill-rule="evenodd" clip-rule="evenodd" d="M28.889 15.8792C29.4338 15.8913 29.7732 16.1803 29.7627 16.6233C29.7528 17.027 29.4169 17.321 28.9709 17.3163C28.4654 17.3113 28.0551 16.9762 28.0646 16.5762C28.0745 16.153 28.4107 15.8684 28.889 15.8792Z" fill="#FDFDFE"/>
<path fill-rule="evenodd" clip-rule="evenodd" d="M1.12382 15.3833C0.598342 15.3779 0.262403 15.1044 0.255949 14.6768C0.249495 14.2422 0.592568 13.9475 1.09801 13.9532C1.60141 13.9589 1.9601 14.263 1.95365 14.6788C1.9472 15.0896 1.59529 15.388 1.12382 15.3833Z" fill="#FCFDFE"/>
<path fill-rule="evenodd" clip-rule="evenodd" d="M29.2229 11.4803C29.1166 11.6802 28.9311 11.7225 28.8085 11.8389C28.5575 12.0764 28.4417 11.9913 28.3812 11.6808C28.3377 11.4591 28.3897 11.3915 28.6173 11.4302C28.8085 11.4628 29.0055 11.4635 29.2229 11.4803Z" fill="#F4F7FB"/>
<path fill-rule="evenodd" clip-rule="evenodd" d="M28.3158 21.2971C28.0485 21.285 27.8746 21.2698 27.701 21.2708C27.3922 21.2725 27.3902 21.1527 27.5026 20.9058C27.63 20.6263 27.7329 20.6454 27.9014 20.8584C28.0064 20.9909 28.1337 21.106 28.3158 21.2971Z" fill="#F3F6FA"/>
<path fill-rule="evenodd" clip-rule="evenodd" d="M3.47499 22.5586C3.6343 22.7214 3.87276 22.929 3.79327 23.0467C3.63736 23.2778 3.28172 23.1799 2.98145 23.2573C3.14075 23.0316 3.30006 22.8062 3.47499 22.5586Z" fill="#F0F5FA"/>
<path fill-rule="evenodd" clip-rule="evenodd" d="M24.9325 25.8324C24.6907 25.7164 24.5283 25.6269 24.3571 25.5586C24.0891 25.4516 24.1254 25.3521 24.3119 25.1738C24.5266 24.9689 24.6268 24.9961 24.71 25.2663C24.7603 25.4301 24.8347 25.5865 24.9325 25.8324Z" fill="#F1F5FA"/>
<path fill-rule="evenodd" clip-rule="evenodd" d="M2.03287 10.549C1.79306 10.3411 1.58348 10.1595 1.33008 9.93945H2.24788C2.23871 10.1467 2.14326 10.3186 2.03287 10.549Z" fill="#EAF1F8"/>
<path fill-rule="evenodd" clip-rule="evenodd" d="M20.8627 28.2351C20.8216 28.2004 20.7781 28.1678 20.7397 28.1305C20.2734 27.676 20.2734 27.676 20.9143 27.4688C20.9931 27.6312 20.9547 27.8048 20.9622 27.9734C20.9812 28.08 21.0655 28.2112 20.8627 28.2351Z" fill="#F5F8FB"/>
<path fill-rule="evenodd" clip-rule="evenodd" d="M20.8623 28.2344C20.9703 28.1752 20.9384 28.0635 20.9615 27.9727C21.0406 28.0827 21.0678 28.2129 20.9972 28.3202C20.9635 28.371 20.8936 28.2896 20.8623 28.2344Z" fill="#BCD6EC"/>
<path fill-rule="evenodd" clip-rule="evenodd" d="M3.59668 15.1138C3.59668 8.82097 8.7173 3.79944 15.1324 3.80078C21.3526 3.80213 26.497 8.93063 26.4599 15.1582C26.4226 21.4113 21.3923 26.4147 15.0057 26.4335C8.70779 26.452 3.59668 21.3531 3.59668 15.1138Z" fill="#009BD0"/>
<path fill-rule="evenodd" clip-rule="evenodd" d="M23.4047 17.3731C22.8694 17.355 22.6414 17.5975 22.6258 18.1152C22.4899 17.6322 22.2033 17.4505 21.7002 17.6073C22.1071 17.0788 22.1071 17.0788 21.8571 16.4534C22.3096 16.8638 22.6608 16.8416 22.9777 16.3848C22.8167 16.8551 22.8524 17.2022 23.4047 17.3731Z" fill="#F7F9FC"/>
<path fill-rule="evenodd" clip-rule="evenodd" d="M14.2217 15.0942C14.6908 14.883 14.8433 14.5917 14.6086 14.1133C14.9615 14.3935 15.2889 14.6428 15.6989 14.1436C15.4021 14.627 15.5243 14.9462 16.0067 15.1884C15.3029 15.2507 15.3029 15.2507 15.0162 15.8152C14.9921 15.2776 14.7665 15.0249 14.2217 15.0942Z" fill="#F8FAFC"/>
<path fill-rule="evenodd" clip-rule="evenodd" d="M7.50252 12.4047C6.87378 12.3442 6.87378 12.3442 6.53104 12.7899C6.37785 12.6241 6.54191 12.3624 6.39313 12.2453C6.25489 12.1363 6.05006 12.1104 5.85645 12.0414C5.96752 11.8645 6.25794 11.9159 6.33097 11.7481C6.40332 11.5812 6.37343 11.371 6.39857 11.043C6.65163 11.5977 6.9784 11.6498 7.42779 11.3592C7.08404 11.7602 7.07283 12.0983 7.50252 12.4047Z" fill="#F7F9FC"/>
<path fill-rule="evenodd" clip-rule="evenodd" d="M10.6574 11.1979C10.1506 10.9265 10.1506 10.9265 9.64819 11.2158C9.68147 10.616 9.68147 10.616 9.17773 10.2224C9.76639 10.3381 10.0164 10.1066 10.0663 9.59766C10.1764 10.0965 10.4536 10.3004 10.9933 10.1282C10.5218 10.661 10.5218 10.661 10.6574 11.1979Z" fill="#F7F9FC"/>
<path fill-rule="evenodd" clip-rule="evenodd" d="M14.5653 19.1953C14.0429 19.2629 13.9114 19.563 14.0025 20.0578C13.7443 19.641 13.4356 19.4977 12.9665 19.7736C13.3615 19.3645 13.244 19.0429 12.8887 18.7038C13.3802 18.9706 13.6859 18.7973 13.8941 18.3008C13.9933 18.9759 13.9933 18.9759 14.5653 19.1953Z" fill="#F8FAFC"/>
<path fill-rule="evenodd" clip-rule="evenodd" d="M11.7363 12.7365C12.1874 12.3974 12.2445 12.0866 11.9187 11.6718C12.3318 11.9211 12.7092 12.0058 13.0322 11.5137C12.8321 12.0018 12.9463 12.313 13.4728 12.4906C12.9938 12.5175 12.6348 12.6215 12.7163 13.2176C12.4802 12.8505 12.3372 12.3897 11.7363 12.7365Z" fill="#F8FAFC"/>
<path fill-rule="evenodd" clip-rule="evenodd" d="M19.7408 21.5215C19.7935 22.0126 20.1026 22.0745 20.5214 22.0607C20.1111 22.273 19.9874 22.5583 20.1936 22.9771C19.8974 22.6996 19.6118 22.6017 19.2649 22.9102C19.43 22.5115 19.3193 22.2434 18.9453 22.051C19.3346 22.0533 19.6685 22.014 19.7408 21.5215Z" fill="#F7F9FC"/>
</g>
<defs>
<clipPath id="clip0_34_2046">
<rect width="31" height="30" fill="white"/>
</clipPath>
</defs>
</svg>
