<svg width="104" height="60" viewBox="0 0 104 60" fill="none" xmlns="http://www.w3.org/2000/svg">
<g clip-path="url(#clip0_10_980)">
<path d="M60 30C60 24.0666 58.2405 18.2664 54.9441 13.3329C51.6477 8.39943 46.9623 4.55426 41.4805 2.28363C35.9987 0.0130004 29.9667 -0.581102 24.1473 0.576454C18.3279 1.73401 12.9824 4.59123 8.78681 8.78681C4.59123 12.9824 1.73401 18.3279 0.576455 24.1473C-0.581101 29.9667 0.0129977 35.9987 2.28363 41.4805C4.55426 46.9623 8.39943 51.6476 13.3329 54.9441C18.2664 58.2405 24.0666 60 30 60C37.9565 60 45.5871 56.8393 51.2132 51.2132C56.8393 45.5871 60 37.9565 60 30Z" fill="#1FABE3"/>
<path d="M42 42.3367C41.9952 47.0519 43.8136 51.5876 47.077 55C51.9689 51.625 55.7434 46.8752 57.9203 41.355C60.0972 35.8347 60.5781 29.7935 59.3017 24C54.6179 24.2835 50.2193 26.339 47.0038 29.7468C43.7884 33.1546 41.9986 37.6577 42 42.3367Z" fill="#78B82E"/>
<path d="M18.536 47.4678C18.4115 46.5641 17.9819 45.7327 17.3208 45.1166C16.6827 44.544 15.8625 44.2261 15.012 44.2218C14.1618 44.2251 13.3423 44.5451 12.7078 45.1213C12.0448 45.7346 11.6132 46.5647 11.488 47.4678C11.4213 46.9778 11.4627 46.4788 11.609 46.0071C11.7553 45.5353 12.0029 45.1027 12.3339 44.7406C12.6734 44.361 13.0869 44.0577 13.5481 43.8502C14.0092 43.6427 14.5078 43.5355 15.012 43.5355C15.5161 43.5355 16.0147 43.6427 16.4759 43.8502C16.937 44.0577 17.3506 44.361 17.69 44.7406C18.0196 45.1036 18.2664 45.5364 18.4126 46.0078C18.5589 46.4793 18.601 46.9779 18.536 47.4678Z" fill="white"/>
<path d="M43.0304 45.9299C42.9644 45.4406 43.0061 44.9425 43.1524 44.4716C43.2987 44.0008 43.546 43.5689 43.8763 43.2074C44.2154 42.8271 44.6288 42.5233 45.09 42.3153C45.5512 42.1074 46.05 42 46.5544 42C47.0588 42 47.5576 42.1074 48.0188 42.3153C48.48 42.5233 48.8934 42.8271 49.2324 43.2074C49.5634 43.5695 49.8111 44.0021 49.9574 44.4739C50.1037 44.9456 50.1451 45.4446 50.0784 45.9346C49.9539 45.0312 49.5223 44.2008 48.8585 43.5881C48.2246 43.0114 47.4044 42.6927 46.5544 42.6927C45.7044 42.6927 44.8841 43.0114 44.2502 43.5881C43.5881 44.2021 43.1568 45.0318 43.0304 45.9346" fill="white"/>
<path d="M36.1185 4.70254H39.1564C39.2122 4.70254 39.2657 4.67997 39.3052 4.63981C39.3446 4.59964 39.3668 4.54516 39.3668 4.48835C39.3668 4.43155 39.3446 4.37707 39.3052 4.3369C39.2657 4.29674 39.2122 4.27417 39.1564 4.27417H36.1185C36.0627 4.27417 36.0092 4.29674 35.9698 4.3369C35.9304 4.37707 35.9082 4.43155 35.9082 4.48835C35.9082 4.54516 35.9304 4.59964 35.9698 4.63981C36.0092 4.67997 36.0627 4.70254 36.1185 4.70254Z" fill="white"/>
<path d="M37.6331 6.98245H45.6065C45.6575 6.97473 45.704 6.94862 45.7377 6.90887C45.7713 6.86912 45.7899 6.81837 45.7899 6.76588C45.7899 6.71339 45.7713 6.66265 45.7377 6.6229C45.704 6.58315 45.6575 6.55703 45.6065 6.54932H37.6331C37.5821 6.55703 37.5355 6.58315 37.5019 6.6229C37.4682 6.66265 37.4497 6.71339 37.4497 6.76588C37.4497 6.81837 37.4682 6.86912 37.5019 6.90887C37.5355 6.94862 37.5821 6.97473 37.6331 6.98245Z" fill="white"/>
<path d="M36.1702 8.83389H41.0683C41.1193 8.82617 41.1658 8.80006 41.1995 8.76031C41.2331 8.72056 41.2517 8.66981 41.2517 8.61732C41.2517 8.56483 41.2331 8.51409 41.1995 8.47434C41.1658 8.43459 41.1193 8.40847 41.0683 8.40076H36.1702C36.1192 8.40847 36.0727 8.43459 36.039 8.47434C36.0053 8.51409 35.9868 8.56483 35.9868 8.61732C35.9868 8.66981 36.0053 8.72056 36.039 8.76031C36.0727 8.80006 36.1192 8.82617 36.1702 8.83389Z" fill="white"/>
<path d="M44.2743 31.1519H55.1267C55.1825 31.1519 55.236 31.1293 55.2754 31.0891C55.3149 31.049 55.337 30.9945 55.337 30.9377C55.337 30.8809 55.3149 30.8264 55.2754 30.7862C55.236 30.7461 55.1825 30.7235 55.1267 30.7235H44.2743C44.2185 30.7235 44.165 30.7461 44.1256 30.7862C44.0861 30.8264 44.064 30.8809 44.064 30.9377C44.064 30.9945 44.0861 31.049 44.1256 31.0891C44.165 31.1293 44.2185 31.1519 44.2743 31.1519Z" fill="white"/>
<path d="M41.9559 33.684H48.6534C48.7092 33.684 48.7627 33.6614 48.8021 33.6212C48.8415 33.5811 48.8637 33.5266 48.8637 33.4698C48.8637 33.413 48.8415 33.3585 48.8021 33.3183C48.7627 33.2782 48.7092 33.2556 48.6534 33.2556H41.9559C41.9001 33.2556 41.8467 33.2782 41.8072 33.3183C41.7678 33.3585 41.7456 33.413 41.7456 33.4698C41.7456 33.5266 41.7678 33.5811 41.8072 33.6212C41.8467 33.6614 41.9001 33.684 41.9559 33.684Z" fill="white"/>
<path d="M32.8844 50.4522C32.8286 50.4522 32.7751 50.4297 32.7357 50.3895C32.6962 50.3493 32.6741 50.2949 32.6741 50.2381C32.6741 50.1813 32.6962 50.1268 32.7357 50.0866C32.7751 50.0464 32.8286 50.0239 32.8844 50.0239H35.5438C35.582 49.7986 35.6085 49.5714 35.6232 49.3432H33.3892C33.3334 49.3432 33.2799 49.3207 33.2404 49.2805C33.201 49.2403 33.1788 49.1859 33.1788 49.1291C33.1788 49.0723 33.201 49.0178 33.2404 48.9776C33.2799 48.9374 33.3334 48.9149 33.3892 48.9149H35.6326C35.6326 48.8006 35.6092 48.4675 35.5765 48.2295H33.707C33.6512 48.2295 33.5977 48.2069 33.5583 48.1668C33.5188 48.1266 33.4967 48.0721 33.4967 48.0153C33.4967 47.9585 33.5188 47.904 33.5583 47.8639C33.5977 47.8237 33.6512 47.8011 33.707 47.8011H35.497C35.4549 47.5822 35.4129 47.3585 35.3615 47.13H33.7303C33.6794 47.1223 33.6328 47.0962 33.5991 47.0564C33.5655 47.0167 33.547 46.9659 33.547 46.9134C33.547 46.861 33.5655 46.8102 33.5991 46.7705C33.6328 46.7307 33.6794 46.7046 33.7303 46.6969H35.2633C35.2166 46.4732 35.1605 46.2209 35.1044 46.021H33.5574C33.5064 46.0133 33.4599 45.9872 33.4262 45.9474C33.3925 45.9077 33.374 45.8569 33.374 45.8045C33.374 45.752 33.3925 45.7012 33.4262 45.6615C33.4599 45.6217 33.5064 45.5956 33.5574 45.5879H34.9923C34.9362 45.3594 34.8754 45.1357 34.8193 44.912H33.3892C33.3334 44.912 33.2799 44.8895 33.2404 44.8493C33.201 44.8091 33.1788 44.7546 33.1788 44.6978C33.1788 44.641 33.201 44.5866 33.2404 44.5464C33.2799 44.5062 33.3334 44.4837 33.3892 44.4837H34.7025C34.6698 44.3551 34.637 44.2266 34.5997 44.1029C34.5623 43.9791 34.5482 43.903 34.5249 43.803H33.2209C33.1651 43.803 33.1116 43.7805 33.0722 43.7403C33.0327 43.7001 33.0106 43.6456 33.0106 43.5888C33.0106 43.532 33.0327 43.4776 33.0722 43.4374C33.1116 43.3972 33.1651 43.3747 33.2209 43.3747H34.4267C34.3706 43.1414 34.3146 42.8987 34.2678 42.694H33.0667C33.0109 42.694 32.9574 42.6715 32.918 42.6313C32.8785 42.5911 32.8564 42.5366 32.8564 42.4798C32.8564 42.423 32.8785 42.3686 32.918 42.3284C32.9574 42.2882 33.0109 42.2657 33.0667 42.2657H34.1697C34.1229 42.0277 34.0762 41.7897 34.0388 41.585H32.8844C32.8286 41.585 32.7751 41.5625 32.7357 41.5223C32.6962 41.4821 32.6741 41.4277 32.6741 41.3709C32.6741 41.314 32.6962 41.2596 32.7357 41.2194C32.7751 41.1792 32.8286 41.1567 32.8844 41.1567H33.9594C33.9173 40.9187 33.8846 40.6807 33.8565 40.4808H32.7302C32.6792 40.4731 32.6326 40.447 32.599 40.4072C32.5653 40.3675 32.5468 40.3167 32.5468 40.2642C32.5468 40.2117 32.5653 40.161 32.599 40.1213C32.6326 40.0815 32.6792 40.0554 32.7302 40.0477H33.8051C33.6041 38.2105 33.8565 37.5869 33.8565 37.5869C33.8565 37.5869 31.8655 38.3199 31.1317 39.9287C30.2578 41.8325 31.0897 47.4537 27.6498 46.7397C24.7614 46.14 26.4533 40.7188 25.5466 37.5774C24.6399 34.4361 21.3122 33.4698 21.3122 33.4698C21.6151 34.7227 21.5974 36.0337 21.2608 37.2776H23.5696C23.6254 37.2776 23.6789 37.3001 23.7184 37.3403C23.7578 37.3805 23.78 37.4349 23.78 37.4917C23.78 37.5486 23.7578 37.603 23.7184 37.6432C23.6789 37.6834 23.6254 37.7059 23.5696 37.7059H21.144C21.0832 37.9201 21.0178 38.1486 20.943 38.3866H23.2098C23.2655 38.3866 23.319 38.4091 23.3585 38.4493C23.3979 38.4895 23.4201 38.5439 23.4201 38.6007C23.4201 38.6575 23.3979 38.712 23.3585 38.7522C23.319 38.7924 23.2655 38.8149 23.2098 38.8149H20.7888C20.7233 39.0291 20.6579 39.2528 20.5878 39.4956H22.8686C22.9244 39.4956 22.9779 39.5181 23.0173 39.5583C23.0567 39.5985 23.0789 39.6529 23.0789 39.7097C23.0789 39.7665 23.0567 39.821 23.0173 39.8612C22.9779 39.9013 22.9244 39.9239 22.8686 39.9239H20.4569C20.3962 40.1381 20.3354 40.3618 20.27 40.6046H22.7003C22.7561 40.6046 22.8096 40.6271 22.849 40.6673C22.8885 40.7074 22.9106 40.7619 22.9106 40.8187C22.9106 40.8755 22.8885 40.93 22.849 40.9702C22.8096 41.0104 22.7561 41.0329 22.7003 41.0329H20.1531C20.0924 41.2471 20.0363 41.4756 19.9755 41.7088H22.5321C22.5831 41.7165 22.6296 41.7426 22.6633 41.7824C22.6969 41.8221 22.7154 41.8729 22.7154 41.9254C22.7154 41.9778 22.6969 42.0286 22.6633 42.0683C22.6296 42.1081 22.5831 42.1342 22.5321 42.1419H19.8727C19.8213 42.3656 19.7746 42.6179 19.7325 42.8178H22.3638C22.4148 42.8255 22.4614 42.8516 22.495 42.8914C22.5287 42.9311 22.5472 42.9819 22.5472 43.0343C22.5472 43.0868 22.5287 43.1376 22.495 43.1773C22.4614 43.2171 22.4148 43.2432 22.3638 43.2509H19.6671C19.6343 43.4746 19.6063 43.6983 19.5829 43.9268H22.3638C22.4148 43.9345 22.4614 43.9606 22.495 44.0004C22.5287 44.0401 22.5472 44.0909 22.5472 44.1433C22.5472 44.1958 22.5287 44.2466 22.495 44.2863C22.4614 44.3261 22.4148 44.3522 22.3638 44.3599H19.5596C19.5596 44.5836 19.5596 44.8121 19.5315 45.0358H22.5414C22.5972 45.0358 22.6507 45.0583 22.6901 45.0985C22.7296 45.1387 22.7517 45.1931 22.7517 45.25C22.7517 45.3068 22.7296 45.3612 22.6901 45.4014C22.6507 45.4416 22.5972 45.4641 22.5414 45.4641H19.5269V46.1448H22.6956C22.7514 46.1448 22.8049 46.1673 22.8444 46.2075C22.8838 46.2477 22.906 46.3022 22.906 46.359C22.906 46.4158 22.8838 46.4702 22.8444 46.5104C22.8049 46.5506 22.7514 46.5731 22.6956 46.5731H19.5642C19.5642 46.8064 19.597 47.0491 19.6203 47.2538H23.0509C23.1066 47.2538 23.1601 47.2763 23.1996 47.3165C23.239 47.3567 23.2612 47.4111 23.2612 47.4679C23.2612 47.5248 23.239 47.5792 23.1996 47.6194C23.1601 47.6596 23.1066 47.6821 23.0509 47.6821H19.6671C19.7132 49.2549 20.0927 50.799 20.7794 52.2085C21.5295 53.3894 22.5644 54.3547 23.7852 55.0122C25.006 55.6697 26.372 55.9973 27.7526 55.9639C31.5243 55.9639 34.6744 53.5841 35.4503 50.4522H32.8844Z" fill="white"/>
<path d="M39.3293 45.8306C39.2783 45.8229 39.2317 45.7968 39.1981 45.757C39.1644 45.7173 39.1459 45.6665 39.1459 45.614C39.1459 45.5616 39.1644 45.5108 39.1981 45.4711C39.2317 45.4313 39.2783 45.4052 39.3293 45.3975H41.1988C41.1988 45.1833 41.2221 44.9548 41.2221 44.7216H39.6845C39.6287 44.7216 39.5752 44.699 39.5358 44.6589C39.4963 44.6187 39.4742 44.5642 39.4742 44.5074C39.4742 44.4506 39.4963 44.3961 39.5358 44.356C39.5752 44.3158 39.6287 44.2932 39.6845 44.2932H41.2128C41.2128 44.0743 41.2128 43.8458 41.1661 43.6126H39.8527C39.797 43.6126 39.7435 43.59 39.704 43.5499C39.6646 43.5097 39.6424 43.4552 39.6424 43.3984C39.6424 43.3416 39.6646 43.2871 39.704 43.247C39.7435 43.2068 39.797 43.1842 39.8527 43.1842H41.1193C41.0913 42.9653 41.0539 42.7368 41.0118 42.5036H39.6845C39.6287 42.5036 39.5752 42.4811 39.5358 42.4409C39.4963 42.4007 39.4742 42.3462 39.4742 42.2894C39.4742 42.2326 39.4963 42.1782 39.5358 42.138C39.5752 42.0978 39.6287 42.0753 39.6845 42.0753H40.9277C40.8763 41.8325 40.8155 41.5993 40.7501 41.3946H39.5162C39.4605 41.3946 39.407 41.3721 39.3675 41.3319C39.3281 41.2917 39.3059 41.2372 39.3059 41.1804C39.3059 41.1236 39.3281 41.0692 39.3675 41.029C39.407 40.9888 39.4605 40.9663 39.5162 40.9663H40.6146C40.5304 40.7283 40.4416 40.4903 40.3575 40.2856H39.1797C39.1287 40.2779 39.0822 40.2518 39.0485 40.212C39.0149 40.1723 38.9963 40.1216 38.9963 40.0691C38.9963 40.0166 39.0149 39.9658 39.0485 39.9261C39.0822 39.8863 39.1287 39.8602 39.1797 39.8525H40.1939C40.1051 39.6288 40.021 39.4051 39.9462 39.1766H39.0115C38.9557 39.1766 38.9022 39.1541 38.8628 39.1139C38.8233 39.0737 38.8012 39.0193 38.8012 38.9624C38.8012 38.9056 38.8233 38.8512 38.8628 38.811C38.9022 38.7708 38.9557 38.7483 39.0115 38.7483H39.82C39.7604 38.5224 39.7121 38.2937 39.6751 38.0629H38.8198C38.7641 38.0629 38.7106 38.0403 38.6711 38.0001C38.6317 37.96 38.6095 37.9055 38.6095 37.8487C38.6095 37.7919 38.6317 37.7374 38.6711 37.6972C38.7106 37.6571 38.7641 37.6345 38.8198 37.6345H39.5957C39.5395 36.9165 39.5677 36.1943 39.6798 35.4832C39.6798 35.4832 35.7586 36.3304 34.749 42.713C34.8378 43.1033 34.9453 43.5174 35.0622 43.9648V44.0077C35.3893 45.2166 35.7913 46.7159 35.9969 47.9391C36.0538 48.2727 36.0881 48.6098 36.0997 48.9482V48.9958C36.0801 50.318 35.6839 51.6061 34.9593 52.7035C37.385 51.9943 39.3106 50.3903 39.9602 49.2623C40.2288 48.8846 40.4458 48.4715 40.6052 48.0343H38.4693C38.4135 48.0343 38.36 48.0118 38.3206 47.9716C38.2812 47.9314 38.259 47.8769 38.259 47.8201C38.259 47.7633 38.2812 47.7089 38.3206 47.6687C38.36 47.6285 38.4135 47.606 38.4693 47.606H40.7548C40.8202 47.4013 40.8856 47.1728 40.9417 46.9253H38.9741C38.9183 46.9253 38.8648 46.9028 38.8254 46.8626C38.7859 46.8224 38.7638 46.7679 38.7638 46.7111C38.7638 46.6543 38.7859 46.5999 38.8254 46.5597C38.8648 46.5195 38.9183 46.497 38.9741 46.497H41.0305C41.0744 46.2735 41.1072 46.0479 41.1287 45.8211L39.3293 45.8306Z" fill="white"/>
<path d="M53.5699 47.215C53.1882 46.5451 52.6006 46.0219 51.8978 45.726C51.195 45.4301 50.4161 45.378 49.6814 45.5777C48.9677 45.7625 48.3446 46.2059 47.9287 46.8247C48.4861 46.4357 49.1274 46.1892 49.7982 46.106C50.4327 46.0275 51.0763 46.116 51.6677 46.363C52.2527 46.6117 52.7647 47.0101 53.154 47.5196C53.4106 47.8462 53.6141 48.2126 53.7569 48.6048L53.9812 48.3145C53.9179 47.9279 53.7882 47.5557 53.598 47.215" fill="white"/>
<path d="M11.9039 47.1109C11.17 46.9112 10.392 46.9617 9.68896 47.2548C8.9859 47.5479 8.39644 48.0674 8.01069 48.7339C7.77699 49.1482 7.63502 49.6096 7.59473 50.0856L7.79103 50.2998C7.93639 49.8409 8.16115 49.4121 8.4547 49.0338C8.84339 48.5211 9.35613 48.12 9.94271 47.8697C10.5293 47.6194 11.1696 47.5285 11.8011 47.6059C12.471 47.6928 13.1114 47.939 13.6706 48.3246C13.2522 47.7082 12.6302 47.2656 11.9179 47.0775" fill="white"/>
<path d="M70.3259 6.73486H67.1665V22.9462H70.3259V6.73486Z" fill="#6A6B6F"/>
<path d="M78.4442 6.73486H81.4681L87.4131 22.9462H84.1134L83.0338 19.7001H76.9205L75.8456 22.9462H72.5459L78.4442 6.73486ZM82.099 16.9633L79.9725 10.5949H79.9257L77.8179 16.9633H82.099Z" fill="#6A6B6F"/>
<path d="M92.0635 22.1466C90.8364 21.5113 89.8131 20.532 89.1144 19.3241C88.3529 17.9755 87.9727 16.4385 88.016 14.8834C87.9957 13.4098 88.3261 11.9531 88.9788 10.6378C89.6166 9.38729 90.5888 8.34608 91.7831 7.63445C93.1109 6.8692 94.6185 6.48742 96.1436 6.53022C97.3258 6.53297 98.4932 6.7977 99.5648 7.30604C100.701 7.8451 101.702 8.64112 102.491 9.6335L100.182 11.6421C99.6733 11.0358 99.0563 10.5335 98.3637 10.1618C97.6829 9.78368 96.9191 9.58719 96.1436 9.59066C95.2804 9.57692 94.4295 9.80055 93.6806 10.238C92.9436 10.6759 92.3439 11.318 91.9513 12.0895C91.5198 12.954 91.3046 13.9138 91.325 14.8834C91.3025 15.8108 91.5048 16.7295 91.9139 17.5583C92.3015 18.3229 92.8906 18.9624 93.6152 19.405C94.3358 19.8203 95.1463 20.0473 95.9741 20.0655C96.802 20.0838 97.6214 19.8929 98.359 19.5098C99.0517 19.1423 99.6626 18.6336 100.154 18.0152L102.463 20.0428C101.725 20.9754 100.799 21.7351 99.7471 22.2703C98.6191 22.8388 97.374 23.1244 96.1156 23.1033C94.7051 23.1204 93.311 22.7941 92.0495 22.1513" fill="#6A6B6F"/>
<path d="M66.7222 44.693H69.8115C70.601 44.6468 71.3855 44.8478 72.0596 45.2689C72.3296 45.4708 72.545 45.7391 72.6855 46.0487C72.8261 46.3584 72.8873 46.6992 72.8635 47.0395C72.8676 47.5133 72.7361 47.9781 72.4849 48.377C72.2208 48.7843 71.8286 49.0881 71.3725 49.2385V49.267C71.9145 49.3754 72.4069 49.6612 72.7747 50.0809C73.1684 50.5973 73.3605 51.2439 73.3139 51.8961C73.2673 52.5482 72.9853 53.1596 72.5223 53.6126C71.8468 54.1345 71.0078 54.3883 70.162 54.3265H66.7222V44.693ZM69.7975 48.8291C70.2678 48.8438 70.7312 48.7109 71.1248 48.4484C71.3092 48.3182 71.4571 48.1413 71.5538 47.9351C71.6505 47.7289 71.6927 47.5006 71.6763 47.2727C71.6763 46.2732 70.9753 45.7782 69.5731 45.7782H67.8813V48.8291H69.7975ZM69.8536 53.2413C70.4315 53.2717 71.0055 53.1276 71.5034 52.8272C71.7016 52.6981 71.8627 52.5177 71.9703 52.3045C72.0778 52.0913 72.128 51.8529 72.1157 51.6135C72.1263 51.3708 72.0802 51.1291 71.981 50.9081C71.8819 50.6871 71.7326 50.4933 71.5455 50.3427C71.0624 50.0123 70.4858 49.8534 69.905 49.8905H67.8813V53.2223L69.8536 53.2413Z" fill="#6A6B6F"/>
<path d="M78.9113 44.693H80.0704L83.6832 54.3265H82.4586L81.6174 51.98H77.411L76.5744 54.3265H75.3452L78.9113 44.693ZM81.2481 50.9471L79.5189 46.1304H79.4908L77.7709 50.9471H81.2481Z" fill="#6A6B6F"/>
<path d="M86.2539 44.693H87.413V49.9857H87.4364L91.7409 44.693H93.2225L89.5582 49.0766L93.3299 54.3265H91.8764L88.7964 50.0381H88.759L87.413 51.6659V54.3265H86.2539V44.693Z" fill="#6A6B6F"/>
<path d="M97.522 53.9315C96.9682 53.6141 96.5205 53.135 96.2368 52.5559C95.9121 51.888 95.7517 51.1497 95.7694 50.4046V44.693H96.9285V50.3236C96.8908 51.1015 97.1334 51.8666 97.6108 52.475C97.8331 52.7395 98.1113 52.9493 98.4245 53.0887C98.7378 53.228 99.078 53.2932 99.4196 53.2794C99.7625 53.2924 100.104 53.2283 100.42 53.0918C100.736 52.9552 101.018 52.7495 101.247 52.4893C101.735 51.8807 101.982 51.1082 101.939 50.3236V44.693H103.131V50.4046C103.141 51.1443 102.981 51.8763 102.663 52.5416C102.383 53.124 101.937 53.6068 101.383 53.9267C100.784 54.2579 100.11 54.4221 99.4289 54.4027C98.7648 54.4171 98.1086 54.253 97.5267 53.9267" fill="#6A6B6F"/>
<path d="M3.61272 15.5974C1.2483 20.0092 0.00927734 24.9549 0.00927734 29.981C0.00927734 35.0072 1.2483 39.9529 3.61272 44.3647C6.59899 43.3815 9.20241 41.4597 11.049 38.8754C12.8956 36.291 13.8904 33.1772 13.8904 29.981C13.8904 26.7849 12.8956 23.671 11.049 21.0867C9.20241 18.5024 6.59899 16.5806 3.61272 15.5974Z" fill="#EB5C64"/>
<path d="M14.5262 15.8925H6.01061C5.95483 15.8925 5.90134 15.915 5.8619 15.9552C5.82245 15.9954 5.80029 16.0498 5.80029 16.1066C5.80029 16.1635 5.82245 16.2179 5.8619 16.2581C5.90134 16.2983 5.95483 16.3208 6.01061 16.3208H14.5262C14.5819 16.3208 14.6354 16.2983 14.6749 16.2581C14.7143 16.2179 14.7365 16.1635 14.7365 16.1066C14.7365 16.0498 14.7143 15.9954 14.6749 15.9552C14.6354 15.915 14.5819 15.8925 14.5262 15.8925Z" fill="white"/>
<path d="M14.6711 20.3903H10.2684C10.2126 20.3903 10.1591 20.4128 10.1197 20.453C10.0803 20.4931 10.0581 20.5476 10.0581 20.6044C10.0581 20.6612 10.0803 20.7157 10.1197 20.7559C10.1591 20.7961 10.2126 20.8186 10.2684 20.8186H14.6711C14.7269 20.8186 14.7804 20.7961 14.8198 20.7559C14.8592 20.7157 14.8814 20.6612 14.8814 20.6044C14.8814 20.5476 14.8592 20.4931 14.8198 20.453C14.7804 20.4128 14.7269 20.3903 14.6711 20.3903Z" fill="white"/>
<path d="M10.6139 18.3436H2.30867C2.24791 18.4864 2.19183 18.6292 2.13574 18.772H10.6139C10.6697 18.772 10.7232 18.7494 10.7626 18.7093C10.8021 18.6691 10.8242 18.6146 10.8242 18.5578C10.8242 18.501 10.8021 18.4465 10.7626 18.4064C10.7232 18.3662 10.6697 18.3436 10.6139 18.3436Z" fill="white"/>
<path d="M27.0655 28.396C28.0671 27.935 29.1537 27.6966 30.253 27.6966C31.3522 27.6966 32.4388 27.935 33.4404 28.396C37.1794 25.0928 32.8282 15.0453 31.183 10.952C31.1127 10.803 31.0033 10.6767 30.8671 10.5868C30.7308 10.497 30.5729 10.4471 30.4107 10.4427C30.2484 10.4383 30.0881 10.4795 29.9473 10.5618C29.8065 10.644 29.6907 10.7642 29.6126 10.9091C24.3407 21.9039 25.0511 26.5541 27.0655 28.3865" fill="white"/>
<path d="M37.7451 28.891C37.6462 27.9986 37.3712 27.1356 36.9365 26.3542C36.5414 25.6088 36.0441 24.9245 35.4596 24.3218C35.4596 26.1638 35.0623 27.7487 33.978 28.7958C34.1323 28.8339 34.2912 28.8768 34.4454 28.9291C34.6405 28.9921 34.8324 29.0652 35.0203 29.1481C35.3892 29.3065 35.7363 29.5128 36.0532 29.7621C36.1326 29.8239 36.2027 29.8906 36.2775 29.9572L36.4832 30.1761C36.5346 30.2237 36.572 30.2713 36.6327 30.3189C36.6935 30.3665 36.6888 30.3618 36.7262 30.3808L36.8384 30.4379C36.882 30.4556 36.9275 30.4684 36.9739 30.476C37.0251 30.4831 37.077 30.4831 37.1281 30.476C37.1806 30.4662 37.2322 30.4519 37.2824 30.4332C37.3264 30.4102 37.3673 30.3814 37.4039 30.3475C37.5189 30.2439 37.6045 30.1108 37.6516 29.962C37.6929 29.8417 37.7211 29.7172 37.7357 29.5907C37.7613 29.3582 37.7613 29.1235 37.7357 28.891" fill="white"/>
<path d="M30.2205 20.495C29.9115 20.4959 29.6093 20.4035 29.352 20.2294C29.0946 20.0553 28.8938 19.8073 28.775 19.5169C28.6561 19.2265 28.6245 18.9067 28.6842 18.598C28.7439 18.2894 28.8922 18.0057 29.1103 17.7829C29.3285 17.5601 29.6066 17.4082 29.9096 17.3465C30.2125 17.2847 30.5266 17.3159 30.8121 17.4361C31.0976 17.5563 31.3417 17.76 31.5134 18.0216C31.6852 18.2831 31.7768 18.5906 31.7768 18.9053C31.7768 19.3261 31.613 19.7297 31.3213 20.0277C31.0295 20.3257 30.6337 20.4937 30.2205 20.495Z" fill="#1FABE3"/>
<path d="M24.9484 24.4218C24.3982 24.9991 23.9266 25.649 23.5463 26.3542C23.1136 27.1365 22.8387 27.999 22.7377 28.891C22.7144 29.1237 22.7144 29.3581 22.7377 29.5907C22.7523 29.7172 22.7805 29.8417 22.8218 29.962C22.8715 30.1109 22.9566 30.245 23.0695 30.3523L23.1911 30.4332C23.2405 30.454 23.2923 30.4685 23.3453 30.476C23.3965 30.4831 23.4483 30.4831 23.4995 30.476C23.5473 30.4678 23.5943 30.455 23.6397 30.4379C23.6774 30.4227 23.7134 30.4035 23.7472 30.3808C23.7846 30.3808 23.808 30.338 23.8407 30.3189C23.8734 30.2999 23.9388 30.2238 23.9903 30.1762L24.1959 29.9572C24.2707 29.8953 24.3408 29.8239 24.4202 29.7621C24.7381 29.5118 25.0869 29.3054 25.4578 29.1481C25.6441 29.0652 25.8344 28.9922 26.028 28.9291C26.1682 28.8815 26.3131 28.8435 26.458 28.8101C25.5747 27.9439 24.9484 26.5636 24.9203 24.4218" fill="white"/>
<path d="M32.8283 31.0424C32.8244 31.2295 32.7897 31.4145 32.7254 31.5898C32.6642 31.767 32.5892 31.9389 32.5011 32.1038C32.3265 32.4367 32.1265 32.7549 31.9029 33.0558C31.6785 33.3572 31.4448 33.6476 31.2018 33.9268C30.9541 34.2124 30.7064 34.4837 30.44 34.7502L30.3652 34.8216L30.2764 34.7502C29.8806 34.4177 29.503 34.0634 29.1454 33.6888C28.7795 33.3137 28.4493 32.9041 28.1592 32.4656C28.0116 32.2358 27.8864 31.9919 27.7853 31.7374C27.7359 31.601 27.6969 31.4609 27.6685 31.3185C27.6685 31.2471 27.6685 31.171 27.6685 31.0948C27.6685 31.0186 27.6685 30.952 27.6685 30.8806C27.7038 30.3119 27.9204 29.7705 28.2854 29.3385C28.3748 29.2316 28.4716 29.1314 28.5752 29.0386C28.6804 28.9504 28.7913 28.8693 28.907 28.7959C29.1396 28.6517 29.3938 28.5471 29.6595 28.4865C30.1796 28.3595 30.7259 28.4028 31.2205 28.6103C31.703 28.8098 32.1163 29.1511 32.4076 29.5908C32.6917 30.0249 32.843 30.535 32.8423 31.0567" fill="#FEFEFF"/>
<path d="M74.0461 37.3108V39.5288H66.1756L66.1429 37.9391L69.8818 33.8934C70.8493 32.8415 71.499 31.9895 71.499 31.0376C71.5067 30.8185 71.4703 30.6002 71.3919 30.396C71.3136 30.1919 71.195 30.0063 71.0435 29.8506C70.8919 29.6949 70.7107 29.5725 70.5109 29.491C70.3111 29.4095 70.097 29.3705 69.8818 29.3765C69.4483 29.3822 69.0245 29.5085 68.6563 29.7417C68.2881 29.9749 67.9894 30.3061 67.7927 30.6997L66.0728 29.4479C66.4554 28.7145 67.0343 28.1066 67.7424 27.6947C68.4505 27.2827 69.2588 27.0836 70.0735 27.1204C72.0785 27.1204 73.9059 28.4817 73.9059 30.7711C73.9059 32.1656 73.4666 33.2556 71.9009 34.9024L69.6201 37.2822V37.3108H74.0461Z" fill="#64656A"/>
<path d="M75.6631 33.3746C75.6631 29.6193 77.4391 27.0776 80.3368 27.0776C83.1411 27.0776 85.0433 29.4051 85.0433 33.3746C85.0433 37.1348 83.2673 39.6526 80.3368 39.6526C77.5606 39.6526 75.6631 37.3489 75.6631 33.3746ZM82.6176 33.3746C82.6176 30.8901 81.795 29.3527 80.3695 29.3527C78.9441 29.3527 78.1028 30.7806 78.1028 33.3746C78.1028 35.8449 78.9487 37.4013 80.3695 37.4013C81.7904 37.4013 82.6176 35.9734 82.6176 33.3746Z" fill="#64656A"/>
<path d="M94.461 37.3108V39.5288H86.5904L86.5577 37.9391L90.2967 33.8934C91.2641 32.8415 91.9138 31.9895 91.9138 31.0376C91.9215 30.8185 91.8851 30.6002 91.8068 30.396C91.7284 30.1919 91.6098 30.0062 91.4583 29.8506C91.3067 29.6949 91.1255 29.5725 90.9257 29.491C90.7259 29.4094 90.5118 29.3705 90.2967 29.3765C89.863 29.3816 89.439 29.5077 89.0707 29.741C88.7024 29.9742 88.4039 30.3058 88.2075 30.6996L86.4829 29.4479C86.8631 28.7031 87.4442 28.0844 88.1579 27.6645C88.8716 27.2446 89.6882 27.0409 90.5117 27.0776C92.5167 27.0776 94.3441 28.4388 94.3441 30.7282C94.3441 32.1228 93.9048 33.2127 92.3391 34.8596L90.0583 37.2394V37.3108H94.461Z" fill="#64656A"/>
<path d="M104 36.1638C104 38.2961 102.261 39.6526 99.9243 39.6526C97.779 39.6526 96.1853 38.5103 95.6011 36.9539L97.6762 36.0781C97.8174 36.5136 98.0984 36.888 98.474 37.1409C98.8496 37.3939 99.2979 37.5108 99.7467 37.4727C100.714 37.4727 101.541 36.8635 101.541 35.8259C101.541 34.9501 100.873 34.1981 99.5551 34.1981H98.6764V32.2133H99.7467C100.822 32.2133 101.312 31.5707 101.312 30.7616C101.309 30.5554 101.265 30.3522 101.181 30.1643C101.098 29.9764 100.978 29.8079 100.828 29.6692C100.678 29.5305 100.502 29.4245 100.31 29.3578C100.119 29.2911 99.9158 29.2651 99.714 29.2814C99.356 29.2617 99 29.3472 98.6884 29.5278C98.3768 29.7084 98.1228 29.9764 97.9566 30.2999L96.0404 29.2623C96.6059 27.9915 97.9893 27.0776 99.7794 27.0776C101.925 27.0776 103.663 28.258 103.663 30.3713C103.667 30.9311 103.524 31.4817 103.249 31.9662C102.973 32.4507 102.576 32.8515 102.098 33.1271V33.1605C102.675 33.4087 103.166 33.8275 103.508 34.3628C103.85 34.8982 104.026 35.5255 104.014 36.1638" fill="#64656A"/>
</g>
<defs>
<clipPath id="clip0_10_980">
<rect width="104" height="60" fill="white"/>
</clipPath>
</defs>
</svg>
