<svg width="50" height="45" viewBox="0 0 50 45" fill="none" xmlns="http://www.w3.org/2000/svg">
<g clip-path="url(#clip0_34_2131)">
<path fill-rule="evenodd" clip-rule="evenodd" d="M5.32129 24.8984C5.32129 13.9919 14.1272 5.15039 24.9901 5.15039C35.8527 5.15039 44.659 13.9919 44.659 24.8984C44.659 35.8048 35.8527 44.646 24.9901 44.646C14.1272 44.646 5.32129 35.8048 5.32129 24.8984Z" fill="#192E7B"/>
<path fill-rule="evenodd" clip-rule="evenodd" d="M9.62466 43.8654L10.3918 43.4355L9.895 43.0247L9.62466 43.8654ZM9.30987 44.6018L8.93945 44.2954L9.72911 41.5234L10.2344 41.9412L10.0549 42.5182L10.8446 43.1711L11.3686 42.8787L11.8626 43.2872L9.30987 44.6018Z" fill="#192E7B"/>
<path fill-rule="evenodd" clip-rule="evenodd" d="M7.21033 41.7648C7.18995 41.9149 7.27983 42.0874 7.37848 42.189C7.49271 42.3067 7.70417 42.4179 7.84543 42.2798C8.18895 41.9436 7.12187 41.2882 7.78244 40.6421C8.20325 40.2303 8.73247 40.3745 9.11138 40.7649C9.34747 41.0083 9.48321 41.2924 9.49213 41.6331L8.87897 41.6544C8.90784 41.4594 8.83933 41.2552 8.70459 41.1162C8.5721 40.9798 8.36036 40.8898 8.22717 41.0201C7.88081 41.3588 8.92907 42.0641 8.30049 42.6793C7.89837 43.0725 7.34791 42.9281 6.98726 42.5565C6.77948 42.3425 6.63567 42.0818 6.62109 41.7834L7.21033 41.7648Z" fill="#192E7B"/>
<path fill-rule="evenodd" clip-rule="evenodd" d="M6.08774 40.6708L6.55766 41.259L6.15738 41.5816L4.85449 39.95L5.25491 39.6277L5.72483 40.2163L7.37875 38.8848L7.74152 39.3391L6.08774 40.6708Z" fill="#192E7B"/>
<path fill-rule="evenodd" clip-rule="evenodd" d="M5.11664 38.3901L4.93093 38.1016C4.81572 37.9227 4.65988 37.6944 4.4194 37.8505C4.19746 37.9946 4.29244 38.2177 4.40751 38.3966L4.6136 38.7165L5.11664 38.3901ZM4.51622 39.4737L3.96279 38.6142C3.6698 38.1591 3.57964 37.6751 4.09527 37.3404C4.40454 37.1395 4.75217 37.1496 5.01048 37.427L5.58118 36.2559L5.95909 36.8422L5.37353 37.8807L5.52909 38.1223L6.41344 37.5481L6.72865 38.0378L4.51622 39.4737Z" fill="#192E7B"/>
<path fill-rule="evenodd" clip-rule="evenodd" d="M4.4399 35.0255C4.22519 34.5784 3.76319 34.4417 3.3213 34.6556C2.87927 34.8698 2.69838 35.318 2.91324 35.765C3.1281 36.2123 3.59009 36.3487 4.03198 36.135C4.47402 35.9208 4.65476 35.4724 4.4399 35.0255ZM2.43114 35.9985C2.07418 35.2557 2.29951 34.4795 3.05959 34.111C3.81953 33.743 4.56503 34.0489 4.92214 34.7919C5.2791 35.5348 5.05363 36.3112 4.29369 36.6795C3.53361 37.0473 2.78825 36.7413 2.43114 35.9985Z" fill="#192E7B"/>
<path fill-rule="evenodd" clip-rule="evenodd" d="M1.59705 33.9584L1.35558 33.2046L2.755 31.572L2.75274 31.565L1.01064 32.1275L0.833008 31.5727L3.33999 30.7637L3.57226 31.4886L2.13958 33.1635L2.1417 33.1706L3.92626 32.5942L4.10404 33.149L1.59705 33.9584Z" fill="#192E7B"/>
<path fill-rule="evenodd" clip-rule="evenodd" d="M1.18238 29.4761L2.04437 29.6448L1.92916 29.0094L1.18238 29.4761ZM0.468729 29.8342L0.382812 29.3604L2.76779 27.7559L2.88484 28.402L2.37685 28.7265L2.55986 29.7364L3.14783 29.853L3.26248 30.4848L0.468729 29.8342Z" fill="#192E7B"/>
<path fill-rule="evenodd" clip-rule="evenodd" d="M1.61598 25.2933C2.23636 25.259 2.71802 25.6142 2.75794 26.3452C2.79828 27.0799 2.35851 27.486 1.73799 27.5201L0.122009 27.6095L0.090162 27.0274L1.68378 26.9395C2.00706 26.9217 2.2399 26.6841 2.22291 26.3747C2.20621 26.0691 1.94875 25.8587 1.62546 25.8765L0.0319884 25.9646L0 25.3825L1.61598 25.2933Z" fill="#192E7B"/>
<path fill-rule="evenodd" clip-rule="evenodd" d="M0.555367 24.0618L0.515594 24.8151L0.00292969 24.7878L0.113049 22.6992L0.625855 22.7264L0.58594 23.4797L2.7034 23.5925L2.67283 24.1743L0.555367 24.0618Z" fill="#192E7B"/>
<path fill-rule="evenodd" clip-rule="evenodd" d="M0.186523 22.1989L0.259842 21.6211L2.87129 21.9543L2.79797 22.5323L0.186523 22.1989Z" fill="#192E7B"/>
<path fill-rule="evenodd" clip-rule="evenodd" d="M1.38299 19.3131C1.22446 19.3978 1.11335 19.546 1.06848 19.7581C0.977471 20.1891 1.25971 20.5813 1.7401 20.6838C2.22049 20.7858 2.63691 20.5421 2.72424 20.1294C2.77279 19.8993 2.71022 19.6911 2.56033 19.5371L3.01355 19.1372C3.27384 19.418 3.33867 19.8135 3.26365 20.1679C3.09309 20.9754 2.4413 21.4513 1.61512 21.2754C0.788938 21.0996 0.385544 20.399 0.556102 19.5915C0.616965 19.3029 0.792476 18.9583 1.11901 18.7988L1.38299 19.3131Z" fill="#192E7B"/>
<path fill-rule="evenodd" clip-rule="evenodd" d="M2.07618 17.2548L2.74666 17.8243L2.95487 17.2131L2.07618 17.2548ZM1.2793 17.2177L1.43443 16.7622L4.29597 16.5293L4.08409 17.151L3.48296 17.1854L3.15218 18.1567L3.60893 18.5465L3.402 19.1539L1.2793 17.2177Z" fill="#192E7B"/>
<path fill-rule="evenodd" clip-rule="evenodd" d="M4.39316 12.3273L4.9204 13.0333L5.2594 12.4842L4.39316 12.3273ZM3.62402 12.1127L3.87682 11.7031L6.71954 12.1179L6.3746 12.677L5.78069 12.5755L5.24184 13.4488L5.60051 13.9313L5.2635 14.4773L3.62402 12.1127Z" fill="#192E7B"/>
<path fill-rule="evenodd" clip-rule="evenodd" d="M6.8424 11.1053L7.03179 10.8703C7.37078 10.4496 7.46674 10.004 7.00135 9.62626C6.59952 9.30012 6.15225 9.46937 5.84354 9.8525L5.62854 10.1195L6.8424 11.1053ZM4.84766 10.2342L5.39471 9.55521C5.92762 8.89354 6.65458 8.56683 7.40319 9.17506C8.06504 9.71224 7.98337 10.5436 7.4901 11.1561L6.89378 11.896L4.84766 10.2342Z" fill="#192E7B"/>
<path fill-rule="evenodd" clip-rule="evenodd" d="M9.83516 6.59387L10.1368 6.351C10.2966 6.22254 10.4118 6.03879 10.2582 5.84665C10.0885 5.63377 9.85045 5.77759 9.67635 5.91757L9.44437 6.10458L9.83516 6.59387ZM8.68457 6.08426L9.44762 5.47006C9.87423 5.12673 10.3376 4.97879 10.7284 5.46779C11.1147 5.95153 10.9054 6.36408 10.4729 6.71225L10.1422 6.97856L10.7843 7.78262L10.3318 8.14699L8.68457 6.08426Z" fill="#192E7B"/>
<path fill-rule="evenodd" clip-rule="evenodd" d="M11.8039 4.71303L11.9819 5.5765L12.5211 5.2242L11.8039 4.71303ZM11.1992 4.1905L11.6013 3.92773L13.9971 5.51638L13.4485 5.87478L12.9541 5.5296L12.0969 6.08951L12.217 6.67913L11.6809 7.02914L11.1992 4.1905Z" fill="#192E7B"/>
<path fill-rule="evenodd" clip-rule="evenodd" d="M14.9456 2.87784C14.7814 2.80494 14.597 2.80863 14.4034 2.90413C14.0097 3.09797 13.8767 3.56253 14.093 4.00506C14.3091 4.44702 14.7567 4.62551 15.1337 4.43949C15.3439 4.33617 15.4682 4.15839 15.4965 3.94494L16.0891 4.05607C16.0298 4.4348 15.7599 4.72982 15.4363 4.88941C14.6989 5.25278 13.9243 5.0318 13.5524 4.27151C13.1805 3.5108 13.4802 2.76031 14.2175 2.39694C14.4812 2.26691 14.859 2.19301 15.1854 2.35217L14.9456 2.87784Z" fill="#192E7B"/>
<path fill-rule="evenodd" clip-rule="evenodd" d="M15.71 1.79587L17.3932 1.1875L17.5745 1.69341L16.4372 2.10468L16.6037 2.56824L17.6778 2.18L17.8593 2.68605L16.785 3.0743L16.9664 3.58006L18.1666 3.14634L18.348 3.65226L16.602 4.28337L15.71 1.79587Z" fill="#192E7B"/>
<path fill-rule="evenodd" clip-rule="evenodd" d="M18.251 0.902416L19.109 0.716821L20.0634 2.2752L20.0706 2.27349L20.305 0.458322L21.1594 0.273438L21.7138 2.85785L21.1466 2.98035L20.7216 0.998482L20.7142 0.999903L20.4631 3.12829L20.0306 3.22165L18.9547 1.38047L18.9474 1.38204L19.3726 3.36405L18.8054 3.48669L18.251 0.902416Z" fill="#192E7B"/>
<mask id="mask0_34_2131" style="mask-type:alpha" maskUnits="userSpaceOnUse" x="24" y="0" width="3" height="3">
<path fill-rule="evenodd" clip-rule="evenodd" d="M24.5039 0H26.866V2.70886H24.5039V0Z" fill="white"/>
</mask>
<g mask="url(#mask0_34_2131)">
<path fill-rule="evenodd" clip-rule="evenodd" d="M24.5788 0L25.1592 0.0166269L25.1311 1.00216L26.2579 1.03456L26.2859 0.0487437L26.866 0.0653706L26.7911 2.7089L26.2109 2.69213L26.2435 1.54971L25.1166 1.51759L25.0839 2.66002L24.5039 2.64339L24.5788 0Z" fill="#192E7B"/>
</g>
<path fill-rule="evenodd" clip-rule="evenodd" d="M28.6822 2.49588C29.1702 2.57561 29.5465 2.27405 29.6254 1.78789C29.7044 1.30145 29.443 0.895581 28.955 0.815857C28.4666 0.735849 28.0899 1.03741 28.011 1.52371C27.932 2.01001 28.1942 2.41602 28.6822 2.49588ZM29.0404 0.285076C29.8516 0.417807 30.3557 1.04863 30.2201 1.88509C30.0845 2.72127 29.4072 3.15897 28.5961 3.02624C27.785 2.89365 27.2808 2.26282 27.4165 1.4265C27.5526 0.590186 28.23 0.15263 29.0404 0.285076Z" fill="#192E7B"/>
<path fill-rule="evenodd" clip-rule="evenodd" d="M31.2261 0.765625L32.0618 1.03549L32.1129 2.86445L32.12 2.86658L33.2271 1.41166L34.059 1.68025L33.2526 4.19716L32.7 4.01909L33.3186 2.08867L33.3116 2.08611L32.0348 3.80422L31.6135 3.66794L31.598 1.53288L31.5908 1.53075L30.9724 3.46117L30.4199 3.28268L31.2261 0.765625Z" fill="#192E7B"/>
<path fill-rule="evenodd" clip-rule="evenodd" d="M34.8007 2.0332L35.3313 2.2684L34.2681 4.68597L33.7373 4.45064L34.8007 2.0332Z" fill="#192E7B"/>
<path fill-rule="evenodd" clip-rule="evenodd" d="M36.0678 2.58594L36.7559 2.97248L36.8397 5.12459L36.846 5.12829L37.7395 3.52486L38.246 3.80922L36.9604 6.11666L36.2984 5.74462L36.2102 3.53879L36.204 3.53509L35.2888 5.1776L34.7822 4.89324L36.0678 2.58594Z" fill="#192E7B"/>
<path fill-rule="evenodd" clip-rule="evenodd" d="M39.8096 6.93955C39.4392 7.44006 38.859 7.58416 38.2741 7.14717C37.6863 6.70791 37.6573 6.10892 38.0281 5.60869L38.9936 4.30469L39.4594 4.65272L38.5071 5.93838C38.3139 6.19887 38.3462 6.53042 38.5937 6.71558C38.8389 6.89848 39.1641 6.83439 39.3574 6.57376L40.3104 5.28837L40.7757 5.63583L39.8096 6.93955Z" fill="#192E7B"/>
<path fill-rule="evenodd" clip-rule="evenodd" d="M41.4928 6.2207L42.1163 6.83988L41.3397 8.49446L41.3451 8.49944L42.9867 7.70376L43.6079 8.32009L41.7571 10.2002L41.3446 9.79065L42.7643 8.3488L42.7591 8.34383L40.8477 9.29724L40.533 8.9846L41.4791 7.07336L41.4739 7.06825L40.0542 8.50967L39.6416 8.10039L41.4928 6.2207Z" fill="#192E7B"/>
<path fill-rule="evenodd" clip-rule="evenodd" d="M43.3004 11.3308C43.5654 11.6869 44.0704 11.7608 44.434 11.4881C44.7977 11.2158 44.871 10.7087 44.6066 10.3526C44.3415 9.99648 43.8366 9.92273 43.4728 10.1953C43.1092 10.4676 43.0362 10.9746 43.3004 11.3308ZM43.839 12.9542L42.8844 11.6704C42.393 11.0089 42.4333 10.2197 43.1126 9.71041C43.7508 9.23236 44.5688 9.40232 45.0356 10.031C45.5028 10.6596 45.4292 11.4973 44.7944 11.9732C44.496 12.1965 44.1062 12.2835 43.7624 12.0895L43.7562 12.0937L44.1968 12.6863L43.839 12.9542Z" fill="#192E7B"/>
<path fill-rule="evenodd" clip-rule="evenodd" d="M45.9454 14.681C45.4027 14.9844 44.8153 14.8764 44.4608 14.2372C44.105 13.5944 44.3234 13.0362 44.8662 12.7333L46.2796 11.9434L46.5621 12.4524L45.1678 13.2312C44.8851 13.3892 44.779 13.7048 44.9291 13.9755C45.0773 14.2431 45.4002 14.3193 45.6831 14.1613L47.0772 13.3824L47.3589 13.8914L45.9454 14.681Z" fill="#192E7B"/>
<path fill-rule="evenodd" clip-rule="evenodd" d="M47.7291 14.6914L48.4133 16.3503L47.9187 16.556L47.4561 15.4349L47.0029 15.6235L47.4395 16.6824L46.9448 16.888L46.5085 15.8291L46.0135 16.0348L46.5015 17.2177L46.0068 17.4233L45.2969 15.7025L47.7291 14.6914Z" fill="#192E7B"/>
<path fill-rule="evenodd" clip-rule="evenodd" d="M48.3738 20.3413L48.445 20.7227C48.4828 20.9246 48.5897 21.1133 48.8308 21.0677C49.0977 21.0176 49.0838 20.7395 49.0426 20.5192L48.9878 20.2256L48.3738 20.3413ZM49.3636 19.5625L49.5438 20.5276C49.6444 21.0667 49.556 21.5466 48.942 21.6622C48.3356 21.7764 48.0716 21.3969 47.9694 20.8503L47.8916 20.4318L46.8828 20.6218L46.7764 20.0492L49.3636 19.5625Z" fill="#192E7B"/>
<path fill-rule="evenodd" clip-rule="evenodd" d="M48.7662 22.849L48.7927 23.1913C48.8092 23.4035 48.8378 23.6784 49.1234 23.6563C49.3864 23.636 49.4092 23.3942 49.3928 23.1819L49.3632 22.8026L48.7662 22.849ZM49.8076 22.1836L49.8866 23.2035C49.9284 23.7433 49.7782 24.2119 49.166 24.2597C48.7989 24.288 48.4984 24.1132 48.403 23.746L47.3464 24.5023L47.2927 23.8063L48.2992 23.1737L48.277 22.8869L47.2278 22.9688L47.1826 22.3881L49.8076 22.1836Z" fill="#192E7B"/>
<path fill-rule="evenodd" clip-rule="evenodd" d="M47.7693 26.1267C47.7471 26.6227 48.0893 26.9633 48.5795 26.9855C49.0698 27.0077 49.4414 26.6992 49.4632 26.2029C49.4854 25.7068 49.143 25.3664 48.653 25.3443C48.1625 25.3224 47.7915 25.6308 47.7693 26.1267ZM49.9982 26.2269C49.9614 27.0513 49.3958 27.6278 48.5528 27.5898C47.7092 27.5518 47.1974 26.9272 47.2343 26.1029C47.271 25.2785 47.8366 24.7024 48.6796 24.74C49.5232 24.7781 50.035 25.4028 49.9982 26.2269Z" fill="#192E7B"/>
<path fill-rule="evenodd" clip-rule="evenodd" d="M46.9345 30.3344C46.8197 29.9644 46.8135 29.5804 46.8827 29.1983C47.0289 28.3867 47.6657 27.8917 48.4962 28.0426C49.3266 28.1934 49.7502 28.8809 49.604 29.6929C49.53 30.1042 49.3731 30.4511 49.0844 30.6682L48.7184 30.1844C48.9073 30.0592 49.0248 29.8874 49.0772 29.597C49.1654 29.1086 48.8721 28.7253 48.3892 28.6375C47.9058 28.5497 47.4973 28.8055 47.4093 29.294C47.3641 29.5437 47.4009 29.74 47.44 29.8574L47.8609 29.9337L47.9447 29.4671L48.4714 29.5629L48.2878 30.5801L46.9345 30.3344Z" fill="#192E7B"/>
<path fill-rule="evenodd" clip-rule="evenodd" d="M47.9144 31.8242L47.8137 32.1522C47.7513 32.3557 47.6772 32.6217 47.9503 32.7064C48.2026 32.7847 48.312 32.5686 48.3745 32.3654L48.4862 32.0014L47.9144 31.8242ZM49.1265 31.5906L48.8258 32.5679C48.6668 33.0849 48.355 33.4649 47.7693 33.2833C47.4176 33.1741 47.2023 32.9003 47.2481 32.524L45.9883 32.8365L46.1935 32.1695L47.3611 31.9534L47.4457 31.6788L46.4405 31.367L46.6115 30.8105L49.1265 31.5906Z" fill="#192E7B"/>
<path fill-rule="evenodd" clip-rule="evenodd" d="M48.2728 34.2051L47.5634 35.8549L47.0716 35.6413L47.5508 34.5266L47.1002 34.3312L46.6474 35.3843L46.1554 35.1708L46.6082 34.1181L46.1162 33.9046L45.6102 35.0812L45.1182 34.8677L45.8547 33.1562L48.2728 34.2051Z" fill="#192E7B"/>
<path fill-rule="evenodd" clip-rule="evenodd" d="M46.0018 37.413C46.1515 37.3897 46.2904 37.2538 46.3596 37.1299C46.4391 36.9864 46.4846 36.7509 46.3126 36.6545C45.8933 36.4196 45.5723 37.6345 44.7665 37.1833C44.2529 36.8956 44.2391 36.3447 44.5041 35.8687C44.6687 35.5717 44.9017 35.3599 45.2245 35.2539L45.4197 35.8381C45.2251 35.866 45.0499 35.9902 44.9555 36.1599C44.8633 36.3264 44.8377 36.5559 45.0005 36.647C45.4226 36.8835 45.7971 35.673 46.5641 36.1022C47.0544 36.377 47.0739 36.9481 46.8221 37.4016C46.6769 37.6627 46.4691 37.8757 46.1882 37.975L46.0018 37.413Z" fill="#192E7B"/>
<path fill-rule="evenodd" clip-rule="evenodd" d="M44.7242 39.3817C44.8752 39.3728 45.0269 39.2512 45.1072 39.1342C45.2002 38.9991 45.2681 38.769 45.1058 38.6565C44.7111 38.3829 44.2753 39.5609 43.5165 39.0341C43.0327 38.6985 43.0721 38.1491 43.3809 37.7005C43.5731 37.421 43.8251 37.2325 44.1566 37.1582L44.2952 37.7582C44.0991 37.7676 43.9127 37.8743 43.8023 38.034C43.6947 38.1908 43.6473 38.4169 43.8003 38.5227C44.1983 38.799 44.6864 37.6303 45.4084 38.1312C45.8709 38.4518 45.8355 39.0221 45.5416 39.4493C45.3721 39.695 45.145 39.887 44.8561 39.9589L44.7242 39.3817Z" fill="#192E7B"/>
<path fill-rule="evenodd" clip-rule="evenodd" d="M41.9009 41.2923C41.4319 40.8839 41.3327 40.2931 41.8101 39.7406C42.2901 39.1854 42.8867 39.2013 43.3553 39.6098L44.5766 40.674L44.1965 41.1135L42.9923 40.0642C42.7481 39.8511 42.4164 39.859 42.2147 40.0929C42.0147 40.3241 42.0537 40.6546 42.2979 40.8674L43.5021 41.9169L43.1219 42.3561L41.9009 41.2923Z" fill="#192E7B"/>
<path fill-rule="evenodd" clip-rule="evenodd" d="M42.4819 43.0401L41.8194 43.6183L40.2345 42.7157L40.2288 42.7205L40.896 44.4243L40.2364 45.0001L38.5088 43.0048L38.9466 42.6226L40.2713 44.1529L40.2772 44.1479L39.4742 42.1619L39.8083 41.8706L41.636 42.9621L41.6412 42.9573L40.3163 41.4271L40.7541 41.0449L42.4819 43.0401Z" fill="#192E7B"/>
<path fill-rule="evenodd" clip-rule="evenodd" d="M23.0058 18.0259C23.6082 18.779 28.9507 13.2155 33.6269 9.31445C28.9507 13.2155 22.3462 17.2006 23.0058 18.0259Z" fill="#FEFEFE"/>
<path fill-rule="evenodd" clip-rule="evenodd" d="M37.1734 14.3542C37.2871 14.7028 37.098 15.0778 36.7508 15.1916C36.4036 15.3053 36.03 15.1151 35.9168 14.766C35.803 14.4174 35.9928 14.0433 36.34 13.9294C36.6868 13.8157 37.06 14.0057 37.1734 14.3542Z" fill="#FEFEFE"/>
<path fill-rule="evenodd" clip-rule="evenodd" d="M26.7889 8.88369C26.9023 9.23214 26.7129 9.60703 26.3657 9.72086C26.0188 9.83454 25.6454 9.64454 25.5318 9.29581C25.4185 8.94721 25.6084 8.57261 25.9556 8.45878C26.3022 8.34495 26.6756 8.53509 26.7889 8.88369Z" fill="#FEFEFE"/>
<path fill-rule="evenodd" clip-rule="evenodd" d="M17.1285 10.3577C17.2417 10.7069 17.0527 11.0816 16.7055 11.1955C16.3583 11.3092 15.9847 11.1192 15.8717 10.7704C15.7583 10.4224 15.9479 10.0472 16.2951 9.93339C16.642 9.81956 17.0149 10.0097 17.1285 10.3577Z" fill="#FEFEFE"/>
<path fill-rule="evenodd" clip-rule="evenodd" d="M18.5037 18.1926C18.6169 18.5408 18.4276 18.9161 18.0807 19.0293C17.7337 19.1436 17.3604 18.953 17.2463 18.6043C17.1338 18.2563 17.3231 17.8811 17.6703 17.7673C18.017 17.6536 18.3903 17.8441 18.5037 18.1926Z" fill="#FEFEFE"/>
<path fill-rule="evenodd" clip-rule="evenodd" d="M11.1119 22.2414C11.2253 22.5898 11.0359 22.9647 10.6891 23.0786C10.3419 23.1921 9.96865 23.0022 9.85528 22.6536C9.74148 22.3045 9.93143 21.9302 10.2782 21.816C10.6255 21.7025 10.9984 21.8928 11.1119 22.2414Z" fill="#FEFEFE"/>
<path fill-rule="evenodd" clip-rule="evenodd" d="M29.6641 15.6387V38.221H32.8769V32.1273H35.019V29.618H32.8769V21.3737C34.0792 23.1907 34.7334 24.7113 35.019 26.392H37.5182C37.5182 26.392 36.4477 19.2034 29.6641 15.6387Z" fill="#FEFEFE"/>
<path fill-rule="evenodd" clip-rule="evenodd" d="M25.023 29.6189L22.5235 29.6191C22.6683 25.022 23.839 22.6816 25.023 21.7335V29.6189ZM19.3105 38.2182L22.5235 38.2221V32.1284H25.0232L25.023 38.2142L28.2363 38.2221L28.2359 16.7148C18.2399 20.2996 19.5289 31.5001 19.3105 38.2182Z" fill="#FEFEFE"/>
<path fill-rule="evenodd" clip-rule="evenodd" d="M14.6689 38.2226L17.8821 38.2188C17.8821 38.2188 16.8109 23.526 21.8092 19.2246C17.3349 22.8834 14.7411 27.8258 14.6689 38.2226Z" fill="#FEFEFE"/>
</g>
<defs>
<clipPath id="clip0_34_2131">
<rect width="50" height="45" fill="white"/>
</clipPath>
</defs>
</svg>
