<svg width="24" height="34" viewBox="0 0 24 34" fill="none" xmlns="http://www.w3.org/2000/svg">
<g clip-path="url(#clip0_34_2039)">
<path fill-rule="evenodd" clip-rule="evenodd" d="M13.1152 29.6876C12.6882 29.5782 12.2477 29.5196 11.825 29.3977C11.637 29.3435 11.4072 29.2412 11.4432 28.9631C11.4788 28.6888 11.7057 28.6086 11.9255 28.5688C12.2724 28.506 12.6221 28.5767 12.8541 28.8394C13.0539 29.0655 13.2704 29.0215 13.483 28.982C13.6318 28.9544 13.7755 28.9068 13.9318 28.9056C14.2228 28.9034 14.2143 28.7483 14.1001 28.5472C13.9153 28.2215 13.649 27.9995 13.295 27.8722C12.6685 27.6467 12.0517 27.7006 11.4108 27.8365C11.0252 27.9181 10.7398 28.117 10.5077 28.3781C10.1904 28.7354 10.1443 29.1886 10.3411 29.6267C10.5538 30.0996 10.9797 30.2982 11.4644 30.3702C11.9564 30.4433 12.4519 30.4936 12.9163 30.6899C13.0894 30.763 13.2498 30.8474 13.2436 31.0772C13.2375 31.3092 13.0535 31.3847 12.8922 31.4523C12.3409 31.6827 11.6048 31.4249 11.2706 30.8903C11.2351 30.8334 11.2061 30.797 11.1499 30.8072C10.8378 30.8632 10.523 30.9105 10.2175 30.9922C10.0852 31.0276 10.2007 31.1155 10.228 31.1871C10.5347 31.9925 11.1762 32.3422 12.3825 32.3567C12.804 32.3146 13.3305 32.321 13.808 32.0213C14.2835 31.7231 14.4582 31.3332 14.3691 30.8149C14.244 30.0877 13.7219 29.8429 13.1152 29.6876Z" fill="#454585"/>
<path fill-rule="evenodd" clip-rule="evenodd" d="M18.0008 30.1354C17.4555 30.2739 16.9095 30.4093 16.3482 30.5495C16.3422 30.4429 16.3333 30.358 16.3333 30.2734C16.3323 29.4419 16.3333 28.6107 16.3319 27.7792C16.3316 27.6589 16.357 27.4586 16.1607 27.544C15.9206 27.6484 15.6587 27.5364 15.4589 27.6347C15.2941 27.7158 14.9568 27.5261 14.958 27.9153C14.9617 29.2745 14.9593 30.6338 14.9593 32.019C15.1745 31.9521 15.3567 31.8967 15.5383 31.839C16.3489 31.581 17.1614 31.3285 17.9685 31.0596C18.184 30.9877 18.3418 30.3041 18.1947 30.1509C18.1409 30.0949 18.0701 30.1178 18.0008 30.1354Z" fill="#454585"/>
<path fill-rule="evenodd" clip-rule="evenodd" d="M8.48505 27.7818C8.19137 27.7723 8.17145 27.8916 8.17402 28.1286C8.18484 29.1325 8.17849 30.1367 8.17849 31.1408C8.17849 31.7815 8.179 31.7799 8.82219 31.9444C8.99445 31.9886 9.16362 32.0452 9.38019 32.1095C9.38019 30.9238 9.38723 29.7915 9.37813 28.6594C9.36988 27.6512 9.54764 27.8161 8.48505 27.7818Z" fill="#454585"/>
<path fill-rule="evenodd" clip-rule="evenodd" d="M6.80294 27.5365C6.54807 27.4751 6.29252 27.4153 6.03593 27.362C5.83413 27.3203 5.78089 27.4034 5.76681 27.6136C5.73658 28.0596 5.88342 28.4847 5.86728 28.9286C5.84461 29.5452 5.86212 30.1631 5.86109 30.7805C5.86092 30.9221 5.83842 31.0689 6.00296 31.1472C6.31175 31.2941 6.61935 31.4435 6.97726 31.6157C6.97726 30.3061 6.97658 29.048 6.97829 27.7899C6.97847 27.6593 6.93227 27.5678 6.80294 27.5365Z" fill="#454585"/>
<path fill-rule="evenodd" clip-rule="evenodd" d="M22.993 25.0947C22.6198 26.7807 21.854 28.2632 20.7133 29.564C19.7749 30.6341 18.6297 31.3685 17.3421 31.9409C16.4626 32.332 15.5501 32.6262 14.6198 32.7559C13.7329 32.8796 12.8281 33.0039 11.9193 32.9649C10.2444 32.8951 8.58227 32.7773 6.98041 32.1922C4.20776 31.1795 2.31616 29.3017 1.31523 26.5167C1.05452 25.7913 0.926227 25.0387 0.861307 24.2736C0.834515 23.9577 1.01948 23.7061 1.13661 23.4381C1.77173 21.9854 2.42676 20.5421 3.04178 19.0798C3.58724 17.7828 4.23833 16.5305 4.81539 15.2462C5.74865 13.1687 6.65117 11.0775 7.58306 8.99952C8.13659 7.76505 8.72877 6.54817 9.29037 5.31732C9.85198 4.08613 10.393 2.84528 10.9527 1.61322C11.1033 1.28158 11.3625 1.04014 11.731 0.989606C12.1212 0.936143 12.3423 1.18811 12.5183 1.50319C13.0858 2.51898 13.5852 3.56823 14.0793 4.62145C14.8657 6.29828 15.6896 7.95752 16.4798 9.63262L19.1752 15.423C19.9403 17.0643 20.7143 18.7016 21.4757 20.3448C22.0036 21.4841 22.5194 22.6292 23.0355 23.774C23.2352 24.2172 23.0885 24.6629 22.993 25.0947ZM23.881 23.7277C23.143 22.1363 22.3574 20.5677 21.6409 18.9654C21.0152 17.5662 20.3372 16.1905 19.683 14.8041C18.5332 12.3666 17.3888 9.92624 16.2326 7.49179C15.676 6.31992 15.0765 5.16841 14.536 3.98947C14.028 2.88089 13.4772 1.79439 12.9233 0.709447C12.4656 -0.187347 11.2704 -0.24788 10.7437 0.607523C9.98886 1.8332 9.48909 3.18787 8.86479 4.47995C8.61353 5.00009 8.3171 5.50229 8.11032 6.0395C7.73248 7.0208 7.26877 7.96192 6.83975 8.91907C6.28021 10.1675 5.67549 11.3958 5.11818 12.6452C4.09544 14.9383 3.10069 17.2437 2.07984 19.5374C1.45624 20.9387 0.811163 22.3304 0.164028 23.721C-0.00617078 24.0866 -0.0362262 24.4771 0.0384828 24.8397C0.303829 26.1275 0.666897 27.382 1.32674 28.5406C2.06988 29.8456 3.03887 30.9295 4.27886 31.7618C5.49516 32.578 6.81313 33.1313 8.26541 33.411C9.45405 33.6399 10.6346 33.8456 11.8957 33.8215C13.0202 33.8623 14.1743 33.7004 15.3195 33.4745C16.6253 33.2168 17.8677 32.772 19.0175 32.0938C20.1422 31.4301 21.1298 30.5906 21.9013 29.5353C22.8314 28.2631 23.4868 26.8448 23.8272 25.2993C23.9395 24.7885 24.1228 24.2491 23.881 23.7277Z" fill="#454585"/>
<path fill-rule="evenodd" clip-rule="evenodd" d="M17.8657 21.2285C17.7862 21.2209 17.7082 21.1537 17.7146 21.0607C17.7206 20.974 17.7877 20.907 17.8755 20.9013C17.9779 20.8946 17.9576 20.9855 17.9643 21.0498C17.9504 21.1216 18.0007 21.2414 17.8657 21.2285ZM15.5602 13.1376C15.0314 13.1949 14.5677 13.703 14.5278 14.2407C14.4751 14.9523 14.4033 15.6625 14.3372 16.4028C14.1247 16.0512 14.2053 15.6702 14.1084 15.3253C14.0584 15.1478 14.1589 14.9343 13.891 14.831C13.8058 14.7983 13.7752 14.6239 14.0047 14.6361C14.0648 14.6393 13.9095 13.8223 13.7998 13.7257C13.7155 13.6516 13.6033 13.5933 13.5863 13.471C13.5363 13.1118 13.2438 13.1018 12.9888 13.0554C12.7181 13.0059 12.4425 12.9847 12.1696 12.9209C12.5247 12.862 12.8854 12.8312 13.2337 12.8153C13.6249 12.7974 13.7386 12.4704 13.9837 12.3062C14.0954 12.2312 14.0541 11.9139 14.0907 11.7066C14.1855 11.1697 14.2302 10.624 14.3135 10.0806C14.3959 10.6539 14.5275 11.2195 14.5302 11.8019C14.5336 12.5013 14.8275 12.7382 15.5145 12.8181C15.8245 12.8539 16.1932 12.7719 16.4838 13.0314C16.1683 13.0678 15.8645 13.1045 15.5602 13.1376ZM14.9687 17.3588C14.9641 17.2717 15.0396 17.2065 15.1231 17.1955C15.2188 17.1829 15.2569 17.2717 15.3003 17.3395C15.3021 17.44 15.231 17.5073 15.1597 17.5223C15.053 17.5445 14.9742 17.4629 14.9687 17.3588ZM15.1085 21.0355C14.4397 20.9803 14.2271 21.4737 13.9142 21.8402C13.7239 22.0632 13.8268 22.4067 13.7745 22.694C13.632 23.4801 13.5683 24.2805 13.4649 25.1443C13.2804 24.4374 13.2509 23.7724 13.1568 23.1181C13.1013 22.732 13.0405 22.3463 12.9856 21.96C12.9696 21.8481 12.9005 21.8019 12.8075 21.7502C12.713 21.6976 12.5747 21.602 12.573 21.5225C12.5595 20.8947 12.0501 20.9872 11.6851 20.9053C11.4163 20.8451 11.13 20.8634 10.8437 20.797C11.1333 20.6959 11.4505 20.6649 11.738 20.655C12.2433 20.638 12.6158 20.4227 12.9617 20.1004C13.2676 19.8151 13.1554 19.4112 13.2281 19.0674C13.3493 18.4924 13.3766 17.8974 13.4436 17.3109C13.4616 17.3083 13.4797 17.3055 13.4979 17.3027C13.6131 18.1416 13.7407 18.9789 13.8383 19.8198C13.8803 20.1837 14.2826 20.6045 14.6494 20.6402C15.1631 20.6904 15.6742 20.769 16.1852 20.8354C15.8504 21.0182 15.44 21.0627 15.1085 21.0355ZM10.4042 13.3285C10.3613 14.0068 10.2778 14.6841 10.0965 15.457C10.0228 14.6303 9.95618 13.9161 9.89744 13.2014C9.87718 12.9571 9.73686 12.7725 9.6436 12.5613C9.32862 11.8478 8.71069 11.9399 8.1228 11.9087C8.3672 11.8283 8.59613 11.7445 8.85358 11.7547C9.43167 11.7774 10.0621 11.2124 9.99122 10.5764C9.93729 10.0916 10.0489 9.6079 10.2035 9.13571C10.3012 9.8133 10.3661 10.4979 10.5114 11.165C10.5775 11.4685 10.7369 11.7631 11.1805 11.774C11.5956 11.7841 12.0126 11.868 12.4368 11.9009C12.1784 11.9397 11.9211 11.9992 11.6612 12.0135C10.8546 12.0577 10.4575 12.4893 10.4042 13.3285ZM7.86503 21.0758C7.46676 21.1734 7.32163 21.5622 7.24812 21.8988C7.06934 22.7182 6.95375 23.552 6.9304 24.4031C6.74852 24.0799 6.78579 23.7109 6.72757 23.3666C6.64083 22.8548 6.59979 22.3346 6.55187 21.8169C6.54174 21.7057 6.44505 21.7008 6.41052 21.6465C6.06154 21.0976 5.63407 20.7116 4.88766 20.8508C5.21758 20.6868 5.54648 20.7132 5.85613 20.6457C6.18485 20.5741 6.59859 20.1592 6.63877 19.8224C6.71778 19.1577 6.82357 18.4963 6.93658 17.8334C7.01335 18.5536 7.08256 19.2721 7.23164 19.9805C7.3261 20.4296 7.6002 20.7119 8.05017 20.7157C8.43093 20.7188 8.79056 20.8658 9.17545 20.8722C8.73784 20.937 8.29285 20.971 7.86503 21.0758ZM5.9399 23.1717C5.41556 23.3391 5.23849 23.5226 5.17529 24.0728C5.15623 24.2394 5.18525 24.4018 5.11088 24.5744C5.04923 24.7171 5.09818 24.9082 5.09818 25.1327C4.83781 24.7624 4.89672 24.3746 4.87353 24.0369C4.84949 23.6858 4.59874 23.5207 4.50394 23.2517C4.44451 23.0832 4.32704 23.152 4.2276 23.1365C4.08454 23.1139 3.9018 23.206 3.81765 22.9633C3.95401 22.9633 4.08179 22.9718 4.20785 22.9618C4.68032 22.9237 4.9029 22.6848 4.91802 22.2154C4.92712 21.9343 5.05438 21.6683 5.06743 21.3744C5.10333 21.6342 5.15897 21.893 5.171 22.154C5.19968 22.7767 5.40852 22.9635 6.22156 23.0489C6.31756 23.0589 6.41443 23.0604 6.55698 23.0685C6.33268 23.2029 6.13191 23.1101 5.9399 23.1717ZM10.6006 7.4518C11.5232 7.35453 11.698 7.13516 11.7736 6.33357C11.8052 5.99693 11.9264 5.67218 11.9112 5.32243C12.0954 5.66684 12.0826 6.05436 12.1176 6.4217C12.1566 6.83112 12.2224 7.23623 12.606 7.42007C12.8563 7.5401 13.1817 7.50268 13.4737 7.5351C13.5936 7.54838 13.7394 7.48733 13.8173 7.68135C13.5972 7.75016 13.3631 7.68238 13.1431 7.77982C12.9536 7.86364 12.7012 7.72239 12.5222 7.95211C12.2751 8.26944 12.1533 8.61987 12.1253 9.01636C12.0944 9.45338 12.008 9.88573 12.0352 10.3282C12.0405 10.4141 11.9726 10.5045 11.9125 10.66C11.8059 9.89798 11.7111 9.20572 11.6113 8.51416C11.5661 8.20028 11.0395 7.74016 10.7307 7.7029C10.4694 7.67134 10.2135 7.59443 9.94332 7.57477C10.1623 7.53286 10.3797 7.47508 10.6006 7.4518ZM20.1882 19.8414C19.4374 18.1801 18.6563 16.5324 17.8786 14.8833C16.9105 12.8305 15.9284 10.7843 14.96 8.73153C14.0101 6.71789 13.0699 4.69976 12.125 2.6837C12.0604 2.54573 11.9778 2.38361 11.8231 2.38689C11.6992 2.38948 11.607 2.52831 11.5426 2.65558C11.0435 3.64154 10.6001 4.65423 10.1168 5.64794C9.34394 7.23768 8.65027 8.86605 7.91983 10.4766C7.06953 12.3518 6.21681 14.2259 5.36273 16.0993C4.2919 18.4484 3.24649 20.8084 2.30447 23.2132C2.1195 23.685 1.95462 24.1453 2.26634 24.6454C2.74345 25.4112 3.48744 25.8087 4.26768 26.1462C5.68732 26.7603 7.21259 26.9273 8.72601 27.083C9.68314 27.1813 10.6524 27.2634 11.473 27.1803C12.7124 27.1999 13.7981 27.1546 14.8846 27.0242C15.744 26.9212 16.6075 26.8566 17.4541 26.6674C18.8114 26.3642 20.1061 25.923 21.2026 25.0128C21.6594 24.6334 21.9354 23.9494 21.7315 23.4593C21.2283 22.2486 20.7282 21.0357 20.1882 19.8414Z" fill="#454585"/>
</g>
<defs>
<clipPath id="clip0_34_2039">
<rect width="24" height="34" fill="white"/>
</clipPath>
</defs>
</svg>
