<svg width="24" height="33" viewBox="0 0 24 33" fill="none" xmlns="http://www.w3.org/2000/svg">
<g clip-path="url(#clip0_34_1991)">
<path fill-rule="evenodd" clip-rule="evenodd" d="M13.5885 15.1273C12.3506 15.0657 11.1299 14.8991 9.94351 14.5209C9.22537 14.292 8.53398 14.0011 7.87959 13.6229C7.81028 13.6129 7.74418 13.5953 7.68291 13.5577C7.42891 13.4022 7.17592 13.2455 6.92499 13.0851C6.8605 13.0438 6.79952 12.9996 6.76413 12.9282C6.12071 12.476 5.5042 11.9924 5.00087 11.3779C4.72302 11.0389 4.50178 10.6673 4.38508 10.2398C4.31708 9.99117 4.30904 9.73777 4.37836 9.4888C4.55851 8.84216 4.78576 8.21264 5.09621 7.61724C5.1664 7.48272 5.22036 7.30197 5.41222 7.29887C5.60978 7.29577 5.67646 7.47223 5.75265 7.61355C6.26519 8.56454 6.86869 9.44982 7.60321 10.2407C7.72634 10.3732 7.83894 10.5178 7.98956 10.6223C8.23114 10.7444 8.40632 10.9534 8.61733 11.1157C8.82001 11.2715 9.01611 11.4361 9.2223 11.5879C10.0046 12.1634 10.8464 12.6288 11.7479 12.9841C12.3582 13.2247 12.9862 13.4031 13.6267 13.5389C13.7157 13.5578 13.8165 13.5565 13.8719 13.6525C13.9079 13.7458 13.8769 13.8375 13.8649 13.9295C13.8233 14.2488 13.7698 14.566 13.6996 14.8799C13.6799 14.9684 13.678 15.0691 13.5885 15.1273Z" fill="#0E4877"/>
<path fill-rule="evenodd" clip-rule="evenodd" d="M9.18003 11.6106C8.77306 11.2933 8.36069 10.9826 7.98926 10.6215C8.56731 9.73889 9.20415 8.90486 9.95447 8.16208C10.6124 7.51057 11.3333 6.94411 12.1307 6.47747C12.1807 6.44838 12.2269 6.41265 12.2749 6.38001C12.2936 6.34132 12.3248 6.31563 12.362 6.29687C12.6636 6.14463 12.9638 5.98957 13.2666 5.83969C13.3042 5.82108 13.3447 5.81902 13.3845 5.81149C13.9266 5.59692 14.4605 5.35991 15.0296 5.22214C15.6553 5.07048 16.2809 4.99753 16.9107 5.20132C17.1272 5.27131 17.3145 5.38797 17.4658 5.55676C17.8732 6.01113 18.2795 6.46714 18.6162 6.9797C18.6901 7.09222 18.761 7.20947 18.8131 7.33307C18.8795 7.49093 18.8063 7.61955 18.6389 7.64657C18.5187 7.66591 18.3946 7.67226 18.2729 7.66754C17.1465 7.62324 16.0367 7.74196 14.9411 8.00481C14.8854 8.01825 14.8326 8.04395 14.7785 8.06388C14.7418 8.12797 14.6727 8.13166 14.6137 8.15086C14.1993 8.28671 13.7904 8.43793 13.3864 8.60214C12.3465 9.06626 11.3788 9.65044 10.4906 10.3684C10.0431 10.73 9.64548 11.144 9.25197 11.5625C9.23135 11.5845 9.20796 11.6004 9.18003 11.6106Z" fill="#1674A7"/>
<path fill-rule="evenodd" clip-rule="evenodd" d="M13.3469 8.57539C13.8149 8.37884 14.2863 8.19219 14.7784 8.06445C15.5059 9.49729 15.9828 11.01 16.1819 12.6085C16.2233 12.9411 16.2264 13.2785 16.2488 13.6134C16.2524 13.6678 16.2285 13.7379 16.3128 13.7568C16.2602 13.9779 16.2808 14.2026 16.2805 14.426C16.2802 14.6156 16.2599 14.8022 16.222 14.9873C16.1287 15.2626 16.1379 15.5544 16.0895 15.8372C15.9712 16.5299 15.8151 17.2087 15.4767 17.8331C15.1412 18.4521 14.6605 18.8388 13.9425 18.9183C13.3875 18.9797 12.8426 19.1328 12.2778 19.1151C11.9124 19.1038 11.8198 18.9502 12.0113 18.6322C12.4416 17.9172 12.8514 17.1928 13.1599 16.4135C13.3265 15.9925 13.4699 15.5641 13.5882 15.1269C13.7076 14.6326 13.8066 14.1347 13.8441 13.6261C13.7937 13.5174 13.8297 13.4059 13.838 13.2968C13.8634 12.9625 13.9067 12.6279 13.8955 12.2931C13.8558 11.1126 13.7391 9.9428 13.3643 8.81387C13.3386 8.73664 13.3026 8.65853 13.3469 8.57539Z" fill="#833A64"/>
<path fill-rule="evenodd" clip-rule="evenodd" d="M11.1155 30.9673C11.1155 31.2976 11.1094 31.6282 11.1186 31.9583C11.1222 32.0888 11.0763 32.1778 10.9895 32.2679C10.7071 32.5607 10.3574 32.7248 9.97592 32.8336C9.38237 33.0029 8.77945 33.0606 8.17697 32.9131C7.18537 32.6705 6.5709 32.0055 6.32904 31.0324C6.0819 30.0375 6.08161 29.0168 6.34483 28.023C6.68906 26.7231 7.75495 26.0825 9.08171 26.2167C9.50608 26.2596 9.90544 26.3774 10.2587 26.6283C10.7463 26.9746 10.9934 27.4672 11.1048 28.0431C11.1218 28.1305 11.0909 28.1589 11.005 28.155C10.8709 28.1491 10.7239 28.1868 10.6052 28.1429C10.4686 28.0924 10.5046 27.912 10.4616 27.7913C10.2426 27.1761 9.80717 26.8299 9.18027 26.7263C8.5348 26.6197 7.93277 26.7117 7.43572 27.1857C7.06766 27.5367 6.87097 27.9867 6.81146 28.4801C6.71933 29.2416 6.68321 30.0133 6.84041 30.7686C7.01428 31.6036 7.46716 32.2375 8.33227 32.4422C8.99324 32.5984 9.64295 32.5051 10.2517 32.1836C10.4638 32.0717 10.5787 31.9231 10.5613 31.6533C10.5345 31.2362 10.5481 30.8159 10.5578 30.3972C10.561 30.2599 10.5176 30.2322 10.3905 30.2341C9.90573 30.2415 9.42082 30.2339 8.93592 30.2394C8.82434 30.2407 8.78662 30.2128 8.78735 30.0939C8.78925 29.7558 8.78354 29.7558 9.11476 29.7558C9.72236 29.7558 10.33 29.7609 10.9374 29.7521C11.0874 29.7499 11.1231 29.7968 11.1187 29.9408C11.1086 30.2827 11.1155 30.6251 11.1155 30.9673Z" fill="#1674A7"/>
<mask id="mask0_34_1991" style="mask-type:alpha" maskUnits="userSpaceOnUse" x="0" y="26" width="5" height="7">
<path fill-rule="evenodd" clip-rule="evenodd" d="M0 26.1973H4.73687V32.9992H0V26.1973Z" fill="white"/>
</mask>
<g mask="url(#mask0_34_1991)">
<path fill-rule="evenodd" clip-rule="evenodd" d="M2.42429 26.199C3.1654 26.216 3.8287 26.4161 4.31127 27.0311C4.54276 27.3263 4.65638 27.668 4.68987 28.0406C4.69879 28.1394 4.68694 28.1959 4.56572 28.1849C4.4325 28.1726 4.27808 28.2203 4.16855 28.1671C4.05039 28.1095 4.11386 27.9332 4.08256 27.8115C3.97289 27.3854 3.73629 27.0547 3.33576 26.886C2.59041 26.5717 1.8477 26.5717 1.17751 27.0741C0.625342 27.488 0.655027 28.3195 1.20881 28.7317C1.59179 29.017 2.03955 29.1521 2.4898 29.2792C2.96213 29.4127 3.42876 29.5599 3.85971 29.8046C4.80788 30.3427 4.86622 31.2906 4.59847 31.9063C4.42796 32.2985 4.12965 32.5728 3.74477 32.7291C2.7634 33.1273 1.79271 33.0953 0.864286 32.5658C0.333755 32.2632 0.0676124 31.7737 0.00253905 31.1657C-0.011353 31.0371 0.0307619 30.9975 0.153597 31.0073C0.275555 31.017 0.416669 30.9737 0.516692 31.0223C0.63397 31.0792 0.572991 31.2447 0.60253 31.3602C0.712643 31.7899 0.975276 32.0987 1.36703 32.2732C2.03575 32.5712 2.72509 32.6006 3.4096 32.3253C3.79302 32.1712 4.06867 31.9011 4.14033 31.4689C4.22031 30.987 4.07262 30.5973 3.66171 30.3231C3.27639 30.0659 2.83857 29.9386 2.40192 29.8094C1.90897 29.6636 1.41792 29.5137 0.975861 29.238C-0.00579619 28.6259 0.0605932 27.5203 0.558075 26.935C0.919269 26.5097 1.40271 26.3205 1.935 26.2365C2.09629 26.211 2.25905 26.1912 2.42429 26.199Z" fill="#1674A7"/>
</g>
<path fill-rule="evenodd" clip-rule="evenodd" d="M19.101 29.5558C19.0824 29.0041 19.1048 28.4247 19.3048 27.8635C19.7238 26.6884 20.7591 26.0504 21.9863 26.2205C23.1627 26.3837 23.8371 27.0643 23.9901 28.2342C24.0035 28.3375 23.9886 28.3728 23.8832 28.3663C23.7435 28.3579 23.5811 28.4032 23.4698 28.3449C23.3591 28.2867 23.3957 28.102 23.3613 27.9747C23.14 27.1575 22.6075 26.7239 21.772 26.6921C20.7573 26.6534 20.0219 27.1845 19.7891 28.2147C19.5756 29.1596 19.5677 30.1267 19.8162 31.0691C20.0146 31.8218 20.477 32.3553 21.2819 32.4816C21.7018 32.5474 22.1211 32.5061 22.5174 32.3302C22.9706 32.1291 23.2058 31.7493 23.3432 31.2911C23.3532 31.2572 23.3585 31.2218 23.3704 31.1887C23.411 31.075 23.3641 30.8921 23.4679 30.8525C23.6064 30.7996 23.7779 30.8351 23.9354 30.8328C24.0059 30.832 24.0013 30.8743 23.9945 30.9275C23.8422 32.0945 23.1411 32.8349 21.9721 32.9656C21.6197 33.0051 21.2713 33.0006 20.9303 32.9055C19.9687 32.6374 19.4581 31.9454 19.2102 31.0128C19.086 30.5456 19.0923 30.0678 19.101 29.5558Z" fill="#1674A7"/>
<path fill-rule="evenodd" clip-rule="evenodd" d="M19.5667 10.4126C19.564 11.3086 18.7294 11.9308 17.8393 11.7004C17.0985 11.5086 16.5817 10.9228 16.4836 10.1633C16.3651 9.2463 17.1472 8.52818 18.1013 8.67807C18.9192 8.80654 19.5694 9.5759 19.5667 10.4126Z" fill="#1674A7"/>
<path fill-rule="evenodd" clip-rule="evenodd" d="M6.65691 6.7097C6.66232 6.13925 6.88269 5.66627 7.32563 5.31482C8.08033 4.71572 9.13233 5.02981 9.45872 5.94108C9.71184 6.64768 9.50858 7.42309 8.94149 7.9135C8.1147 8.62851 6.90068 8.19717 6.69259 7.11475C6.66685 6.98111 6.64696 6.84747 6.65691 6.7097Z" fill="#0E4877"/>
<path fill-rule="evenodd" clip-rule="evenodd" d="M9.95956 15.502C10.9159 15.5005 11.5137 15.9391 11.6509 16.6028C11.7611 17.1361 11.5715 17.578 11.1938 17.9428C10.6881 18.4308 9.85164 18.5603 9.21933 18.2595C8.41841 17.8787 8.18912 16.8911 8.74042 16.1885C9.10556 15.7229 9.58973 15.5056 9.95956 15.502Z" fill="#833A64"/>
<path fill-rule="evenodd" clip-rule="evenodd" d="M19.7501 5.31221C19.2517 4.24235 18.4812 3.5328 17.3457 3.23761C17.5115 3.16688 17.6784 3.09851 17.8427 3.02467C18.0131 2.94818 18.1805 2.86519 18.3503 2.78737C18.7415 2.60795 19.0394 2.32871 19.2371 1.94329C19.3783 1.66789 19.5156 1.39042 19.6648 1.09375C19.9289 1.5818 20.131 2.09938 20.564 2.4529C20.9951 2.80494 21.5243 2.94862 22.0566 3.15624C20.8994 3.45173 20.1026 4.13352 19.7501 5.31221Z" fill="#1674A7"/>
<path fill-rule="evenodd" clip-rule="evenodd" d="M6.76378 12.9275C7.13565 13.159 7.50752 13.3907 7.87938 13.6222C7.77688 13.6277 7.77585 13.7238 7.74529 13.7857C7.40004 14.4845 7.18376 15.2302 6.97143 15.9773C6.92493 16.1412 6.87857 16.3054 6.82461 16.4669C6.76714 16.6393 6.7104 16.6579 6.55218 16.5651C6.38738 16.4687 6.26147 16.3278 6.14975 16.1766C5.39826 15.1601 4.83337 14.0536 4.57468 12.8027C4.55114 12.6885 4.55421 12.5685 4.55041 12.4509C4.54924 12.4152 4.53769 12.3598 4.60013 12.3575C4.64327 12.356 4.65365 12.3945 4.66593 12.4283C4.72252 12.5828 4.77663 12.7383 4.83761 12.891C5.06661 13.4647 5.31915 14.0273 5.62638 14.5633C5.72041 14.7273 5.8314 14.8786 5.97237 15.0053C6.03057 15.0576 6.08204 15.0738 6.11305 14.9759C6.32932 14.293 6.54677 13.6103 6.76378 12.9275Z" fill="#1674A7"/>
<path fill-rule="evenodd" clip-rule="evenodd" d="M13.3841 5.81122C13.0143 6.00068 12.6443 6.19014 12.2745 6.37975C11.7966 5.61689 11.1723 4.97852 10.5621 4.32833C10.4818 4.24283 10.4059 4.15305 10.3281 4.06518C10.2435 3.96935 10.2721 3.89684 10.3732 3.83792C10.5593 3.72938 10.7651 3.68405 10.9742 3.66278C12.1699 3.54081 13.3505 3.61154 14.507 3.96359C14.6638 4.01128 14.8131 4.07788 14.9533 4.16324C14.99 4.18553 15.0516 4.20591 15.0248 4.26527C15.0054 4.30854 14.9522 4.29141 14.9141 4.28521C14.6669 4.2446 14.421 4.19262 14.1726 4.16132C13.5937 4.08822 13.0133 4.02812 12.4283 4.03654C12.3106 4.03816 12.1973 4.06592 12.084 4.09398C11.9559 4.12573 11.9352 4.17165 12.0335 4.27945C12.4921 4.78241 12.9555 5.28124 13.3841 5.81122Z" fill="#833A64"/>
<path fill-rule="evenodd" clip-rule="evenodd" d="M16.2219 14.9868C16.1551 14.8663 16.2225 14.7467 16.2238 14.6265C16.2261 14.3858 16.231 14.1451 16.2298 13.9044C16.2293 13.8341 16.2358 13.7774 16.313 13.7563C17.2787 13.6923 18.2013 13.4028 19.1404 13.1994C19.3252 13.1594 19.3561 13.187 19.3556 13.3793C19.3551 13.5715 19.3024 13.7533 19.2287 13.9259C18.7557 15.036 18.1134 16.0313 17.2479 16.8727C17.13 16.9873 16.999 17.0864 16.8584 17.1713C16.8157 17.1971 16.761 17.2469 16.7175 17.1968C16.6707 17.1432 16.7353 17.1014 16.7665 17.0649C17.1974 16.5593 17.5839 16.0208 17.9397 15.4593C18.0875 15.2262 18.2282 14.9887 18.296 14.7161C18.3278 14.5885 18.3151 14.5363 18.1543 14.5733C17.5125 14.7214 16.8731 14.8828 16.2219 14.9868Z" fill="#0E4978"/>
<path fill-rule="evenodd" clip-rule="evenodd" d="M8.44629 20.0091C8.82883 20.2146 9.24165 20.2501 9.63428 20.356C10.0098 20.4572 10.3268 20.6353 10.5169 20.9932C10.5797 21.1115 10.6918 21.1245 10.7999 21.1359C11.2227 21.1809 11.6306 21.2639 11.9676 21.5524C12.0087 21.5876 12.044 21.5898 12.0888 21.5521C12.4166 21.276 12.8072 21.1732 13.2219 21.1449C13.3869 21.1337 13.4995 21.0657 13.5866 20.9169C13.7662 20.6103 14.06 20.4542 14.3883 20.3619C14.5788 20.3083 14.7732 20.2676 14.9672 20.2284C15.1912 20.1833 15.4087 20.1218 15.6453 19.9824C15.4979 20.4358 15.3331 20.8275 14.9405 21.0716C14.5202 21.3327 14.058 21.4287 13.5701 21.4206C13.1759 21.4142 12.7885 21.4449 12.4339 21.6428C12.3634 21.6821 12.2868 21.7156 12.2387 21.7918C12.4089 21.9805 12.5559 22.1848 12.6487 22.4235C12.6648 22.4647 12.704 22.5113 12.6668 22.5554C12.6278 22.6018 12.5693 22.5873 12.5187 22.5764C12.4143 22.5538 12.3491 22.4836 12.297 22.3921C12.0312 21.9244 12.0309 21.9255 11.7606 22.3838C11.7312 22.4336 11.6956 22.4831 11.6521 22.52C11.5822 22.5793 11.4841 22.6192 11.4095 22.5691C11.3269 22.5138 11.4076 22.4292 11.4325 22.3652C11.5037 22.1827 11.6131 22.0206 11.7456 21.8791C11.8291 21.79 11.802 21.7518 11.7147 21.6963C11.3812 21.4847 11.0121 21.4172 10.6278 21.4222C10.168 21.4283 9.72041 21.3848 9.29999 21.1753C8.85164 20.9517 8.49235 20.4727 8.44629 20.0091Z" fill="#0E4978"/>
<path fill-rule="evenodd" clip-rule="evenodd" d="M6.16896 3.41474C5.01007 4.09328 5.16244 4.0131 4.75168 5.10408C4.40978 4.30534 3.7747 3.98445 2.97656 3.8802C3.71109 3.55518 4.22144 3.05591 4.3374 2.18555C4.56216 2.54896 4.75124 2.87738 5.08596 3.07127C5.4125 3.26073 5.77954 3.32983 6.16896 3.41474Z" fill="#0E4978"/>
<path fill-rule="evenodd" clip-rule="evenodd" d="M18.0255 23.0913C17.2452 23.3934 15.9943 23.2453 15.2142 22.3498C15.0406 22.1506 14.8729 21.9474 14.7303 21.7241C14.6885 21.6587 14.669 21.6079 14.7801 21.6014C15.517 21.5583 16.2066 21.6909 16.8081 22.153C16.8587 22.1918 16.9037 22.2392 16.9466 22.287C17.4142 22.8104 17.4139 22.8107 18.0255 23.0913Z" fill="#0E4978"/>
<path fill-rule="evenodd" clip-rule="evenodd" d="M6.02539 23.0722C6.51161 22.9513 6.81387 22.6215 7.11555 22.2823C7.47309 21.8801 7.96399 21.7401 8.46542 21.6361C8.72981 21.5813 8.99873 21.5831 9.26765 21.6011C9.33536 21.6056 9.39283 21.6107 9.33916 21.6993C8.60376 22.9161 7.40421 23.5117 6.07145 23.1094C6.06663 23.1079 6.06283 23.1026 6.02539 23.0722Z" fill="#0E4978"/>
<path fill-rule="evenodd" clip-rule="evenodd" d="M4.06152 21.538C4.44451 21.4738 4.78932 21.3731 5.12054 21.2201C5.82231 20.8959 6.53358 20.9181 7.24661 21.182C7.43773 21.2527 7.43569 21.2613 7.28463 21.3968C6.45447 22.142 5.52765 22.3205 4.49715 21.88C4.33147 21.8091 4.17909 21.7136 4.06152 21.538Z" fill="#0E4978"/>
<path fill-rule="evenodd" clip-rule="evenodd" d="M16.6436 21.2497C17.345 20.963 18.0395 20.8639 18.7499 21.1489C19.1456 21.3075 19.5373 21.4756 19.9741 21.5317C19.9311 21.6692 19.8248 21.7333 19.7231 21.7957C18.7787 22.3752 17.3702 22.133 16.6436 21.2497Z" fill="#0E4978"/>
<path fill-rule="evenodd" clip-rule="evenodd" d="M5.62788 20.3968C4.99893 20.6715 4.38958 20.7028 3.76897 20.4868C3.59276 20.4253 3.42079 20.3513 3.26052 20.254C2.90708 20.0396 2.5279 19.895 2.08496 19.814C2.36266 19.6374 2.63772 19.5387 2.92477 19.4774C3.61031 19.3308 4.22565 19.5566 4.81965 19.8667C5.09749 20.0117 5.35033 20.1987 5.62788 20.3968Z" fill="#0E4978"/>
<path fill-rule="evenodd" clip-rule="evenodd" d="M21.9337 19.806C21.4624 19.8891 21.057 20.1158 20.6445 20.3306C19.9793 20.6772 19.2888 20.7264 18.5823 20.4623C18.5417 20.4471 18.4804 20.4479 18.4715 20.3937C18.4637 20.347 18.5169 20.3312 18.5482 20.3082C19.1045 19.8987 19.6985 19.5704 20.3881 19.4558C20.9478 19.3628 21.4515 19.527 21.9337 19.806Z" fill="#0E4978"/>
<path fill-rule="evenodd" clip-rule="evenodd" d="M17.8484 18.8634C17.9714 19.9978 17.4097 20.6992 16.5072 20.9548C16.3273 21.0058 16.1423 21.0255 15.9566 21.0458C15.8302 21.0595 15.8017 21.0072 15.8127 20.8972C15.8484 20.5403 16.0063 20.2485 16.272 20.014C16.4576 19.8501 16.6671 19.7202 16.8913 19.6221C17.242 19.4687 17.5374 19.2516 17.7621 18.9378C17.783 18.9087 17.7969 18.8609 17.8484 18.8634Z" fill="#0E4978"/>
<path fill-rule="evenodd" clip-rule="evenodd" d="M0.84668 16.8223C1.16123 17.0052 1.46451 17.0879 1.76429 17.1798C2.16906 17.3037 2.49413 17.5398 2.75296 17.8744C2.90036 18.0649 3.05084 18.2527 3.19751 18.4435C3.34433 18.6343 3.51629 18.7996 3.69865 18.9576C2.65791 18.7663 1.67947 18.4679 1.10185 17.4626C0.99452 17.2758 0.908243 17.0785 0.84668 16.8223Z" fill="#0E4978"/>
<path fill-rule="evenodd" clip-rule="evenodd" d="M6.21603 18.8262C6.47486 19.2603 6.86033 19.4834 7.27081 19.681C7.65189 19.8644 7.98106 20.1131 8.15112 20.5254C8.20538 20.6568 8.23755 20.7936 8.24179 20.937C8.24384 21.0099 8.21868 21.035 8.14133 21.0411C7.17108 21.1167 6.27511 20.3476 6.20185 19.3712C6.18913 19.2015 6.16178 19.0314 6.21603 18.8262Z" fill="#0E4978"/>
<path fill-rule="evenodd" clip-rule="evenodd" d="M23.1893 16.8301C23.0807 17.8524 21.624 18.9482 20.3613 18.941C20.8449 18.5659 21.1144 18.0297 21.5305 17.6223C21.7532 17.4044 22.0174 17.2636 22.3115 17.1733C22.6111 17.0813 22.9147 16.9992 23.1893 16.8301Z" fill="#0E4978"/>
<path fill-rule="evenodd" clip-rule="evenodd" d="M5.79553 20.042C5.47806 19.8414 5.16658 19.6352 4.91097 19.3577C4.64585 19.0699 4.53077 18.7177 4.49041 18.3337C4.44142 17.868 4.44478 17.3972 4.33496 16.8965C4.65433 17.1661 4.88567 17.4557 5.08089 17.7776C5.31223 18.1591 5.43784 18.5789 5.52514 19.0132C5.59446 19.3586 5.66392 19.704 5.79553 20.042Z" fill="#0F4978"/>
<path fill-rule="evenodd" clip-rule="evenodd" d="M19.7176 16.8945C19.5936 17.482 19.6322 18.0353 19.5262 18.5731C19.4444 18.988 19.2387 19.3256 18.9032 19.5805C18.6989 19.7357 18.493 19.8887 18.2471 20.0733C18.3224 19.8283 18.3971 19.6311 18.4419 19.4253C18.554 18.9099 18.6385 18.3855 18.8934 17.9129C19.0958 17.5376 19.3568 17.2122 19.7176 16.8945Z" fill="#0F4978"/>
<path fill-rule="evenodd" clip-rule="evenodd" d="M0.208246 14.2617C0.457572 14.4783 0.714795 14.6386 0.966168 14.8062C1.34228 15.0572 1.52755 15.4429 1.70917 15.8323C1.84853 16.1312 1.99155 16.4258 2.24409 16.6584C1.27135 16.746 0.165254 15.4539 0.208246 14.2617Z" fill="#0F4978"/>
<path fill-rule="evenodd" clip-rule="evenodd" d="M21.7705 16.6827C22.1719 16.3496 22.3113 15.8958 22.5153 15.4853C22.6619 15.1901 22.8694 14.9646 23.1303 14.7799C23.358 14.6187 23.5888 14.4622 23.8194 14.3027C24.0257 15.2805 22.9499 16.5553 21.7705 16.6827Z" fill="#0F4978"/>
<path fill-rule="evenodd" clip-rule="evenodd" d="M3.97806 18.5403C3.75828 18.4328 3.62257 18.2668 3.50778 18.0819C3.11061 17.4413 2.99407 16.7526 3.16019 16.0138C3.18797 15.8902 3.18972 15.7605 3.20566 15.6152C3.32323 15.6808 3.40147 15.7735 3.47283 15.8708C3.77889 16.2886 3.96373 16.7538 3.97616 17.2768C3.98581 17.6891 3.97806 18.1018 3.97806 18.5403Z" fill="#0E4978"/>
<path fill-rule="evenodd" clip-rule="evenodd" d="M23.9686 11.8359C24.1165 12.8645 23.7624 14.0657 22.5303 14.4557C22.7868 14.0306 22.7952 13.5479 22.9498 13.1077C23.058 12.7999 23.2146 12.5343 23.4511 12.3147C23.6178 12.1599 23.7849 12.0058 23.9686 11.8359Z" fill="#0F4978"/>
<path fill-rule="evenodd" clip-rule="evenodd" d="M1.53185 14.4609C0.434233 14.0871 -0.0514041 13.1435 0.0766954 11.834C0.501939 12.2265 0.969151 12.5592 1.11714 13.1572C1.17929 13.4081 1.25854 13.6544 1.30607 13.9096C1.34043 14.0949 1.41443 14.2685 1.53185 14.4609Z" fill="#0F4978"/>
<path fill-rule="evenodd" clip-rule="evenodd" d="M8.60547 23.4681C8.9165 22.9368 9.27784 22.4816 9.77328 22.1388C10.1918 21.849 10.634 21.8693 11.1037 21.9985C10.7703 22.1086 10.6312 22.4142 10.4247 22.6501C9.96967 23.1699 9.40258 23.4543 8.71207 23.4774C8.68487 23.4783 8.65738 23.4728 8.60547 23.4681Z" fill="#0F4978"/>
<path fill-rule="evenodd" clip-rule="evenodd" d="M20.0713 18.5374C20.1163 17.9714 20.0216 17.4285 20.1245 16.8931C20.2202 16.396 20.4455 15.9642 20.8261 15.6191C21.0062 16.4137 21.057 17.1887 20.6401 17.9279C20.4838 18.2053 20.3156 18.4077 20.0713 18.5374Z" fill="#0E4978"/>
<path fill-rule="evenodd" clip-rule="evenodd" d="M12.9268 21.9912C13.4039 21.8663 13.834 21.8557 14.2474 22.1203C14.7696 22.4546 15.1221 22.9359 15.4493 23.4713C15.1562 23.4967 14.8934 23.4386 14.6367 23.3497C14.1705 23.1883 13.8012 22.8923 13.5054 22.4983C13.2635 22.1764 13.2634 22.1766 12.9268 21.9912Z" fill="#0F4978"/>
<path fill-rule="evenodd" clip-rule="evenodd" d="M9.3512 1.92354C9.40121 1.30466 9.01502 0.964722 8.60938 0.607954C9.15394 0.604853 9.63534 0.483321 9.98367 0C10.0081 0.579306 10.2603 1.00356 10.7368 1.31721C10.1833 1.31514 9.69938 1.43195 9.3512 1.92354Z" fill="#833B64"/>
<path fill-rule="evenodd" clip-rule="evenodd" d="M22.8943 12.2841C22.6645 11.7605 22.5084 11.2516 22.7043 10.6868C22.8192 10.3554 22.9435 10.0252 23.0126 9.67773C23.5576 10.0592 23.4918 11.7287 22.8943 12.2841Z" fill="#0F4978"/>
<path fill-rule="evenodd" clip-rule="evenodd" d="M1.15459 12.2844C0.441271 11.628 0.605344 10.1265 1.04331 9.63672C1.11423 10.0635 1.29059 10.4486 1.39441 10.8563C1.52397 11.3644 1.36049 11.8166 1.15459 12.2844Z" fill="#0F4978"/>
<path fill-rule="evenodd" clip-rule="evenodd" d="M2.60731 16.4556C2.35447 16.2233 2.25737 15.949 2.20502 15.6505C2.14126 15.2876 2.19654 14.9349 2.29539 14.587C2.38576 14.2691 2.46297 13.9497 2.4482 13.6177C2.49354 13.5966 2.50333 13.6328 2.51606 13.6542C2.71917 13.9949 2.86716 14.3578 2.93062 14.7517C2.95505 14.9032 2.95402 15.0578 2.90723 15.2069C2.84405 15.4085 2.77489 15.6082 2.71259 15.81C2.65074 16.01 2.63099 16.2188 2.60731 16.4556Z" fill="#0F4978"/>
<path fill-rule="evenodd" clip-rule="evenodd" d="M21.5834 13.6172C21.5838 14.1138 21.7843 14.5658 21.8537 15.0423C21.9131 15.4498 21.863 15.8409 21.6595 16.2041C21.611 16.2909 21.5543 16.3725 21.4716 16.4304C21.4589 16.4233 21.4415 16.4185 21.4414 16.413C21.425 16.0131 21.2926 15.642 21.1637 15.2703C21.0682 14.9951 21.1094 14.7237 21.1891 14.4548C21.2773 14.1568 21.3971 13.873 21.5834 13.6172Z" fill="#0F4978"/>
<path fill-rule="evenodd" clip-rule="evenodd" d="M22.139 14.148C22.0861 13.7831 21.9802 13.4717 21.8324 13.1803C21.6622 12.8448 21.6535 12.5059 21.7417 12.1533C21.7995 11.9229 21.8553 11.6915 21.9883 11.4316C22.1484 12.1162 22.44 12.7215 22.4334 13.398C22.4306 13.6688 22.3487 13.9144 22.139 14.148Z" fill="#0F4978"/>
<path fill-rule="evenodd" clip-rule="evenodd" d="M2.07707 11.4336C2.25065 11.8488 2.35798 12.2309 2.37422 12.6358C2.37992 12.7741 2.33356 12.9016 2.28194 13.0272C2.13542 13.3836 1.96681 13.7321 1.91651 14.1578C1.65344 13.8545 1.59231 13.5301 1.62375 13.1808C1.66353 12.7371 1.82526 12.3233 1.94298 11.8988C1.98202 11.7577 2.02399 11.6174 2.07707 11.4336Z" fill="#0E4978"/>
<path fill-rule="evenodd" clip-rule="evenodd" d="M16.4348 30.5625C15.6061 30.5578 14.7773 30.5562 13.9484 30.5534C13.9442 30.5534 13.9398 30.5479 13.9237 30.537C14.3516 29.3722 14.7805 28.2042 15.2247 26.9947C15.6027 28.0228 15.9677 29.0154 16.3327 30.0079C16.3874 30.1567 16.4415 30.3059 16.4977 30.4543C16.5224 30.5194 16.5323 30.5631 16.4348 30.5625ZM17.9188 32.7158C17.1557 30.6916 16.3923 28.6673 15.6297 26.6428C15.4932 26.2808 15.4948 26.2853 15.1039 26.2832C14.989 26.2826 14.9421 26.3269 14.9039 26.4288C14.3776 27.8324 13.8475 29.2347 13.3183 30.6371C13.0383 31.3791 12.7581 32.121 12.4668 32.8927C12.6367 32.8927 12.783 32.8848 12.928 32.8952C13.0362 32.9032 13.0778 32.8573 13.1121 32.761C13.3 32.235 13.4967 31.7123 13.6849 31.1864C13.7191 31.0909 13.7589 31.0479 13.8695 31.0486C14.7749 31.054 15.6804 31.0541 16.5859 31.0485C16.6974 31.0478 16.7352 31.0928 16.7688 31.1873C16.9149 31.5971 17.0696 32.0039 17.2182 32.4128C17.4043 32.9248 17.4032 32.9254 17.9501 32.8874C17.9553 32.8871 17.9604 32.8837 17.977 32.8775C17.9577 32.8238 17.939 32.7696 17.9188 32.7158Z" fill="#1674A7"/>
</g>
<defs>
<clipPath id="clip0_34_1991">
<rect width="24" height="33" fill="white"/>
</clipPath>
</defs>
</svg>
