<svg width="165" height="33" fill="none" xmlns="http://www.w3.org/2000/svg"><g clip-path="url(#clip0_34_2127)" fill-rule="evenodd" clip-rule="evenodd"><path d="M143.534 27.549h-.228v5.206h.957V27.55h-.729zm-21.426.183h-.228v1.618a1.671 1.671 0 00-.928-.266c-1 0-1.724.825-1.724 1.87 0 1.045.724 1.87 1.724 1.87.408 0 .727-.123.98-.3v.223h.905v-5.015h-.729zm-1.923 3.23c0-.308.1-.54.246-.693a.784.784 0 01.58-.24c.408 0 .726.267.877.598v.683c-.151.317-.469.584-.877.584a.784.784 0 01-.58-.24c-.146-.153-.246-.385-.246-.693zm-10.823-3.115a.55.55 0 00-.387.152.563.563 0 00-.165.412.55.55 0 00.168.41.554.554 0 00.384.146.558.558 0 00.385-.146.55.55 0 00.167-.41.563.563 0 00-.166-.416.553.553 0 00-.386-.148zm-.243 1.328h-.228v3.58h.957v-3.58h-.729zm-13.756-.871v-.297l-.287.076-.486.13-.17.045v.917h-.56v.938h.56v1.475c0 .386.117.703.346.923.227.219.537.313.87.313.316 0 .638-.067.884-.16l.147-.056v-.982l-.317.134c-.18.075-.377.127-.574.127-.203 0-.29-.036-.331-.073-.035-.032-.082-.107-.082-.318v-1.383h1.193v-.938h-1.193v-.871zm-11.995.787c-.439 0-.9.145-1.254.457-.36.316-.595.79-.595 1.413 0 .618.226 1.088.58 1.402.35.31.805.453 1.246.453.405 0 .76-.074 1.078-.24l.123-.063v-1.064l-.347.211a1.57 1.57 0 01-.787.219c-.252 0-.489-.076-.659-.221-.164-.14-.285-.364-.285-.704 0-.351.126-.575.293-.715.174-.146.415-.218.666-.218.282 0 .544.087.716.23l.374.31V29.45l-.1-.068c-.306-.209-.679-.292-1.05-.292zm2.571.084h-.228v2.161c0 .428.13.807.393 1.081.264.276.638.422 1.08.422.324 0 .615-.103.848-.252v.168h.905v-3.58h-.949v2.252c-.181.262-.439.467-.745.467-.225 0-.356-.057-.433-.137-.08-.082-.142-.228-.142-.49v-2.092h-.729zm5.615-.084c-.31 0-.645.071-.91.25a1.03 1.03 0 00-.46.887c0 .358.158.613.384.793.213.17.487.273.727.352l.205.065c.167.052.308.096.424.152.162.077.168.127.168.15 0 .036-.008.05-.013.056a.15.15 0 01-.065.042c-.092.038-.243.056-.453.056-.34 0-.748-.106-1.003-.286l-.36-.255v1.065l.1.068c.328.224.827.345 1.285.345.345 0 .7-.06.977-.229a.979.979 0 00.482-.877.97.97 0 00-.384-.793c-.213-.17-.486-.27-.725-.346l-.195-.061a3.172 3.172 0 01-.43-.152c-.156-.076-.167-.127-.167-.16 0-.046.017-.084.091-.123a.792.792 0 01.351-.07c.322 0 .697.113.905.252l.355.239v-1.06l-.12-.065a2.51 2.51 0 00-1.17-.295zm7.788 0c-.92 0-1.827.66-1.827 1.87 0 1.211.907 1.87 1.827 1.87.457 0 .913-.161 1.255-.481.346-.323.564-.795.564-1.389 0-.593-.216-1.065-.561-1.388a1.836 1.836 0 00-1.258-.482zm-.87 1.87c0-.31.102-.535.252-.682a.862.862 0 01.618-.235c.253 0 .467.086.618.235.149.147.252.372.252.682 0 .31-.103.536-.252.683a.861.861 0 01-.618.235.862.862 0 01-.618-.235c-.15-.147-.252-.373-.252-.683zm4.133 1.558h-.228v-3.344h.906v.15a1.49 1.49 0 01.796-.234c.412 0 .757.147.992.41.273-.229.627-.41 1.056-.41.433 0 .785.163 1.025.447.235.279.345.654.345 1.057v2.152h-.957V30.58c0-.195-.054-.331-.129-.415a.436.436 0 00-.343-.136c-.26 0-.48.17-.63.349.007.07.011.143.011.218v2.152h-.957V30.58c0-.197-.053-.332-.127-.416-.07-.08-.18-.135-.345-.135-.293 0-.526.212-.686.414v2.305h-.729v-.228zm8.739-3.343h-.228v.906h1.434l-1.466 1.837-.049.063v.766h2.917v-.907h-1.628l1.46-1.838.05-.062v-.766h-2.49zm5.238-.085c-.831 0-1.724.643-1.716 1.863 0 .614.215 1.09.573 1.409.355.316.827.46 1.313.46.42 0 .853-.079 1.172-.258l.117-.065v-1.027l-.34.19a1.862 1.862 0 01-.876.224c-.271 0-.513-.063-.689-.181a.687.687 0 01-.251-.295h2.275l.038-.182c.102-.49.038-1.019-.228-1.433-.271-.424-.74-.705-1.388-.705zm.705 1.413h-1.423c.116-.31.412-.476.748-.476.31 0 .479.12.573.249a.636.636 0 01.102.227zm10.988-1.413c-.833 0-1.716.645-1.716 1.863 0 .614.215 1.09.574 1.409.354.316.826.46 1.312.46.42 0 .854-.079 1.172-.258l.117-.065v-1.027l-.34.19a1.858 1.858 0 01-.875.224c-.271 0-.514-.063-.69-.181a.685.685 0 01-.25-.295h2.274l.038-.182c.102-.49.038-1.019-.227-1.433-.272-.424-.741-.705-1.389-.705zm.705 1.413h-1.422c.115-.31.411-.476.747-.476.31 0 .479.12.573.249a.62.62 0 01.102.227zm1.999-1.329h-.449l.265.363 1.007 1.378-1.073 1.47-.265.362h1.142l.068-.097.691-.974.69.974.068.097h1.14l-.262-.362-1.067-1.47 1-1.379.263-.361h-1.14l-.068.096-.624.882-.625-.882-.068-.096h-.693zm5.6-.084a1.91 1.91 0 00-1.254.457c-.359.316-.595.79-.595 1.413 0 .618.227 1.088.58 1.402.349.31.806.453 1.247.453.404 0 .759-.074 1.077-.24l.123-.063v-1.064l-.346.211a1.571 1.571 0 01-.788.219 1.01 1.01 0 01-.658-.221c-.164-.14-.285-.364-.285-.704 0-.351.125-.575.293-.715.174-.146.414-.218.665-.218.275 0 .544.087.716.23l.374.31V29.45l-.1-.068c-.306-.209-.678-.292-1.049-.292zm3.861 0c-.832 0-1.725.643-1.717 1.863 0 .614.216 1.09.574 1.409.354.316.827.46 1.312.46.42 0 .854-.079 1.172-.258l.117-.065v-1.027l-.34.19a1.858 1.858 0 01-.875.224c-.271 0-.514-.063-.69-.181a.685.685 0 01-.25-.295h2.275l.037-.182c.102-.49.038-1.019-.227-1.433-.272-.424-.741-.705-1.388-.705zm.704 1.413h-1.422c.115-.31.412-.476.747-.476.311 0 .48.12.573.249a.62.62 0 01.102.227zm4.785-2.955h-.228v5.206h.957V27.55h-.729zm3.67 1.542c-.825 0-1.717.644-1.717 1.863 0 .614.215 1.09.574 1.409.354.316.827.46 1.312.46.421 0 .854-.079 1.173-.258l.116-.065v-1.027l-.34.19a1.858 1.858 0 01-.875.224c-.271 0-.514-.063-.69-.181a.685.685 0 01-.25-.295h2.275l.037-.182c.102-.49.039-1.019-.227-1.433-.272-.424-.74-.705-1.388-.705zm.712 1.413h-1.423c.116-.31.412-.476.747-.476.311 0 .48.12.574.249a.636.636 0 01.102.227zm3.898-1.413c-.327 0-.62.105-.855.257v-.173h-.905v3.572h.957v-2.252c.181-.261.438-.467.744-.467.185 0 .323.054.414.143.089.087.161.236.161.485v2.091h.957v-2.152c0-.436-.152-.815-.42-1.085a1.464 1.464 0 00-1.053-.419zm4.504 0c-.439 0-.9.145-1.254.457-.36.316-.595.79-.595 1.413 0 .618.227 1.088.58 1.402.349.31.805.453 1.247.453.404 0 .759-.074 1.077-.24l.123-.063v-1.064l-.347.211a1.568 1.568 0 01-.787.219 1.01 1.01 0 01-.658-.221c-.165-.14-.286-.364-.286-.704 0-.351.126-.575.294-.715.173-.146.414-.218.665-.218.275 0 .544.087.716.23l.374.31V29.45l-.1-.068c-.306-.209-.679-.292-1.049-.292zm3.853 0c-.825 0-1.716.644-1.716 1.863 0 .614.215 1.09.574 1.409.354.316.826.46 1.312.46.42 0 .854-.079 1.172-.258l.117-.065v-1.027l-.34.19a1.858 1.858 0 01-.875.224c-.271 0-.514-.063-.69-.181a.685.685 0 01-.25-.295h2.274l.038-.182c.102-.49.038-1.019-.227-1.433-.272-.424-.741-.705-1.389-.705zm.708 1.413h-1.425c.115-.31.411-.476.747-.476.311 0 .482.12.576.25a.608.608 0 01.102.226zm-38.52-10.906h1.282v-6.24c0-.557-.103-1.07-.302-1.52a3.978 3.978 0 00-.774-1.168 3.725 3.725 0 00-1.127-.802 3.418 3.418 0 00-1.466-.313c-1.275 0-2.284.55-3.021 1.65-.302-.49-.737-.887-1.289-1.192a3.663 3.663 0 00-1.754-.45c-1.017 0-1.886.374-2.608 1.122l-1.061-.863v9.776h1.267v-6.24c0-.748.243-1.352.73-1.802.486-.451 1.038-.68 1.672-.68.641 0 1.208.229 1.68.68.471.45.715 1.054.715 1.802v6.24h1.267v-6.24c0-.748.236-1.352.722-1.802.486-.451 1.039-.68 1.672-.68.641 0 1.201.229 1.68.68.479.45.715 1.054.715 1.802v6.24zM42.6 11.99c.708-.74 1.592-1.115 2.638-1.115 1.032 0 1.908.374 2.63 1.123.722.748 1.084 1.657 1.084 2.726 0 1.07-.361 1.978-1.084 2.727-.722.748-1.598 1.122-2.63 1.122-1.046 0-1.923-.366-2.638-1.107-.722-.74-1.075-1.657-1.075-2.742 0-1.084.36-1.993 1.075-2.734zm2.638 7.897c1.4 0 2.594-.535 3.596-1.604l1.385 1.322V9.83l-1.385 1.336c-.995-1.07-2.196-1.604-3.596-1.604-1.356 0-2.527.504-3.507 1.505-.987 1.008-1.481 2.222-1.481 3.658 0 1.405.494 2.612 1.481 3.636.987 1.015 2.151 1.527 3.507 1.527zm14-1.604h-4.149l4.03-8.462h-5.997v1.314h3.971l-4.037 8.462h6.181v-1.314zm4.09-1.405l5.51-5.071a3.533 3.533 0 00-2.424-.932c-1.046 0-1.923.374-2.637 1.115-.715.74-1.069 1.65-1.069 2.734 0 .78.206 1.497.62 2.154zm6.365-.36l1.105.643a4.999 4.999 0 01-1.797 1.97 4.672 4.672 0 01-2.587.756c-1.355 0-2.52-.512-3.507-1.527-.98-1.016-1.473-2.23-1.473-3.636 0-1.436.493-2.65 1.473-3.658.988-1 2.152-1.505 3.507-1.505a4.68 4.68 0 012.432.672c.759.45 1.348 1.016 1.76 1.696l-6.431 5.88c.648.512 1.392.764 2.24.764.707 0 1.348-.183 1.922-.55a3.759 3.759 0 001.356-1.504zm8.473-5.551l.575-1.169a3.094 3.094 0 00-1.238-.237c-1.046 0-1.923.382-2.63 1.146l-1.062-.886v9.776h1.268V13.38c0-.687.22-1.276.678-1.772.45-.496 1.031-.74 1.739-.74.265 0 .486.037.67.098zm11.133.458l-.995.817c-.751-.909-1.702-1.367-2.837-1.367-1.046 0-1.922.374-2.637 1.115-.715.74-1.076 1.65-1.076 2.734 0 1.085.361 2.001 1.076 2.742.715.74 1.591 1.107 2.638 1.107 1.12 0 2.048-.427 2.77-1.29l1.017.81a5.084 5.084 0 01-1.68 1.328 4.762 4.762 0 01-2.1.466c-1.349 0-2.52-.512-3.507-1.527-.988-1.024-1.474-2.23-1.474-3.636 0-1.436.494-2.65 1.474-3.658.987-1 2.151-1.505 3.507-1.505.78 0 1.503.16 2.144.481.64.314 1.2.78 1.68 1.383zm4.567.565c.708-.74 1.592-1.115 2.638-1.115 1.032 0 1.908.374 2.63 1.123.723.748 1.084 1.657 1.084 2.726 0 1.07-.361 1.978-1.084 2.727-.722.748-1.598 1.122-2.63 1.122-1.046 0-1.923-.366-2.638-1.107-.722-.74-1.075-1.657-1.075-2.742 0-1.084.36-1.993 1.075-2.734zm6.167-.924c-.972-1-2.144-1.505-3.529-1.505-1.348 0-2.52.504-3.507 1.505-.98 1.008-1.474 2.222-1.474 3.658 0 1.405.494 2.612 1.474 3.636.987 1.015 2.151 1.527 3.507 1.527 1.385 0 2.557-.512 3.529-1.527.973-1.024 1.452-2.23 1.452-3.636 0-1.436-.479-2.658-1.452-3.658zm5.004 6.453c.309.634.818.955 1.525.955.479 0 .877-.168 1.201-.504.324-.336.486-.748.486-1.245 0-.397-.11-.748-.339-1.061a1.529 1.529 0 00-.84-.611l-1.105-.337a2.606 2.606 0 01-1.341-.947 2.509 2.509 0 01-.508-1.542c0-.718.243-1.33.729-1.826a2.363 2.363 0 011.761-.756c.494 0 .951.145 1.371.428.427.29.729.672.913 1.146l-1.157.504c-.184-.512-.559-.764-1.127-.764-.353 0-.641.13-.877.382-.228.252-.346.55-.346.886 0 .634.302 1.046.899 1.222l1.105.336a2.743 2.743 0 011.533 1.077c.39.542.589 1.16.589 1.863 0 .573-.132 1.092-.39 1.558a3.047 3.047 0 01-1.061 1.1c-.45.267-.943.405-1.496.405a2.763 2.763 0 01-1.525-.443 3.173 3.173 0 01-1.105-1.207l1.105-.619zm29.052-6.644c-1.046 0-1.93.374-2.638 1.115-.714.74-1.075 1.65-1.075 2.734 0 1.085.361 2.001 1.075 2.742.715.74 1.592 1.107 2.638 1.107 1.032 0 1.908-.374 2.63-1.122.723-.749 1.084-1.658 1.084-2.727 0-1.07-.361-1.978-1.084-2.726-.722-.749-1.598-1.123-2.63-1.123zm0-1.314c1.385 0 2.557.504 3.529 1.505.966 1 1.452 2.222 1.452 3.658 0 1.405-.486 2.612-1.452 3.636-.972 1.015-2.144 1.527-3.529 1.527-1.356 0-2.52-.512-3.507-1.527-.98-1.024-1.474-2.23-1.474-3.636 0-1.436.494-2.65 1.474-3.658.98-1 2.151-1.505 3.507-1.505zm10.049 8.913c-.715 0-1.216-.32-1.525-.955l-1.105.62c.272.51.641.908 1.105 1.206.464.298.973.443 1.525.443.553 0 1.054-.138 1.496-.405a2.99 2.99 0 001.061-1.1c.258-.466.39-.985.39-1.558 0-.703-.199-1.321-.589-1.863a2.767 2.767 0 00-1.533-1.077l-1.105-.336c-.597-.176-.899-.588-.899-1.222 0-.336.118-.634.347-.886.235-.252.523-.382.876-.382.568 0 .943.252 1.128.764l1.156-.505a2.408 2.408 0 00-.913-1.145 2.411 2.411 0 00-1.371-.428c-.685 0-1.274.252-1.761.756-.486.497-.729 1.108-.729 1.826 0 .572.169 1.092.508 1.542.339.459.789.772 1.341.947l1.106.336c.338.1.618.298.839.611.229.314.339.665.339 1.062 0 .497-.162.909-.486 1.245a1.598 1.598 0 01-1.201.504z" fill="#79858D"/><path d="M19.893 3.2A52.896 52.896 0 007.618 17.85c4.569-6.194 10.433-11.311 17.153-14.931-.184-.13-.376-.26-.567-.39a1.006 1.006 0 01-.148-.1 9.134 9.134 0 01-.228-.14c-.076-.048-.151-.096-.229-.142l-.073-.042a13.223 13.223 0 00-.634-.347l-.044-.023A15.225 15.225 0 0015.782 0C7.066 0 0 7.324 0 16.36c0 .183.007.374.015.557.28-8.164 6.749-14.695 14.699-14.695 1.827 0 3.566.352 5.18.978zm9.918 5.675c-5.644 3.727-10.36 8.844-13.675 14.893a41.548 41.548 0 0112.57-10.998c.463 1.482.714 3.063.714 4.704 0 8.234-6.3 14.94-14.176 15.237.177.008.354.016.538.016 8.716 0 15.782-7.325 15.782-16.36 0-1.65-.236-3.238-.67-4.735a16.888 16.888 0 00-1.083-2.757zm-2.078-1.719a44.747 44.747 0 00-4.03 2.559c-2.624 1.825-5.026 3.979-7.229 6.354a45.092 45.092 0 00-3.124 3.72 47.063 47.063 0 00-2.763 4.04c-1.724 2.788-3.153 5.781-4.347 8.905.744-3.276 1.93-6.446 3.434-9.455a46.338 46.338 0 012.534-4.369 44.021 44.021 0 013.014-4.04c2.144-2.597 4.62-4.895 7.28-6.927a43.992 43.992 0 016.373-3.971c.368-.191.744-.382 1.12-.558.184-.1.39-.168.633-.115.11.015.231.075.36.138l.03.015c.148.084.295.176.48.36l.132.328c0 .245-.037.414-.072.57l-.009.04a1.505 1.505 0 01-.162.398.844.844 0 01-.472.397c-.36.16-.722.328-1.075.504-.715.351-1.415.718-2.107 1.107z" fill="#005CB9"/></g><defs><clipPath id="clip0_34_2127"><path fill="#fff" d="M0 0h165v33H0z"/></clipPath></defs></svg>