<svg width="31" height="30" fill="none" xmlns="http://www.w3.org/2000/svg"><g clip-path="url(#clip0_34_2046)"><path fill-rule="evenodd" clip-rule="evenodd" d="M26.16 10.313c.556 1.137.86 2.348.972 3.598.292 3.267-.577 6.205-2.694 8.739-2.093 2.505-4.788 3.964-8.062 4.291-3.996.4-7.423-.843-10.181-3.727-2.369-2.476-3.403-5.477-3.238-8.879.24-4.917 3.942-9.432 8.771-10.723 2.811-.752 5.553-.585 8.23.556.061.026.118.063.177.095.01.127-.086.134-.173.152-.721-.186-1.397-.512-2.133-.66-4.221-.85-7.941.079-11.077 3.061-1.943 1.848-3.084 4.114-3.424 6.752-.434 3.364.463 6.374 2.647 8.98 1.918 2.288 4.392 3.676 7.366 4.07 3.816.506 7.172-.526 9.977-3.186 2.055-1.949 3.235-4.34 3.523-7.128.19-1.836-.015-3.653-.71-5.39-.054-.137-.123-.271-.122-.425.017-.087.024-.182.15-.176z" fill="#0C9CD0"/><path fill-rule="evenodd" clip-rule="evenodd" d="M15.169 2.156c.221.107.206-.109.256-.2.302-.553.6-1.109.883-1.671.094-.186.21-.24.413-.226.206.015.274.12.32.293.167.62.346 1.236.514 1.856.03.112.165.281-.047.325-.158.033-.359.02-.44-.19-.057-.142-.01-.357-.206-.402-.235-.055-.481-.065-.723-.082-.043-.004-.12.039-.13.074-.144.53-.558.38-.918.366-.025-.074.011-.117.078-.143z" fill="#069BD0"/><mask id="mask0_34_2046" style="mask-type:alpha" maskUnits="userSpaceOnUse" x="12" y="0" width="4" height="3"><path fill-rule="evenodd" clip-rule="evenodd" d="M12.887 0h2.282v2.482h-2.282V0z" fill="#fff"/></mask><g mask="url(#mask0_34_2046)"><path fill-rule="evenodd" clip-rule="evenodd" d="M15.17 2.156l-.079.143c-.237.065-.426.037-.502-.237-.082-.294-.321-.242-.528-.21-.22.033-.515-.057-.588.286-.014.065-.028.133-.058.191-.096.185-.285.167-.43.128-.187-.05-.055-.196-.026-.292.18-.604.377-1.202.548-1.808.059-.206.148-.318.372-.351.261-.04.321.131.403.302.294.617.592 1.232.887 1.848z" fill="#069BD0"/></g><mask id="mask1_34_2046" style="mask-type:alpha" maskUnits="userSpaceOnUse" x="12" y="27" width="4" height="3"><path fill-rule="evenodd" clip-rule="evenodd" d="M12.812 27.738h2.227V30h-2.227v-2.262z" fill="#fff"/></mask><g mask="url(#mask1_34_2046)"><path fill-rule="evenodd" clip-rule="evenodd" d="M14.66 29.183c.028-.361.056-.723.087-1.083.01-.114-.02-.273.177-.24.152.026.113.143.103.255-.043.508-.07 1.017-.115 1.525-.013.139.071.34-.201.358-.259.017-.312-.137-.358-.337-.11-.463-.232-.923-.375-1.483-.233.524-.435.958-.619 1.399-.082.197-.184.336-.417.262-.218-.07-.099-.247-.09-.376.032-.482.075-.962.117-1.444.01-.126-.026-.3.189-.28.193.02.124.183.118.287-.014.281-.05.561-.076.841-.01.112-.136.253.08.306.169-.39.335-.782.508-1.171.046-.104.076-.235.248-.205.14.024.152.128.178.23l.313 1.236c.102.066.107-.024.132-.08z" fill="#0D9CD0"/></g><path fill-rule="evenodd" clip-rule="evenodd" d="M27.718 10.25c.368-.157.734-.32 1.106-.47.093-.037.213-.157.303.03.095.196-.084.197-.174.237-.494.22-.991.432-1.492.639-.088.036-.194.15-.288.028-.088-.114-.08-.239.01-.37.264-.389.517-.787.773-1.182.027-.042.074-.083 0-.169-.34.06-.645.263-.982.376-.118.04-.277.232-.374.023-.108-.235.15-.237.279-.296.405-.186.812-.37 1.229-.53.131-.05.28-.23.428-.074.182.19-.01.346-.105.496-.252.397-.513.788-.77 1.182l.057.08z" fill="#119CD0"/><path fill-rule="evenodd" clip-rule="evenodd" d="M26.856 7.935c-.054.387-.245.696-.398 1.048-.2-.12-.252-.256-.152-.464.105-.216.199-.44.275-.668.072-.214-.023-.411-.176-.547-.17-.153-.277.081-.42.12-.172.046-.335.384-.497.132-.153-.24.197-.288.337-.388.36-.26.755-.475 1.117-.735.215-.155.322-.101.434.105.095.177.22.338.328.509.177.28.35.572.071.879-.283.312-.6.24-.919.01z" fill="#0F9CD0"/><path fill-rule="evenodd" clip-rule="evenodd" d="M21.92 2.437c-.261.44-.46.785-.67 1.121-.064.1-.111.296-.293.179-.182-.116-.017-.239.042-.341.254-.444.517-.883.783-1.32.05-.085.076-.224.222-.193.14.03.185.139.193.272.018.322.04.644.062.965.015.226-.012.457.108.714.227-.378.439-.732.653-1.085.06-.098.1-.235.27-.125.158.101.04.184-.007.264-.272.465-.546.93-.827 1.39-.056.09-.076.255-.254.192-.152-.054-.177-.175-.184-.322-.023-.531-.059-1.061-.097-1.711z" fill="#129CD0"/><path fill-rule="evenodd" clip-rule="evenodd" d="M1.27 16.653l.823-.75c.168.21.12.354-.055.495a9.245 9.245 0 00-.515.454c-.185.174-.164.401-.09.6.084.23.28.036.42.063.18.034.474-.198.516.07.053.333-.302.194-.479.228-.424.08-.86.103-1.28.196-.286.064-.361-.023-.37-.284a3.704 3.704 0 00-.09-.636c-.07-.337-.026-.636.324-.775.351-.138.63 0 .795.34z" fill="#0D9CD0"/><path fill-rule="evenodd" clip-rule="evenodd" d="M2.034 11.871c-.503-.104-.9-.184-1.295-.27-.118-.025-.31.014-.259-.207.042-.181.19-.107.3-.085.517.1 1.033.202 1.548.31.098.022.24.015.257.15.019.15-.082.24-.222.295-.5.199-.999.402-1.563.629.405.17.781.18 1.132.284.134.04.394-.021.341.225-.043.2-.251.09-.38.066-.49-.09-.979-.197-1.468-.3-.1-.021-.23-.012-.244-.16-.013-.142.073-.216.199-.266.512-.205 1.023-.414 1.654-.67z" fill="#109CD0"/><path fill-rule="evenodd" clip-rule="evenodd" d="M27.768 19.302c.502.143.905.253 1.305.375.1.03.277.023.226.206-.046.169-.188.115-.303.082-.506-.145-1.012-.294-1.517-.441-.113-.033-.257-.031-.251-.204.005-.15.112-.192.237-.232.513-.16 1.024-.33 1.6-.516-.419-.208-.82-.257-1.191-.392-.113-.04-.305-.028-.24-.24.062-.207.204-.063.296-.04.51.133 1.017.277 1.52.43.088.026.241 0 .246.153.005.155-.09.238-.236.284-.527.163-1.053.332-1.692.535z" fill="#0D9CD0"/><path fill-rule="evenodd" clip-rule="evenodd" d="M18.61 29.527c-.509-.003-.819-.307-.955-.884-.129-.54.023-.939.431-1.137.87-.422 1.012-.358 1.259.563.031.117.079.23.099.348.048.286.318.65.142.828-.236.24-.67.237-.976.282z" fill="#0F9CD0"/><path fill-rule="evenodd" clip-rule="evenodd" d="M7.744 27.994c-.566-.005-1.053-.483-1.039-1.022.016-.607.555-1.174 1.117-1.175.573-.002 1.058.457 1.06 1.001 0 .614-.557 1.2-1.138 1.196zm21.202-10.368c-.66-.005-1.146-.45-1.144-1.049.002-.599.476-1.029 1.118-1.014.647.015 1.138.46 1.129 1.022-.01.612-.47 1.046-1.103 1.041zm-2.25-11.953c-.029.038-.056.084-.094.119-.088.082-.145.009-.199-.05-.182-.198-.375-.388-.54-.6-.157-.201-.266-.137-.42.004-.149.136-.252.23-.056.412.178.163.328.356.488.538.048.056.132.11.044.2-.084.085-.165.077-.243-.008-.172-.189-.354-.37-.513-.57-.154-.193-.265-.113-.38.028-.102.126-.377.193-.144.436.204.213.396.44.599.656.073.078.116.138.017.23-.107.098-.164.026-.23-.046-.281-.308-.56-.62-.849-.92-.107-.11-.07-.176.025-.26.433-.385.86-.776 1.294-1.161.077-.069.167-.158.276-.039.293.316.585.633.876.95.018.02.028.046.05.081z" fill="#119CD0"/><mask id="mask2_34_2046" style="mask-type:alpha" maskUnits="userSpaceOnUse" x="0" y="13" width="3" height="3"><path fill-rule="evenodd" clip-rule="evenodd" d="M0 13.63h2.212v2.072H0v-2.071z" fill="#fff"/></mask><g mask="url(#mask2_34_2046)"><path fill-rule="evenodd" clip-rule="evenodd" d="M0 14.676c-.002-.622.434-1.044 1.078-1.045.673 0 1.137.427 1.134 1.045-.004.588-.443 1.01-1.07 1.026-.669.017-1.14-.407-1.142-1.026z" fill="#0D9CD0"/></g><path fill-rule="evenodd" clip-rule="evenodd" d="M16.223 28.05l-.563.064c-.109.012-.228.036-.24-.127-.01-.133.086-.147.186-.155.391-.031.782-.062 1.172-.097.16-.014.251.027.266.21.042.533.092 1.066.155 1.598.026.224-.041.308-.275.317-.35.015-.699.067-1.048.103-.092.01-.199.044-.22-.098-.022-.153.082-.171.2-.181.256-.022.511-.071.766-.07.275.002.263-.153.245-.34-.018-.197-.06-.33-.32-.275-.236.048-.484.04-.726.066-.098.01-.16-.012-.167-.115-.008-.097.042-.146.14-.156.229-.023.457-.066.686-.068.233-.002.365-.056.304-.32-.045-.195-.005-.463-.358-.36-.063.018-.134.01-.201.015a.132.132 0 01-.002-.011zM2.517 20.754c.032.205.076.429.099.655.024.246-.052.463-.297.564-.265.11-.5.04-.696-.173-.278-.305-.362-.756-.175-1.034.062-.091.124-.247.271-.159.13.078.084.191.001.307-.198.278-.045.509.138.72.07.08.166.138.289.086.115-.05.166-.138.153-.256-.03-.252-.072-.503-.098-.755-.03-.295.057-.534.363-.642.297-.106.53.01.723.226.32.355.377.887.126 1.179-.075.087-.157.217-.297.1-.107-.091-.053-.177.029-.272.226-.262.135-.527-.037-.772-.094-.133-.22-.253-.41-.193-.2.063-.188.235-.182.419zM8.229 4.17c-.089-.032-.206-.046-.288-.108-.103-.076-.318-.13-.208-.315.104-.177.218-.025.332.038.256.145.748-.027.876-.296.05-.104.055-.207-.018-.304-.091-.12-.216-.152-.362-.12-.25.056-.49.156-.753.16-.23.005-.435-.035-.538-.273-.1-.234-.06-.445.105-.637.294-.345.835-.467 1.128-.248.072.053.183.109.118.22-.06.104-.153.133-.27.047-.281-.207-.513-.053-.73.123-.098.08-.149.201-.089.326.066.14.184.183.339.14.221-.06.445-.116.67-.165.264-.058.492.016.636.245a.59.59 0 01-.023.685c-.218.308-.551.416-.925.481z" fill="#119CD0"/><path fill-rule="evenodd" clip-rule="evenodd" d="M4.086 8.223c.013.719-.622 1.128-1.271.806-.338-.167-.66-.368-.985-.559-.085-.049-.227-.076-.152-.229.078-.157.186-.108.302-.04.327.19.656.374.984.56.298.17.546.123.723-.178.171-.29.127-.544-.168-.725-.333-.205-.674-.398-1.012-.594-.093-.054-.21-.09-.123-.236.076-.127.167-.102.272-.038.381.23.768.45 1.145.687a.595.595 0 01.285.546zm23.536 2.808c.578.065 1.13.124 1.68.191.13.016.265.024.322.192.064.185-.07.235-.175.312-.468.344-.933.691-1.406 1.028-.08.057-.182.227-.294.056-.09-.138-.008-.257.126-.331.256-.144.4-.3.305-.644-.09-.323-.186-.536-.57-.503-.135.012-.303-.038-.285-.213.026-.256.233.018.297-.088zm-.902 10.153c.284.083.426-.045.522-.3.095-.254.335-.495-.04-.721a.645.645 0 01-.169-.173c-.072-.098-.006-.192.053-.254.09-.093.135.024.184.074.435.444.867.89 1.302 1.334.09.093.151.177.076.317-.073.137-.179.136-.307.129-.555-.032-1.111-.053-1.665-.092-.13-.01-.36.029-.357-.138.004-.238.217-.227.402-.176z" fill="#159CD0"/><path fill-rule="evenodd" clip-rule="evenodd" d="M4.944 23.127l-2.011.483c-.115.028-.21.017-.282-.094a.22.22 0 010-.263c.356-.54.712-1.08 1.07-1.619.044-.066.096-.147.19-.069.133.11.11.23.012.353-.172.215-.299.4-.077.697.211.282.389.457.753.29.155-.07.297-.035.345.222z" fill="#119CD0"/><path fill-rule="evenodd" clip-rule="evenodd" d="M22.995 25.23c.136-.314.333-.23.504-.106.358.262.517-.06.748-.215.244-.165.193-.344.084-.548a1 1 0 01-.09-.223c-.028-.115.067-.178.146-.213.11-.048.122.068.148.134.232.585.457 1.172.691 1.756.047.116.042.198-.052.285-.08.072-.153.092-.254.044-.642-.307-1.285-.611-1.925-.915z" fill="#109CD0"/><path fill-rule="evenodd" clip-rule="evenodd" d="M2.722 9.612c.122-.006.245-.021.365-.014.092.006.248-.063.242.115-.004.137-.096.205-.246.207-.254.004-.517-.083-.647.298-.12.355-.194.63.192.844.13.073.159.189.067.302-.115.14-.184-.009-.25-.066-.45-.389-.893-.782-1.337-1.176-.088-.078-.182-.142-.13-.3.06-.184.196-.16.326-.162.472-.004.945-.001 1.418-.001v-.047z" fill="#139CD0"/><path fill-rule="evenodd" clip-rule="evenodd" d="M21.27 28.042c-.054.197.155.502-.117.637-.309.151-.432-.2-.61-.351-.357-.307-.687-.645-1.022-.978-.06-.06-.223-.123-.089-.239.088-.075.22-.116.317.02.024.032.064.053.085.086.236.376.506.17.797.076.305-.099.3-.286.26-.526a.6.6 0 01.008-.238c.021-.087.107-.125.188-.13.125-.008.101.102.106.173.028.48.051.963.077 1.47zM6.304 3.152c.065.014.146.024.223.05.096.03.246.04.218.181-.028.14-.14.177-.285.12-.339-.133-.583.01-.748.295-.206.357-.02.652.209.91.208.237.45.45.81.3.322-.133.513-.355.411-.723-.034-.125-.03-.214.103-.253.158-.046.169.077.2.182.147.502-.3 1.074-.88 1.122-.443.036-.985-.36-1.166-.853-.161-.44-.014-.874.396-1.162a.981.981 0 01.51-.169zM23.653 26.83c-.003.67-.737 1.18-1.29.89-.084-.043-.236-.071-.15-.224.061-.11.15-.13.271-.06.284.164.526.055.727-.155.2-.208.206-.455.09-.71-.096-.21-.212-.406-.403-.546-.215-.157-.443-.192-.684-.06-.234.129-.374.321-.34.589.02.149.053.281-.147.288-.188.007-.147-.174-.16-.272-.079-.606.692-1.142 1.293-.909.445.174.795.69.793 1.17z" fill="#0F9CD0"/><path fill-rule="evenodd" clip-rule="evenodd" d="M26.16 10.313c-.061.036-.07.095-.073.158-.195.014-.193-.161-.244-.268-1.079-2.223-2.676-3.97-4.835-5.209-.113-.064-.257-.109-.249-.281.029-.059.064-.104.14-.066 1.773.911 3.177 2.228 4.283 3.864.384.567.753 1.148.978 1.802z" fill="#269ED1"/><path fill-rule="evenodd" clip-rule="evenodd" d="M4.843 25.696c.092.064.149.099.199.14.144.122.294.238.427.371.196.198.328.17.515-.04.205-.23.058-.316-.095-.436a5.515 5.515 0 01-.339-.287c-.064-.06-.167-.117-.073-.229.084-.099.162-.058.244.006.209.16.39.482.628.44.2-.037.35-.345.52-.534.061-.068.123-.1.203-.028.078.07.125.137.038.236-.399.454-.797.91-1.192 1.366-.091.105-.178.103-.277.017l-.827-.71c-.051-.045-.1-.095-.06-.171.025-.046.056-.09.09-.141z" fill="#159CD0"/><path fill-rule="evenodd" clip-rule="evenodd" d="M11.74.531c-.037-.193.088-.217.235-.244.14-.026.229-.02.263.147.129.641.266 1.281.403 1.92.039.182-.07.238-.216.267-.122.024-.238.053-.274-.13-.132-.654-.273-1.307-.411-1.96z" fill="#0D9CD0"/><path fill-rule="evenodd" clip-rule="evenodd" d="M12.222 29.71c-.242-.008-.374-.081-.419-.292-.036-.17-.12-.328-.16-.497-.073-.304-.185-.349-.403-.102-.124.14-.292.242-.42.378-.137.143-.27.157-.465.022.14-.127.265-.26.41-.368.43-.319.818-.659.864-1.242.007-.099.045-.224.205-.18.12.033.146.117.096.217-.312.633 0 1.193.206 1.765.031.087.052.177.086.299z" fill="#189DD1"/><path fill-rule="evenodd" clip-rule="evenodd" d="M29.654 12.88c.012-.129-.13-.309.1-.33.222-.02.147.18.164.294.055.37.102.741.145 1.113.012.1.054.233-.1.262-.189.037-.2-.123-.19-.232.032-.393-.13-.467-.497-.387-.367.08-.75.085-1.125.128-.13.015-.288.091-.317-.117-.032-.23.177-.162.284-.178a11.21 11.21 0 011.165-.132c.31-.015.464-.11.371-.42z" fill="#1B9DD1"/><path fill-rule="evenodd" clip-rule="evenodd" d="M25.24 4.077c-.063.098-.084.148-.12.185-.065.068-.13.017-.17-.03-.408-.486-.625-.139-.865.182-.192.258-.408.499-.615.746-.067.082-.12.185-.257.083-.155-.116-.06-.197.02-.292.268-.319.518-.654.804-.955.204-.216.223-.362-.034-.542-.089-.062-.351-.11-.166-.31.163-.176.257.05.352.12.293.213.566.454.85.681.062.05.134.089.201.132z" fill="#179CD0"/><path fill-rule="evenodd" clip-rule="evenodd" d="M5.119 6.955c-.047.06-.081.119-.128.162-.085.077-.15.003-.21-.045-.337-.27-.68-.534-1.005-.82-.208-.183-.362-.251-.527.045-.055.097-.135.295-.3.175-.207-.15.02-.252.094-.35.229-.3.474-.588.71-.882.07-.085.127-.188.257-.086.138.11.031.209-.04.265-.378.297-.184.483.102.687.296.211.573.45.857.678.062.05.12.107.19.17z" fill="#169CD0"/><path fill-rule="evenodd" clip-rule="evenodd" d="M.62 18.596c.158.018.143.193.163.302.053.294.185.328.452.229.378-.14.772-.24 1.16-.35.115-.033.254-.16.335.05.09.236-.122.19-.226.225-.37.123-.74.256-1.121.341-.319.071-.438.195-.289.508.049.102.135.249-.026.311-.205.08-.2-.126-.236-.237-.126-.38-.233-.768-.359-1.149-.042-.128-.038-.206.146-.23z" fill="#179CD0"/><path fill-rule="evenodd" clip-rule="evenodd" d="M25.555 22.828c-.141-.047-.151-.136-.076-.248.188-.278.38-.554.563-.836.067-.104.136-.11.231-.048l1.49.976c.1.065.164.14.081.263-.1.15-.186.035-.266-.016-.342-.217-.7-.414-1.014-.666-.303-.245-.471-.174-.624.14-.058.12-.146.224-.222.335-.039.057-.085.104-.163.1z" fill="#169CD0"/><path fill-rule="evenodd" clip-rule="evenodd" d="M28.95 15.072h-.815c-.109-.001-.232.01-.22-.156.008-.119.085-.157.194-.157l1.792-.01c.11-.001.181.032.175.16-.005.129-.085.152-.19.152h-.937v.011z" fill="#229DD1"/><path fill-rule="evenodd" clip-rule="evenodd" d="M21.23 1.633l-.195.436c-.185.415-.371.83-.554 1.245-.05.117-.12.177-.248.11-.116-.06-.078-.147-.038-.238.242-.536.48-1.074.72-1.61.033-.07.065-.16.175-.111.07.03.154.055.14.168z" fill="#1D9DD1"/><path fill-rule="evenodd" clip-rule="evenodd" d="M4.512 4.492c.065.056.118.096.165.142.403.398.806.796 1.207 1.197.07.07.181.13.057.259-.116.118-.184.048-.265-.032-.411-.409-.824-.816-1.235-1.226-.054-.054-.138-.109-.079-.2.034-.053.094-.089.15-.14z" fill="#0C9CD0"/><path fill-rule="evenodd" clip-rule="evenodd" d="M10.694 2.16c-.073.214-.271.254-.419.26-.206.006-.212-.23-.227-.36-.024-.214.212-.233.345-.252.252-.037.163.252.301.351z" fill="#259ED1"/><path fill-rule="evenodd" clip-rule="evenodd" d="M19.324 1.78c-.088.104.008.365-.215.349-.127-.01-.41.053-.387-.212.011-.13-.047-.408.233-.37.126.016.351-.027.369.232z" fill="#279ED1"/><path fill-rule="evenodd" clip-rule="evenodd" d="M20.899 4.646l-.108.094c-.335-.007-.624-.108-.815-.401.063-.005.125-.012.16-.075.273.09.539.196.763.382z" fill="#41A3D4"/><path fill-rule="evenodd" clip-rule="evenodd" d="M13.28 29.173l-.106.267c-.056-.25-.078-.412.025-.573.046.097-.034.227.081.306z" fill="#87BCE0"/><path fill-rule="evenodd" clip-rule="evenodd" d="M14.659 29.182c.003.08.067.19-.057.216-.081.018-.076-.074-.075-.135l.132-.08z" fill="#97C3E3"/><path fill-rule="evenodd" clip-rule="evenodd" d="M19.975 4.339l.816.4c1.699.97 3.143 2.215 4.235 3.842.405.602.731 1.247 1.061 1.89.701 1.732 1.036 3.527.903 5.395-.217 3.057-1.452 5.652-3.698 7.75-2.521 2.356-5.55 3.404-8.997 3.223-5.527-.291-10.183-4.497-11.035-9.928-.992-6.318 3.292-12.273 9.635-13.387 2.383-.418 4.695-.178 6.926.768.05.021.103.031.154.047z" fill="#FEFEFE"/><path fill-rule="evenodd" clip-rule="evenodd" d="M16.241 1.43l.36-.711c.15.256.27.528.191.732-.06.158-.329-.005-.55-.02z" fill="#E7EFF7"/><path fill-rule="evenodd" clip-rule="evenodd" d="M13.916.623l.347.772c-.603.09-.603.09-.347-.772z" fill="#F0F4FA"/><path fill-rule="evenodd" clip-rule="evenodd" d="M27.618 7.536c-.035.173-.144.287-.355.278-.155-.006-.671-.57-.627-.724.063-.216.298-.28.483-.364.081-.037.504.64.499.81zM1.154 17.448c.009.338-.326.24-.47.218-.397-.061-.22-.428-.268-.666-.044-.218.034-.415.313-.406.295.01.338.225.425.854z" fill="#F8FAFC"/><path fill-rule="evenodd" clip-rule="evenodd" d="M18.567 29.258c-.363-.038-.511-.314-.591-.64-.083-.338-.112-.669.268-.872.505-.272.65-.212.793.33.04.155.083.309.122.464.14.56.019.712-.592.718zM7.87 26.06c.364.001.695.336.696.705.002.436-.44.949-.83.96-.382.011-.727-.337-.716-.723.013-.448.46-.942.85-.941z" fill="#FCFDFE"/><path fill-rule="evenodd" clip-rule="evenodd" d="M28.889 15.88c.545.011.884.3.874.743-.01.404-.346.698-.792.693-.506-.005-.916-.34-.906-.74.01-.423.346-.708.824-.697z" fill="#FDFDFE"/><path fill-rule="evenodd" clip-rule="evenodd" d="M1.124 15.383c-.526-.005-.862-.279-.868-.706-.007-.435.337-.73.842-.724.503.006.862.31.856.726-.007.41-.359.709-.83.704z" fill="#FCFDFE"/><path fill-rule="evenodd" clip-rule="evenodd" d="M29.223 11.48c-.106.2-.292.242-.415.359-.25.237-.366.152-.427-.158-.043-.222.009-.29.236-.25.191.032.389.033.606.05z" fill="#F4F7FB"/><path fill-rule="evenodd" clip-rule="evenodd" d="M28.316 21.297c-.267-.012-.441-.027-.615-.026-.309.002-.31-.118-.198-.365.127-.28.23-.26.398-.048.105.133.233.248.415.44z" fill="#F3F6FA"/><path fill-rule="evenodd" clip-rule="evenodd" d="M3.475 22.559c.16.162.398.37.318.488-.156.23-.511.133-.812.21.16-.225.32-.45.494-.698z" fill="#F0F5FA"/><path fill-rule="evenodd" clip-rule="evenodd" d="M24.933 25.832c-.242-.116-.405-.205-.576-.273-.268-.107-.232-.207-.045-.385.215-.205.315-.178.398.092.05.164.125.32.223.566z" fill="#F1F5FA"/><path fill-rule="evenodd" clip-rule="evenodd" d="M2.033 10.549l-.703-.61h.918c-.01.208-.105.38-.215.61z" fill="#EAF1F8"/><path fill-rule="evenodd" clip-rule="evenodd" d="M20.863 28.235c-.041-.035-.085-.067-.123-.104-.467-.455-.467-.455.174-.662.08.162.04.336.048.504.02.107.104.238-.1.262z" fill="#F5F8FB"/><path fill-rule="evenodd" clip-rule="evenodd" d="M20.862 28.234c.108-.059.076-.17.1-.261.079.11.106.24.035.347-.034.051-.103-.03-.135-.086z" fill="#BCD6EC"/><path fill-rule="evenodd" clip-rule="evenodd" d="M3.597 15.114c0-6.293 5.12-11.315 11.535-11.313 6.22.001 11.365 5.13 11.328 11.357-.037 6.253-5.068 11.257-11.454 11.275-6.298.019-11.41-5.08-11.41-11.32z" fill="#009BD0"/><path fill-rule="evenodd" clip-rule="evenodd" d="M23.405 17.373c-.536-.018-.764.224-.78.742-.135-.483-.422-.664-.925-.508.407-.528.407-.528.157-1.154.453.41.804.389 1.12-.068-.16.47-.125.817.428.988z" fill="#F7F9FC"/><path fill-rule="evenodd" clip-rule="evenodd" d="M14.222 15.094c.469-.211.621-.502.387-.98.352.28.68.529 1.09.03-.297.483-.175.802.308 1.044-.704.063-.704.063-.99.627-.025-.537-.25-.79-.795-.72z" fill="#F8FAFC"/><path fill-rule="evenodd" clip-rule="evenodd" d="M7.503 12.405c-.63-.06-.63-.06-.972.385-.153-.166.01-.428-.138-.545-.138-.109-.343-.135-.537-.204.112-.177.402-.125.475-.293.072-.167.042-.377.068-.705.253.555.58.607 1.029.316-.344.401-.355.74.075 1.046zm3.154-1.207c-.506-.271-.506-.271-1.009.018.033-.6.033-.6-.47-.994.588.116.838-.115.888-.624.11.498.388.702.927.53-.471.533-.471.533-.336 1.07z" fill="#F7F9FC"/><path fill-rule="evenodd" clip-rule="evenodd" d="M14.565 19.195c-.522.068-.654.368-.563.863-.258-.417-.566-.56-1.036-.284.396-.41.278-.731-.077-1.07.491.267.797.093 1.005-.403.1.675.1.675.671.894zm-2.829-6.459c.451-.339.508-.65.183-1.064.413.25.79.334 1.113-.158-.2.488-.086.799.44.977-.478.027-.837.13-.756.727-.236-.367-.379-.828-.98-.482z" fill="#F8FAFC"/><path fill-rule="evenodd" clip-rule="evenodd" d="M19.74 21.521c.054.492.363.553.781.54-.41.212-.534.497-.327.916-.297-.277-.582-.375-.93-.067.166-.398.055-.667-.319-.859.39.002.724-.037.796-.53z" fill="#F7F9FC"/></g><defs><clipPath id="clip0_34_2046"><path fill="#fff" d="M0 0h31v30H0z"/></clipPath></defs></svg>