<svg width="104" height="60" fill="none" xmlns="http://www.w3.org/2000/svg"><g clip-path="url(#clip0_10_980)"><path d="M60 30a30 30 0 10-60 0 30 30 0 0060 0z" fill="#1FABE3"/><path d="M42 42.337A18.295 18.295 0 0047.077 55 29.911 29.911 0 0057.92 41.355 29.816 29.816 0 0059.302 24a18.44 18.44 0 00-12.298 5.747A18.337 18.337 0 0042 42.337z" fill="#78B82E"/><path d="M18.536 47.468a3.95 3.95 0 00-1.215-2.351 3.483 3.483 0 00-2.309-.895 3.44 3.44 0 00-2.304.9 3.931 3.931 0 00-1.22 2.346 3.39 3.39 0 01.121-1.46c.146-.473.394-.905.725-1.267.34-.38.753-.683 1.214-.89a3.566 3.566 0 012.928 0c.461.207.875.51 1.214.89.33.363.576.795.723 1.267.146.471.188.97.123 1.46zM43.03 45.93a3.39 3.39 0 01.122-1.458c.147-.471.394-.903.724-1.265.34-.38.753-.684 1.214-.892a3.562 3.562 0 012.929 0 3.62 3.62 0 011.213.892 3.372 3.372 0 01.846 2.727 3.92 3.92 0 00-1.22-2.346 3.423 3.423 0 00-2.304-.895c-.85 0-1.67.318-2.304.895a3.945 3.945 0 00-1.22 2.347M36.118 4.703h3.038c.056 0 .11-.023.15-.063a.216.216 0 000-.303.209.209 0 00-.15-.063h-3.038a.208.208 0 00-.148.063.216.216 0 000 .303.21.21 0 00.148.063zm1.515 2.279h7.973a.214.214 0 00.132-.073.222.222 0 000-.286.214.214 0 00-.132-.074h-7.973a.214.214 0 00-.131.074.221.221 0 00.131.36zM36.17 8.834h4.898a.214.214 0 00.132-.074.222.222 0 000-.286.214.214 0 00-.132-.073H36.17a.214.214 0 00-.131.073.221.221 0 00.131.36zm8.104 22.318h10.853a.208.208 0 00.148-.063.216.216 0 00-.148-.365H44.274a.209.209 0 00-.148.062.216.216 0 000 .303c.039.04.093.063.148.063zm-2.318 2.532h6.697c.056 0 .11-.023.15-.063a.216.216 0 000-.303.209.209 0 00-.15-.062h-6.697a.209.209 0 00-.149.062.217.217 0 000 .303.21.21 0 00.149.063zm-9.072 16.768a.208.208 0 01-.148-.063.216.216 0 010-.302.208.208 0 01.148-.063h2.66c.038-.225.065-.453.08-.68h-2.235a.208.208 0 01-.149-.063.216.216 0 010-.303.208.208 0 01.15-.063h2.243c0-.114-.024-.447-.056-.685h-1.87a.209.209 0 01-.149-.063.216.216 0 010-.303.208.208 0 01.149-.063h1.79c-.042-.219-.084-.443-.136-.671h-1.63a.214.214 0 01-.132-.074.222.222 0 010-.285.214.214 0 01.131-.074h1.533a11.006 11.006 0 00-.159-.676h-1.547a.214.214 0 01-.13-.074.221.221 0 01.13-.36h1.435c-.056-.228-.117-.451-.173-.675h-1.43a.208.208 0 01-.149-.063.217.217 0 010-.303.208.208 0 01.15-.062h1.313a9.07 9.07 0 00-.103-.381c-.038-.124-.052-.2-.075-.3H33.22a.208.208 0 01-.149-.063.216.216 0 010-.303.208.208 0 01.149-.062h1.206a63.678 63.678 0 01-.16-.681h-1.2a.208.208 0 01-.149-.063.216.216 0 010-.303.208.208 0 01.149-.062h1.103a54.357 54.357 0 01-.131-.681h-1.155a.208.208 0 01-.148-.063.216.216 0 010-.303.208.208 0 01.148-.062h1.075c-.042-.238-.074-.476-.103-.676H32.73a.213.213 0 01-.131-.074.221.221 0 01.131-.36h1.075c-.2-1.836.051-2.46.051-2.46s-1.99.733-2.724 2.342c-.874 1.904-.042 7.525-3.482 6.81-2.889-.599-1.197-6.02-2.103-9.162-.907-3.14-4.235-4.107-4.235-4.107a7.678 7.678 0 01-.051 3.808h2.309c.055 0 .109.022.148.062a.216.216 0 010 .303.208.208 0 01-.148.063h-2.426c-.06.214-.126.443-.201.68h2.267c.055 0 .109.023.148.063a.216.216 0 010 .303.208.208 0 01-.148.063h-2.421c-.066.214-.131.438-.201.68h2.28c.056 0 .11.023.15.063a.216.216 0 010 .303.209.209 0 01-.15.063h-2.411c-.06.214-.122.438-.187.68h2.43c.056 0 .11.023.149.063a.216.216 0 01-.149.366h-2.547c-.06.214-.117.443-.177.676h2.556a.214.214 0 01.131.073.222.222 0 010 .286.214.214 0 01-.13.074h-2.66c-.052.224-.098.476-.14.676h2.63a.213.213 0 01.132.073.221.221 0 01-.131.36h-2.697c-.033.224-.06.447-.084.676h2.78a.213.213 0 01.132.073.221.221 0 01-.131.36H19.56c0 .224 0 .452-.028.676h3.01c.055 0 .109.022.148.063a.216.216 0 010 .302.208.208 0 01-.149.063h-3.014v.68h3.169c.055 0 .109.023.148.064a.217.217 0 010 .302.208.208 0 01-.148.063h-3.132c0 .233.033.476.056.68h3.43c.057 0 .11.023.15.063a.216.216 0 010 .303.208.208 0 01-.15.063h-3.383a11.079 11.079 0 001.112 4.526 8.134 8.134 0 003.006 2.804 7.958 7.958 0 003.968.952c3.771 0 6.921-2.38 7.697-5.512h-2.566z" fill="#fff"/><path d="M39.33 45.83a.213.213 0 01-.132-.073.221.221 0 01.131-.36h1.87c0-.214.023-.442.023-.675h-1.538a.209.209 0 01-.148-.063.216.216 0 010-.303.208.208 0 01.148-.063h1.529c0-.219 0-.447-.047-.68h-1.313a.209.209 0 01-.149-.063.217.217 0 010-.303.209.209 0 01.149-.063h1.266a13.528 13.528 0 00-.107-.68h-1.328a.208.208 0 01-.148-.063.216.216 0 010-.303.208.208 0 01.148-.063h1.244a7.117 7.117 0 00-.178-.68h-1.234a.208.208 0 01-.148-.063.217.217 0 010-.303.208.208 0 01.148-.063h1.099a15.106 15.106 0 00-.258-.68H39.18a.214.214 0 01-.132-.074.221.221 0 010-.286.214.214 0 01.132-.074h1.014a11.676 11.676 0 01-.248-.675h-.934a.208.208 0 01-.15-.063.216.216 0 010-.303.208.208 0 01.15-.063h.808a7.079 7.079 0 01-.145-.685h-.855a.209.209 0 01-.15-.063.216.216 0 010-.303.209.209 0 01.149-.063h.776a9.204 9.204 0 01.084-2.15s-3.921.846-4.931 7.229c.089.39.196.804.313 1.252v.043c.327 1.209.73 2.708.935 3.931.057.334.091.67.103 1.01v.047a6.918 6.918 0 01-1.14 3.707c2.425-.709 4.35-2.313 5-3.44a5.15 5.15 0 00.645-1.229H38.47a.208.208 0 01-.148-.062.217.217 0 010-.303.208.208 0 01.148-.063h2.286c.065-.205.13-.433.187-.68h-1.968a.208.208 0 01-.149-.063.216.216 0 010-.303.208.208 0 01.15-.063h2.056c.043-.224.076-.45.098-.676l-1.8.01zm14.24 1.385a3.483 3.483 0 00-1.672-1.489 3.405 3.405 0 00-2.217-.148 3.03 3.03 0 00-1.752 1.247 4.161 4.161 0 011.87-.719 3.677 3.677 0 011.869.257 3.688 3.688 0 011.486 1.157c.257.326.46.693.603 1.085l.224-.29a3.374 3.374 0 00-.383-1.1m-41.694-.105a3.419 3.419 0 00-2.215.145 3.497 3.497 0 00-1.678 1.479 3.322 3.322 0 00-.416 1.352l.196.214a4.07 4.07 0 01.664-1.266 3.682 3.682 0 011.488-1.164 3.613 3.613 0 011.858-.264 4.26 4.26 0 011.87.719 3.067 3.067 0 00-1.753-1.248" fill="#fff"/><path d="M70.326 6.735h-3.16v16.211h3.16V6.735zm8.118 0h3.024l5.945 16.211h-3.3l-1.08-3.246h-6.112l-1.075 3.246h-3.3l5.898-16.211zM82.1 16.963l-2.127-6.368h-.046l-2.108 6.368H82.1zm9.964 5.184a7.276 7.276 0 01-2.95-2.823 8.551 8.551 0 01-1.098-4.44 9.27 9.27 0 01.963-4.246 7.412 7.412 0 012.804-3.004 8.265 8.265 0 014.36-1.104 8.023 8.023 0 013.422.776 8.27 8.27 0 012.926 2.327l-2.309 2.01a6.204 6.204 0 00-1.818-1.481 4.53 4.53 0 00-2.22-.571 4.732 4.732 0 00-2.463.647 4.553 4.553 0 00-1.73 1.851 5.977 5.977 0 00-.626 2.794c-.023.928.18 1.847.589 2.675a4.597 4.597 0 001.701 1.847 4.94 4.94 0 004.744.105 5.715 5.715 0 001.795-1.495l2.309 2.028a8.217 8.217 0 01-2.716 2.227 7.776 7.776 0 01-3.631.833 8.72 8.72 0 01-4.067-.952M66.722 44.693h3.09a3.82 3.82 0 012.248.576c.27.202.485.47.626.78.14.31.201.65.177.99a2.47 2.47 0 01-.378 1.338 2.118 2.118 0 01-1.112.861v.029a2.523 2.523 0 011.402.814 2.68 2.68 0 01-.253 3.532 3.448 3.448 0 01-2.36.714h-3.44v-9.634zm3.076 4.136c.47.015.933-.118 1.327-.38a1.315 1.315 0 00.551-1.176c0-1-.7-1.495-2.103-1.495h-1.692v3.051h1.916zm.056 4.412a2.898 2.898 0 001.65-.414 1.373 1.373 0 00.612-1.213 1.557 1.557 0 00-.135-.706 1.528 1.528 0 00-.435-.565 2.61 2.61 0 00-1.641-.453h-2.024v3.332l1.973.02zm9.057-8.548h1.16l3.612 9.634H82.46l-.842-2.347h-4.206l-.837 2.347h-1.229l3.566-9.634zm2.337 6.254l-1.73-4.817h-.027l-1.72 4.817h3.477zm5.006-6.254h1.159v5.293h.023l4.305-5.293h1.481l-3.664 4.384 3.772 5.25h-1.454l-3.08-4.289h-.037l-1.346 1.628v2.66h-1.16v-9.633zm11.268 9.238a3.212 3.212 0 01-1.285-1.375 4.669 4.669 0 01-.468-2.151v-5.712h1.16v5.63a3.233 3.233 0 00.682 2.152 2.233 2.233 0 001.809.804c.343.013.684-.05 1-.187.316-.137.598-.343.827-.603a3.185 3.185 0 00.692-2.165v-5.631h1.192v5.712c.01.74-.15 1.471-.468 2.137a3.196 3.196 0 01-1.28 1.385 3.812 3.812 0 01-1.954.476 3.723 3.723 0 01-1.902-.476" fill="#6A6B6F"/><path d="M3.613 15.597A30.46 30.46 0 00.009 29.981a30.46 30.46 0 003.604 14.384 14.86 14.86 0 007.436-5.49 15.305 15.305 0 002.841-8.894 15.3 15.3 0 00-2.841-8.894 14.86 14.86 0 00-7.436-5.49z" fill="#EB5C64"/><path d="M14.526 15.893H6.011a.208.208 0 00-.15.062.216.216 0 000 .303c.04.04.094.063.15.063h8.515c.056 0 .11-.023.149-.063a.216.216 0 000-.303.208.208 0 00-.149-.063zm.145 4.497h-4.403a.208.208 0 00-.148.063.216.216 0 000 .303.21.21 0 00.148.063h4.403c.056 0 .11-.023.149-.063a.217.217 0 000-.303.208.208 0 00-.149-.063zm-4.057-2.046H2.309c-.061.142-.117.285-.173.428h8.478c.056 0 .11-.023.149-.063a.216.216 0 000-.303.208.208 0 00-.15-.062zm16.452 10.052a7.621 7.621 0 016.374 0c3.74-3.303-.612-13.35-2.257-17.444a.895.895 0 00-.316-.365.872.872 0 00-1.254.322c-5.272 10.995-4.562 15.645-2.547 17.478" fill="#fff"/><path d="M37.745 28.891a6.748 6.748 0 00-.808-2.537 8.918 8.918 0 00-1.477-2.032c0 1.842-.398 3.427-1.482 4.474.154.038.313.08.467.133.196.063.387.136.575.22.37.157.716.364 1.033.613.08.062.15.129.225.195l.205.22c.052.047.089.094.15.142.06.047.056.043.093.062l.112.057a.56.56 0 00.444-.005.562.562 0 00.122-.085.873.873 0 00.248-.386c.04-.12.07-.245.084-.371a3.197 3.197 0 000-.7" fill="#fff"/><path d="M30.22 20.495c-.308 0-.61-.091-.868-.266a1.583 1.583 0 01-.577-.712 1.617 1.617 0 01.335-1.734 1.54 1.54 0 012.403.239 1.61 1.61 0 01-.192 2.006 1.547 1.547 0 01-1.1.467z" fill="#1FABE3"/><path d="M24.948 24.422a8.976 8.976 0 00-1.402 1.932 6.83 6.83 0 00-.808 2.537 3.51 3.51 0 000 .7c.014.126.043.25.084.371.05.149.135.283.248.39l.121.081a.56.56 0 00.449.005.586.586 0 00.107-.057c.038 0 .061-.043.094-.062.032-.02.098-.095.15-.143l.205-.219c.075-.062.145-.133.224-.195a4.55 4.55 0 011.038-.614 5.774 5.774 0 011-.338c-.883-.866-1.51-2.246-1.538-4.388" fill="#fff"/><path d="M32.828 31.042a1.692 1.692 0 01-.103.548 3.55 3.55 0 01-.224.514 7.212 7.212 0 01-.598.952c-.224.301-.458.592-.701.87-.248.286-.496.558-.762.824l-.075.072-.089-.072a14.119 14.119 0 01-1.13-1.061 8.348 8.348 0 01-.987-1.223 4.252 4.252 0 01-.374-.729 2.89 2.89 0 01-.116-.418v-.438c.035-.57.251-1.11.616-1.543a3.16 3.16 0 01.29-.3c.105-.088.216-.169.332-.242.233-.144.487-.249.753-.31a2.5 2.5 0 011.56.124 2.632 2.632 0 011.622 2.447" fill="#FEFEFF"/><path d="M74.046 37.31v2.219h-7.87l-.033-1.59 3.739-4.046c.967-1.051 1.617-1.904 1.617-2.855a1.63 1.63 0 00-.456-1.187 1.573 1.573 0 00-1.161-.474 2.347 2.347 0 00-1.226.365 2.406 2.406 0 00-.863.958l-1.72-1.252a4.357 4.357 0 011.67-1.753 4.252 4.252 0 012.33-.575c2.006 0 3.833 1.362 3.833 3.651 0 1.395-.44 2.485-2.005 4.131l-2.28 2.38v.029h4.425zm1.617-3.935c0-3.756 1.776-6.297 4.674-6.297 2.804 0 4.706 2.327 4.706 6.297 0 3.76-1.776 6.278-4.706 6.278-2.776 0-4.674-2.304-4.674-6.278zm6.955 0c0-2.485-.823-4.022-2.248-4.022-1.426 0-2.267 1.428-2.267 4.022 0 2.47.846 4.026 2.267 4.026 1.42 0 2.248-1.428 2.248-4.026zm11.843 3.935v2.219h-7.87l-.033-1.59 3.739-4.046c.967-1.051 1.617-1.904 1.617-2.855a1.632 1.632 0 00-.456-1.187 1.573 1.573 0 00-1.161-.474 2.342 2.342 0 00-1.226.364 2.402 2.402 0 00-.864.959l-1.724-1.252a4.374 4.374 0 011.675-1.784 4.265 4.265 0 012.354-.586c2.005 0 3.832 1.36 3.832 3.65 0 1.395-.44 2.485-2.005 4.132l-2.28 2.38v.07h4.402zM104 36.164c0 2.132-1.739 3.489-4.076 3.489-2.145 0-3.739-1.143-4.323-2.7l2.075-.875c.141.436.422.81.798 1.063.376.253.824.37 1.273.332.967 0 1.794-.61 1.794-1.647 0-.876-.668-1.628-1.986-1.628h-.879v-1.985h1.07c1.076 0 1.566-.642 1.566-1.451a1.517 1.517 0 00-.484-1.093 1.477 1.477 0 00-1.114-.388 1.842 1.842 0 00-1.026.247c-.311.18-.565.448-.731.772l-1.917-1.038c.566-1.27 1.95-2.184 3.74-2.184 2.145 0 3.883 1.18 3.883 3.293.004.56-.139 1.11-.414 1.595a3.12 3.12 0 01-1.151 1.161v.033a3.155 3.155 0 011.41 1.203c.342.535.518 1.163.506 1.8" fill="#64656A"/></g><defs><clipPath id="clip0_10_980"><path fill="#fff" d="M0 0h104v60H0z"/></clipPath></defs></svg>