<svg width="50" height="45" fill="none" xmlns="http://www.w3.org/2000/svg"><g clip-path="url(#clip0_34_2131)"><path fill-rule="evenodd" clip-rule="evenodd" d="M5.321 24.898c0-10.906 8.806-19.748 19.67-19.748 10.862 0 19.668 8.842 19.668 19.748 0 10.907-8.806 19.748-19.669 19.748-10.863 0-19.669-8.841-19.669-19.748zm4.304 18.967l.767-.43-.497-.41-.27.84zm-.315.737l-.37-.307.79-2.772.504.418-.18.577.79.653.525-.292.494.408-2.553 1.315zm-2.1-2.837c-.02.15.07.322.168.424.115.118.326.229.467.09.344-.335-.723-.99-.063-1.637.421-.412.95-.268 1.33.123.235.243.371.527.38.868l-.613.021a.65.65 0 00-.174-.538c-.133-.136-.345-.226-.478-.096-.346.339.702 1.044.073 1.66-.402.392-.952.248-1.313-.123-.208-.215-.351-.475-.366-.774l.59-.018zM6.088 40.67l.47.589-.4.323-1.304-1.632.4-.322.47.588 1.655-1.331.363.454-1.654 1.332zm-.971-2.28l-.186-.288c-.115-.18-.271-.408-.512-.252-.222.145-.127.368-.011.547l.206.32.503-.327zm-.6 1.084l-.554-.86c-.293-.455-.383-.939.132-1.274.31-.2.657-.19.915.087l.571-1.171.378.586-.585 1.039.155.241.884-.574.316.49-2.213 1.436zm-.077-4.448c-.215-.448-.677-.584-1.119-.37-.442.214-.623.662-.408 1.109.215.447.677.584 1.119.37.442-.214.623-.663.408-1.11zm-2.009.972c-.357-.742-.131-1.518.629-1.887.76-.368 1.505-.062 1.862.68.357.744.132 1.52-.628 1.889-.76.367-1.506.061-1.863-.681zm-.834-2.04l-.241-.753 1.399-1.633-.002-.007-1.742.562-.178-.554 2.507-.81.232.726-1.432 1.674.002.008 1.784-.577.178.555-2.507.81zm-.415-4.482l.862.169-.115-.636-.747.467zm-.713.358l-.086-.474 2.385-1.604.117.646-.508.325.183 1.01.588.116.114.632-2.793-.65zm1.147-4.541c.62-.034 1.102.321 1.142 1.052.04.735-.4 1.141-1.02 1.175l-1.616.09-.032-.583 1.594-.088c.323-.017.556-.255.539-.564-.017-.306-.274-.516-.598-.498l-1.593.088L0 25.383l1.616-.09zM.555 24.062l-.04.753-.512-.027.11-2.089.513.027-.04.754 2.117.113-.03.581-2.118-.112zm-.368-1.863l.073-.578 2.611.333-.073.578L.187 22.2zm1.196-2.886a.625.625 0 00-.315.445c-.09.431.192.823.672.926.48.102.897-.142.984-.555a.634.634 0 00-.164-.592l.454-.4c.26.281.325.677.25 1.03-.17.808-.823 1.284-1.649 1.108C.79 21.1.385 20.4.556 19.592c.061-.29.236-.634.563-.793l.264.514zm.693-2.058l.67.57.209-.612-.879.042zm-.797-.037l.155-.456 2.862-.233-.212.622-.601.034-.33.972.456.39-.207.607-2.123-1.936zm3.114-4.891l.527.706.34-.549-.867-.157zm-.769-.214l.253-.41 2.843.415-.345.559-.594-.101-.54.873.36.482-.338.546-1.639-2.364zm3.218-1.008l.19-.235c.339-.42.435-.866-.03-1.244-.402-.326-.85-.157-1.158.226l-.215.268 1.213.985zm-1.994-.87l.547-.68c.533-.661 1.26-.988 2.008-.38.662.537.58 1.369.087 1.981l-.596.74-2.046-1.662zm4.987-3.641l.302-.243c.16-.128.275-.312.121-.504-.17-.213-.408-.07-.582.07l-.232.188.391.489zm-1.15-.51l.763-.614c.426-.343.89-.491 1.28-.002.387.484.177.896-.255 1.244l-.33.267.641.804-.452.364-1.647-2.063zm3.119-1.371l.178.864.54-.353-.718-.511zm-.605-.522l.402-.263 2.396 1.588-.549.359-.494-.345-.857.56.12.59-.536.35-.482-2.84zm3.747-1.313a.619.619 0 00-.543.026c-.393.194-.526.659-.31 1.101.216.442.664.62 1.04.434a.631.631 0 00.364-.494l.592.111c-.06.379-.33.674-.653.833-.737.364-1.512.143-1.884-.617-.371-.761-.072-1.512.665-1.875.264-.13.642-.204.968-.045l-.24.526zm.764-1.082l1.683-.609.181.506-1.137.412.167.463 1.074-.388.181.506-1.074.388.181.506 1.2-.434.182.506-1.746.631-.892-2.487zm2.541-.894l.858-.185.954 1.558.008-.002.234-1.815.854-.185.555 2.585-.567.122-.425-1.982-.008.002-.25 2.128-.433.094-1.076-1.842-.008.002.426 1.982-.568.123-.554-2.585z" fill="#192E7B"/><mask id="mask0_34_2131" style="mask-type:alpha" maskUnits="userSpaceOnUse" x="24" y="0" width="3" height="3"><path fill-rule="evenodd" clip-rule="evenodd" d="M24.504 0h2.362v2.709h-2.362V0z" fill="#fff"/></mask><g mask="url(#mask0_34_2131)"><path fill-rule="evenodd" clip-rule="evenodd" d="M24.579 0l.58.017-.028.985 1.127.033.028-.986.58.016-.075 2.644-.58-.017.033-1.142-1.127-.032-.033 1.142-.58-.017L24.579 0z" fill="#192E7B"/></g><path fill-rule="evenodd" clip-rule="evenodd" d="M28.682 2.496c.488.08.865-.222.943-.708.08-.487-.182-.892-.67-.972-.488-.08-.865.221-.944.708-.079.486.183.892.671.972zm.358-2.21c.812.132 1.316.763 1.18 1.6-.136.835-.813 1.273-1.624 1.14-.811-.132-1.315-.763-1.18-1.6.137-.836.814-1.273 1.624-1.14zm2.186.48l.836.27.05 1.828.008.003 1.107-1.455.832.268-.806 2.517-.553-.178.619-1.93-.007-.003-1.277 1.718-.421-.136-.016-2.135-.007-.002-.619 1.93-.552-.178.806-2.517zM34.8 2.033l.531.235-1.063 2.418-.53-.235L34.8 2.033zm1.268.553l.688.386.084 2.153.006.003.894-1.603.506.284-1.286 2.308-.662-.372-.088-2.206-.006-.004-.915 1.643-.507-.285 1.286-2.307zM39.81 6.94c-.37.5-.951.644-1.536.207-.588-.44-.617-1.038-.246-1.538l.966-1.304.465.348-.952 1.285c-.193.26-.16.592.087.778.245.182.57.118.763-.142l.953-1.286.466.348-.966 1.304zm1.683-.72l.623.62-.776 1.654.005.005 1.642-.795.62.616-1.85 1.88-.412-.41 1.42-1.441-.006-.005-1.911.953-.315-.312.946-1.912-.005-.005-1.42 1.442-.412-.41 1.85-1.88zm1.807 5.11c.265.357.77.43 1.134.158a.813.813 0 00.173-1.135.806.806 0 00-1.134-.158.813.813 0 00-.173 1.136zm.539 1.624l-.955-1.284c-.491-.661-.45-1.45.229-1.96.638-.478 1.456-.308 1.923.321.467.629.393 1.466-.242 1.942-.298.223-.688.31-1.032.116l-.006.005.44.592-.357.268zm2.106 1.727c-.542.303-1.13.195-1.484-.444-.356-.643-.138-1.2.405-1.504l1.414-.79.282.51-1.394.778c-.283.158-.389.474-.239.745.148.267.471.343.754.185l1.394-.779.282.51-1.414.789zm1.785.01l.683 1.66-.494.205-.463-1.121-.453.188.437 1.06-.495.205-.437-1.059-.495.206.489 1.183-.495.205-.71-1.72 2.432-1.012zm.644 5.65l.071.382c.038.202.145.39.386.345.267-.05.253-.329.212-.549l-.055-.293-.614.115zm.99-.779l.18.966c.1.539.012 1.019-.602 1.134-.606.114-.87-.265-.973-.812l-.077-.418-1.01.19-.106-.573 2.588-.486zm-.598 3.287l.027.342c.016.213.045.487.33.465.263-.02.286-.262.27-.474l-.03-.38-.597.047zm1.042-.665l.079 1.02c.041.54-.109 1.008-.721 1.056-.367.028-.668-.147-.763-.514l-1.057.756-.053-.696 1.006-.632-.022-.287-1.05.082-.044-.58 2.625-.205zm-2.038 3.943c-.023.496.32.836.81.858.49.023.861-.286.883-.782.022-.496-.32-.837-.81-.859-.49-.022-.861.287-.884.783zm2.228.1c-.037.824-.602 1.4-1.445 1.363-.844-.038-1.356-.663-1.319-1.487.037-.825.603-1.4 1.446-1.363.843.038 1.355.663 1.318 1.487zm-3.064 4.107a2.373 2.373 0 01-.051-1.136c.146-.811.783-1.306 1.613-1.155.83.15 1.254.838 1.108 1.65-.074.411-.23.758-.52.975l-.366-.484c.19-.125.307-.297.36-.587.087-.488-.206-.872-.689-.96-.483-.087-.892.168-.98.657-.045.25-.008.446.031.563l.42.077.085-.467.526.096-.183 1.017-1.353-.246zm.98 1.49l-.1.328c-.063.204-.137.47.136.554.253.079.362-.137.424-.34l.112-.365-.572-.177zm1.212-.233l-.3.977c-.16.517-.471.897-1.057.715-.351-.109-.567-.383-.52-.759l-1.26.313.205-.668 1.167-.216.085-.274-1.005-.312.17-.556 2.516.78zm-.853 2.614l-.71 1.65-.491-.214.479-1.114-.45-.196-.454 1.053-.492-.213.453-1.053-.492-.213-.506 1.176-.492-.213.737-1.712 2.418 1.05zm-2.271 3.208c.15-.023.288-.16.358-.283.08-.144.125-.38-.047-.476-.42-.234-.74.98-1.547.53-.513-.288-.527-.84-.262-1.315.165-.297.398-.51.72-.615l.196.584a.645.645 0 00-.465.322c-.092.166-.117.396.046.487.422.236.796-.974 1.563-.545.49.275.51.846.258 1.3-.145.26-.353.474-.634.573l-.186-.562zm-1.278 1.969c.151-.01.303-.13.383-.248.093-.135.161-.365-.001-.477-.395-.274-.83.904-1.59.377-.483-.335-.444-.885-.135-1.334a1.25 1.25 0 01.776-.542l.138.6a.647.647 0 00-.493.276c-.107.157-.155.383-.002.489.398.276.886-.893 1.608-.392.463.32.428.891.134 1.318-.17.246-.397.438-.686.51l-.132-.577zm-2.824 1.91c-.468-.408-.567-.999-.09-1.551.48-.556 1.077-.54 1.545-.131l1.222 1.064-.38.44-1.205-1.05c-.244-.213-.576-.205-.777.029-.2.231-.161.562.083.774l1.204 1.05-.38.44-1.221-1.065zm.582 1.748l-.663.578-1.585-.902-.005.005.667 1.703-.66.576-1.727-1.995.438-.382 1.324 1.53.006-.005-.803-1.986.334-.291 1.828 1.091.005-.005-1.325-1.53.438-.382 1.728 1.995z" fill="#192E7B"/><path fill-rule="evenodd" clip-rule="evenodd" d="M23.006 18.026c.602.753 5.945-4.81 10.62-8.712-4.675 3.902-11.28 7.887-10.62 8.712zm14.167-3.672a.66.66 0 11-1.257.412.66.66 0 111.257-.412zm-10.384-5.47a.66.66 0 11-1.257.412.665.665 0 01.424-.837.66.66 0 01.833.425zm-9.661 1.474a.66.66 0 11-1.257.413.66.66 0 111.257-.413zm1.376 7.835a.661.661 0 11-1.257.412.66.66 0 111.257-.412zm-7.392 4.048a.66.66 0 11-1.257.412.661.661 0 111.257-.412zm18.552-6.602V38.22h3.213v-6.094h2.142v-2.509h-2.142v-8.244c1.202 1.817 1.856 3.337 2.142 5.018h2.5s-1.071-7.189-7.855-10.753zm-4.641 13.98h-2.5c.145-4.597 1.316-6.937 2.5-7.886v7.886zm-5.712 8.6l3.212.003v-6.094h2.5v6.086l3.213.008V16.715C18.24 20.3 19.529 31.5 19.31 38.218z" fill="#FEFEFE"/><path fill-rule="evenodd" clip-rule="evenodd" d="M14.669 38.223l3.213-.004s-1.071-14.693 3.927-18.994c-4.474 3.658-7.068 8.6-7.14 18.998z" fill="#FEFEFE"/></g><defs><clipPath id="clip0_34_2131"><path fill="#fff" d="M0 0h50v45H0z"/></clipPath></defs></svg>