<svg width="24" height="34" fill="none" xmlns="http://www.w3.org/2000/svg"><g clip-path="url(#clip0_34_2039)" fill-rule="evenodd" clip-rule="evenodd" fill="#454585"><path d="M13.115 29.688c-.427-.11-.867-.168-1.29-.29-.188-.055-.418-.157-.382-.435.036-.274.263-.354.482-.394.347-.063.697.008.93.27.199.227.415.183.628.143.149-.028.292-.075.449-.076.29-.003.282-.158.168-.359a1.46 1.46 0 00-.805-.675c-.627-.225-1.243-.171-1.884-.035a1.63 1.63 0 00-.903.541c-.318.357-.364.81-.167 1.249.213.473.639.671 1.123.743.492.073.988.124 1.452.32.173.073.334.157.328.387-.006.232-.19.308-.352.375-.551.23-1.287-.027-1.621-.562-.036-.057-.065-.093-.121-.083-.312.056-.627.104-.933.185-.132.036-.016.123.011.195.307.805.948 1.155 2.155 1.17.421-.042.948-.036 1.425-.336.476-.298.65-.688.561-1.206-.125-.727-.647-.972-1.254-1.127zm4.885.447c-.544.139-1.09.274-1.652.414-.006-.106-.015-.191-.015-.276l-.001-2.494c0-.12.025-.32-.171-.235-.24.104-.502-.008-.702.09-.165.082-.502-.108-.501.281.004 1.36.001 2.719.001 4.104.216-.067.398-.122.58-.18.81-.258 1.622-.51 2.43-.78.215-.071.373-.755.226-.908-.054-.056-.125-.033-.194-.016zm-9.515-2.353c-.294-.01-.314.11-.311.347.01 1.003.004 2.008.004 3.012 0 .64.001.639.644.803.172.045.342.101.558.165 0-1.185.007-2.318-.002-3.45-.008-1.008.17-.843-.893-.877zm-1.682-.245c-.255-.062-.51-.122-.767-.175-.202-.042-.255.041-.27.252-.03.446.117.87.101 1.315-.022.616-.005 1.234-.006 1.852 0 .141-.023.288.142.366.309.147.616.297.974.469l.001-3.826c0-.13-.046-.222-.175-.253z"/><path d="M22.993 25.095a9.932 9.932 0 01-2.28 4.469c-.938 1.07-2.083 1.805-3.37 2.377-.88.391-1.793.685-2.723.815-.887.124-1.792.248-2.7.209-1.676-.07-3.338-.188-4.94-.773-2.772-1.012-4.664-2.89-5.665-5.675-.26-.726-.389-1.478-.454-2.243-.026-.316.158-.568.276-.836.635-1.453 1.29-2.896 1.905-4.358.545-1.297 1.196-2.55 1.773-3.834C5.75 13.17 6.651 11.078 7.583 9 8.137 7.765 8.73 6.548 9.29 5.317c.562-1.23 1.103-2.472 1.663-3.704.15-.331.41-.573.778-.623.39-.054.611.198.787.513.568 1.016 1.067 2.065 1.561 3.118.787 1.677 1.61 3.337 2.4 5.012l2.696 5.79c.765 1.641 1.54 3.279 2.3 4.922.529 1.14 1.044 2.284 1.56 3.429.2.443.053.889-.042 1.32zm.888-1.367c-.738-1.592-1.524-3.16-2.24-4.763-.626-1.399-1.304-2.774-1.958-4.16-1.15-2.438-2.294-4.879-3.45-7.313-.557-1.172-1.157-2.324-1.697-3.503A86.277 86.277 0 0012.923.71c-.457-.896-1.653-.957-2.18-.101C9.99 1.833 9.49 3.188 8.866 4.48c-.251.52-.548 1.022-.755 1.56-.378.98-.841 1.922-1.27 2.88-.56 1.248-1.165 2.476-1.722 3.725-1.023 2.293-2.017 4.599-3.038 6.892a272.994 272.994 0 01-1.916 4.184c-.17.366-.2.756-.126 1.119.266 1.288.629 2.542 1.289 3.7.743 1.306 1.712 2.39 2.952 3.222a10.698 10.698 0 003.986 1.649c1.189.229 2.37.435 3.63.41 1.125.041 2.28-.12 3.425-.346 1.305-.258 2.548-.703 3.697-1.381 1.125-.664 2.113-1.503 2.884-2.559a11.227 11.227 0 001.926-4.236c.112-.51.296-1.05.054-1.571z"/><path d="M17.866 21.229c-.08-.008-.158-.075-.151-.168a.17.17 0 01.16-.16c.103-.006.083.084.09.149-.015.072.036.191-.1.178zm-2.306-8.091c-.529.057-.992.565-1.032 1.103-.053.711-.125 1.421-.19 2.162-.213-.352-.133-.733-.23-1.078-.05-.177.05-.39-.217-.494-.085-.033-.116-.207.114-.195.06.003-.096-.814-.205-.91-.085-.074-.197-.133-.214-.255-.05-.36-.342-.37-.597-.416-.27-.05-.546-.07-.82-.134.356-.059.716-.09 1.065-.106.39-.018.505-.345.75-.509.111-.075.07-.392.107-.6.095-.536.14-1.082.223-1.625.082.573.213 1.139.216 1.72.004.7.298.937.985 1.017.31.036.678-.046.969.213-.316.037-.62.073-.924.107zm-.591 4.22c-.005-.086.07-.152.154-.163.096-.012.134.077.177.145a.18.18 0 01-.14.182c-.107.023-.186-.06-.191-.163zm.14 3.677c-.67-.055-.882.439-1.195.805-.19.223-.087.567-.14.854-.142.786-.206 1.587-.31 2.45-.184-.707-.213-1.372-.307-2.026-.056-.386-.117-.772-.171-1.158-.016-.112-.086-.158-.179-.21-.094-.052-.232-.148-.234-.227-.014-.628-.523-.536-.888-.618-.269-.06-.555-.042-.841-.108.29-.101.607-.132.894-.142.505-.017.878-.232 1.224-.555.306-.285.193-.689.266-1.033.121-.575.149-1.17.216-1.756l.054-.008c.115.839.243 1.676.34 2.517.042.364.445.785.811.82.514.05 1.025.129 1.536.195-.335.183-.745.228-1.076.2zm-4.705-7.707a12.493 12.493 0 01-.307 2.129c-.074-.827-.14-1.54-.2-2.256-.02-.244-.16-.428-.253-.64-.315-.713-.933-.621-1.521-.652.244-.08.473-.165.73-.154.579.022 1.21-.543 1.138-1.179-.054-.484.058-.968.213-1.44.097.677.162 1.362.307 2.029.067.304.226.598.67.609.415.01.832.094 1.256.127-.259.039-.516.098-.776.113-.806.044-1.204.475-1.257 1.315zm-2.539 7.748c-.398.097-.543.486-.617.823-.179.82-.294 1.653-.318 2.504-.181-.323-.144-.692-.202-1.036-.087-.512-.128-1.032-.176-1.55-.01-.111-.107-.116-.141-.17-.35-.55-.777-.935-1.523-.796.33-.164.658-.138.968-.205.329-.072.743-.487.783-.824a39.93 39.93 0 01.298-1.989c.076.72.146 1.44.295 2.148.094.449.368.73.818.735.38.003.74.15 1.125.156-.437.065-.882.099-1.31.204zM5.94 23.172c-.524.167-.702.35-.765.9-.019.167.01.33-.064.502-.062.143-.013.334-.013.559-.26-.37-.201-.758-.224-1.096-.025-.351-.275-.516-.37-.785-.06-.169-.177-.1-.276-.115-.143-.023-.326.069-.41-.174.136 0 .264.009.39-.001.472-.038.695-.277.71-.747.01-.28.136-.547.15-.84.035.26.091.518.103.779.029.623.238.81 1.05.895.097.01.193.011.336.02-.224.134-.425.041-.617.103zm4.66-15.72c.923-.097 1.098-.317 1.174-1.118.031-.337.152-.662.137-1.012.184.345.172.732.207 1.1.039.41.104.814.488.998.25.12.576.083.868.115.12.013.265-.048.343.146-.22.07-.454.001-.674.099-.19.084-.442-.058-.62.172a1.89 1.89 0 00-.398 1.064c-.03.437-.117.87-.09 1.312.005.086-.062.177-.123.332-.106-.762-.2-1.454-.3-2.146-.046-.314-.572-.774-.881-.811-.262-.032-.518-.109-.788-.128.22-.042.437-.1.658-.123zm9.588 12.39c-.75-1.662-1.532-3.31-2.31-4.959-.968-2.052-1.95-4.099-2.918-6.151-.95-2.014-1.89-4.032-2.835-6.048-.065-.138-.147-.3-.302-.297-.124.002-.216.141-.28.269-.5.986-.943 1.998-1.426 2.992-.773 1.59-1.467 3.218-2.197 4.829-.85 1.875-1.703 3.749-2.557 5.622-1.071 2.35-2.117 4.71-3.059 7.114-.184.472-.35.932-.038 1.432.477.766 1.221 1.164 2.002 1.501 1.42.614 2.945.781 4.458.937.957.098 1.926.18 2.747.097 1.24.02 2.325-.025 3.412-.156.859-.103 1.723-.167 2.57-.357 1.356-.303 2.651-.744 3.748-1.654.456-.38.732-1.064.529-1.554-.504-1.21-1.004-2.423-1.544-3.618z"/></g><defs><clipPath id="clip0_34_2039"><path fill="#fff" d="M0 0h24v34H0z"/></clipPath></defs></svg>