<svg width="24" height="33" fill="none" xmlns="http://www.w3.org/2000/svg"><g clip-path="url(#clip0_34_1991)"><path fill-rule="evenodd" clip-rule="evenodd" d="M13.588 15.127c-1.237-.061-2.458-.228-3.644-.606a10.42 10.42 0 01-2.064-.898.504.504 0 01-.197-.065 45.992 45.992 0 01-.758-.473.41.41 0 01-.16-.157c-.644-.452-1.26-.936-1.764-1.55-.278-.34-.5-.71-.616-1.138a1.395 1.395 0 01-.007-.751c.18-.647.408-1.276.718-1.872.07-.134.124-.315.316-.318.198-.003.264.173.34.315a12.629 12.629 0 001.851 2.627c.123.132.236.277.387.381.241.122.416.331.627.494.203.155.4.32.605.472a11.134 11.134 0 004.405 1.95c.089.02.19.018.245.114.036.094.005.186-.007.278-.042.319-.095.636-.165.95-.02.088-.022.19-.111.247z" fill="#0E4877"/><path fill-rule="evenodd" clip-rule="evenodd" d="M9.18 11.61c-.407-.317-.82-.627-1.19-.989.577-.882 1.214-1.716 1.964-2.459a10.946 10.946 0 012.177-1.685c.05-.029.096-.064.144-.097a.183.183 0 01.087-.083c.302-.152.602-.307.905-.457.037-.019.078-.021.117-.029.543-.214 1.076-.451 1.646-.589.625-.152 1.25-.224 1.88-.02.217.07.404.186.556.355.407.454.813.91 1.15 1.423.074.112.145.23.197.353.067.158-.007.287-.174.314-.12.019-.244.025-.366.02a12.168 12.168 0 00-3.332.338c-.056.013-.108.039-.163.059-.036.064-.105.068-.164.087-.415.136-.824.287-1.228.451a13.025 13.025 0 00-2.895 1.766c-.448.362-.846.776-1.239 1.194a.183.183 0 01-.072.049z" fill="#1674A7"/><path fill-rule="evenodd" clip-rule="evenodd" d="M13.347 8.575c.468-.196.94-.383 1.431-.51a13.719 13.719 0 011.404 4.543c.041.333.044.67.067 1.005.003.055-.02.125.064.144-.053.22-.032.446-.032.669 0 .19-.021.376-.059.561-.093.276-.084.567-.133.85-.118.693-.274 1.372-.612 1.996-.336.62-.816 1.006-1.534 1.085-.556.062-1.1.215-1.665.197-.366-.011-.458-.165-.267-.483.43-.715.84-1.44 1.149-2.219.166-.42.31-.849.428-1.286.12-.494.219-.992.256-1.5-.05-.11-.014-.221-.006-.33.025-.335.069-.67.058-1.004-.04-1.18-.157-2.35-.532-3.48-.025-.076-.061-.154-.017-.238z" fill="#833A64"/><path fill-rule="evenodd" clip-rule="evenodd" d="M11.116 30.967c0 .33-.007.661.003.991a.397.397 0 01-.13.31c-.282.293-.632.457-1.013.566-.594.169-1.197.227-1.799.08-.992-.244-1.606-.909-1.848-1.882a6.011 6.011 0 01.016-3.009c.344-1.3 1.41-1.94 2.737-1.806.424.043.823.16 1.177.411.487.347.734.84.846 1.415.017.088-.014.116-.1.112-.134-.006-.281.032-.4-.012-.136-.05-.1-.231-.143-.352-.22-.615-.655-.961-1.282-1.065-.645-.106-1.247-.014-1.744.46-.368.35-.565.8-.625 1.294-.092.762-.128 1.533.03 2.289.173.835.626 1.468 1.491 1.673a2.698 2.698 0 001.92-.258c.212-.112.327-.26.31-.53-.027-.418-.014-.838-.004-1.257.003-.137-.04-.165-.168-.163-.484.007-.97 0-1.454.005-.112.002-.15-.026-.149-.145.002-.338-.003-.338.328-.338.607 0 1.215.005 1.822-.004.15-.002.186.045.182.189-.01.342-.003.684-.003 1.026z" fill="#1674A7"/><mask id="mask0_34_1991" style="mask-type:alpha" maskUnits="userSpaceOnUse" x="0" y="26" width="5" height="7"><path fill-rule="evenodd" clip-rule="evenodd" d="M0 26.197h4.737V33H0v-6.802z" fill="#fff"/></mask><g mask="url(#mask0_34_1991)"><path fill-rule="evenodd" clip-rule="evenodd" d="M2.424 26.199c.741.017 1.405.217 1.887.832.232.295.345.637.379 1.01.009.098-.003.155-.124.144-.133-.012-.288.035-.397-.018-.119-.058-.055-.234-.086-.356-.11-.426-.347-.756-.747-.925-.746-.314-1.488-.314-2.158.188-.553.414-.523 1.245.03 1.658.384.285.832.42 1.282.547.472.134.939.28 1.37.526.948.538 1.006 1.486.738 2.101a1.53 1.53 0 01-.853.823c-.982.398-1.952.366-2.88-.163-.531-.303-.797-.792-.862-1.4-.014-.129.028-.169.15-.159.123.01.264-.033.364.015.117.057.056.223.086.338.11.43.372.739.764.913.669.298 1.358.328 2.043.052.383-.154.659-.424.73-.856.08-.482-.067-.872-.478-1.146-.386-.257-.823-.384-1.26-.514-.493-.145-.984-.295-1.426-.571a1.524 1.524 0 01-.418-2.303c.361-.425.845-.614 1.377-.698.161-.026.324-.046.49-.038z" fill="#1674A7"/></g><path fill-rule="evenodd" clip-rule="evenodd" d="M19.101 29.556c-.019-.552.004-1.131.204-1.693.419-1.175 1.454-1.813 2.681-1.642 1.177.163 1.851.843 2.004 2.013.014.103-.001.139-.107.132-.14-.008-.302.037-.413-.021-.11-.058-.074-.243-.109-.37-.221-.818-.753-1.251-1.589-1.283-1.015-.039-1.75.492-1.983 1.523-.213.945-.221 1.912.027 2.854.199.753.661 1.286 1.466 1.413.42.065.84.024 1.235-.152.454-.2.689-.58.826-1.039.01-.034.015-.07.027-.102.041-.114-.006-.297.098-.337.138-.052.31-.017.467-.02.07 0 .066.042.06.095-.153 1.167-.854 1.908-2.023 2.039-.352.04-.7.035-1.042-.06-.961-.269-1.472-.96-1.72-1.893-.124-.467-.118-.945-.109-1.457zm.466-19.143c-.003.896-.838 1.518-1.728 1.287a1.794 1.794 0 01-1.355-1.537c-.119-.917.663-1.635 1.617-1.485.818.129 1.468.898 1.466 1.735z" fill="#1674A7"/><path fill-rule="evenodd" clip-rule="evenodd" d="M6.657 6.71c.005-.57.226-1.044.669-1.395.754-.6 1.806-.285 2.133.626.253.707.05 1.482-.518 1.973-.826.715-2.04.283-2.248-.8a1.541 1.541 0 01-.036-.404z" fill="#0E4877"/><path fill-rule="evenodd" clip-rule="evenodd" d="M9.96 15.502c.956-.002 1.554.437 1.69 1.1.111.534-.079.976-.456 1.34-.506.489-1.342.618-1.975.317a1.344 1.344 0 01-.479-2.07c.366-.466.85-.683 1.22-.687z" fill="#833A64"/><path fill-rule="evenodd" clip-rule="evenodd" d="M19.75 5.312c-.498-1.07-1.269-1.78-2.404-2.074.166-.071.332-.14.497-.213.17-.077.337-.16.507-.238.391-.179.69-.458.887-.844.141-.275.279-.553.428-.85.264.489.466 1.006.899 1.36.431.352.96.496 1.493.703-1.158.296-1.954.978-2.307 2.156zM6.764 12.928l1.115.694c-.102.006-.103.102-.134.164-.345.699-.561 1.444-.774 2.191a10.58 10.58 0 01-.146.49c-.058.172-.115.19-.273.098a1.381 1.381 0 01-.402-.388c-.752-1.017-1.317-2.123-1.575-3.374-.024-.115-.02-.235-.025-.352 0-.036-.012-.091.05-.094.043-.001.054.038.066.071.057.155.11.31.172.463.229.574.481 1.136.788 1.672.094.164.205.316.346.442.059.053.11.069.141-.03l.65-2.047z" fill="#1674A7"/><path fill-rule="evenodd" clip-rule="evenodd" d="M13.384 5.811l-1.11.569c-.477-.763-1.102-1.401-1.712-2.052-.08-.085-.156-.175-.234-.263-.085-.096-.056-.168.045-.227.186-.109.392-.154.601-.175 1.196-.122 2.377-.051 3.533.3.157.048.306.115.446.2.037.023.099.043.072.102-.02.044-.073.026-.11.02-.248-.04-.494-.092-.742-.124-.58-.073-1.16-.133-1.745-.124a1.52 1.52 0 00-.344.057c-.128.032-.149.078-.05.185.458.503.921 1.002 1.35 1.532z" fill="#833A64"/><path fill-rule="evenodd" clip-rule="evenodd" d="M16.222 14.987c-.067-.12 0-.24.002-.36.002-.241.007-.482.006-.723 0-.07.006-.127.083-.148.966-.064 1.888-.353 2.827-.557.185-.04.216-.012.216.18a1.4 1.4 0 01-.127.547c-.473 1.11-1.116 2.105-1.981 2.947a2.155 2.155 0 01-.39.298c-.042.026-.097.076-.14.026-.047-.054.017-.096.049-.132.43-.506.817-1.044 1.173-1.606.147-.233.288-.47.356-.743.032-.127.02-.18-.142-.143-.642.148-1.28.31-1.932.414zM8.446 20.01c.383.205.796.24 1.188.346.376.101.693.28.883.637.063.119.175.132.283.143.423.045.83.128 1.168.416.04.036.076.038.12 0 .329-.276.72-.379 1.134-.407a.42.42 0 00.365-.228c.18-.307.473-.463.801-.555.19-.054.385-.094.58-.134.223-.045.44-.106.677-.246-.147.454-.312.846-.704 1.09-.42.26-.883.357-1.37.349-.395-.007-.782.024-1.137.222-.07.04-.147.073-.195.149.17.188.317.393.41.631.016.042.055.088.018.132-.04.047-.098.032-.148.021-.105-.022-.17-.092-.222-.184-.266-.468-.266-.466-.536-.008-.03.05-.065.1-.109.136-.07.06-.168.1-.242.05-.083-.056-.002-.14.022-.205.072-.182.181-.344.314-.486.083-.089.056-.127-.031-.183-.334-.211-.703-.279-1.087-.274-.46.006-.908-.037-1.328-.247-.448-.223-.808-.702-.854-1.166zM6.169 3.415c-1.159.678-1.007.598-1.417 1.69-.342-.8-.977-1.12-1.775-1.225.734-.325 1.244-.824 1.36-1.694.225.363.414.691.749.885.326.19.694.259 1.083.344zm11.857 19.676c-.78.302-2.032.154-2.812-.741a5.319 5.319 0 01-.484-.626c-.042-.065-.061-.116.05-.123.737-.043 1.427.09 2.028.552.05.039.096.086.139.134.467.523.467.524 1.079.804zm-12.001-.019c.487-.12.789-.45 1.09-.79.358-.402.849-.542 1.35-.646a2.96 2.96 0 01.803-.035c.067.005.125.01.071.098-.735 1.217-1.935 1.813-3.268 1.41-.004-.001-.008-.006-.046-.037zm-1.963-1.534a4.096 4.096 0 001.059-.318c.701-.324 1.413-.302 2.126-.038.19.07.189.08.038.215-.83.745-1.757.924-2.788.483a.932.932 0 01-.435-.342zm12.582-.288c.701-.287 1.396-.386 2.106-.101.396.159.787.327 1.224.383-.043.137-.15.201-.25.264-.945.58-2.354.337-3.08-.546zm-11.016-.853c-.63.275-1.238.306-1.859.09a2.667 2.667 0 01-.508-.233 3.388 3.388 0 00-1.176-.44 2.5 2.5 0 01.84-.337c.685-.146 1.3.08 1.895.39.277.145.53.332.808.53zm16.306-.591c-.472.083-.877.31-1.29.525a2.44 2.44 0 01-2.062.131c-.04-.015-.102-.014-.11-.068-.008-.047.045-.063.076-.086.557-.41 1.15-.738 1.84-.852.56-.093 1.063.071 1.546.35zm-4.086-.943c.123 1.135-.438 1.836-1.34 2.092-.18.05-.366.07-.551.09-.127.014-.155-.038-.144-.148.035-.357.193-.648.459-.883.186-.164.395-.294.62-.392.35-.153.645-.37.87-.684.021-.03.035-.077.086-.075zM.847 16.822c.314.183.618.266.917.358.405.124.73.36.989.694.147.19.298.379.445.57.146.19.318.356.5.514-1.04-.192-2.019-.49-2.596-1.495a2.328 2.328 0 01-.255-.64zm5.369 2.004c.259.434.644.657 1.055.855.38.183.71.432.88.844.054.132.087.269.09.412.003.073-.022.098-.1.104-.97.076-1.866-.693-1.94-1.67-.012-.17-.04-.34.015-.545zM23.19 16.83c-.11 1.022-1.566 2.118-2.829 2.111.484-.375.753-.911 1.17-1.319.222-.218.486-.358.78-.449.3-.092.604-.174.878-.343z" fill="#0E4978"/><path fill-rule="evenodd" clip-rule="evenodd" d="M5.796 20.042c-.318-.2-.63-.407-.885-.684-.265-.288-.38-.64-.42-1.024-.05-.466-.046-.937-.156-1.438.32.27.55.56.746.882.231.381.357.8.444 1.235.07.346.139.691.27 1.029zm13.922-3.147c-.124.587-.086 1.14-.192 1.678a1.615 1.615 0 01-.623 1.008c-.204.155-.41.308-.656.492.075-.245.15-.442.195-.648.112-.515.197-1.04.451-1.512.203-.375.464-.7.825-1.018zM.208 14.262c.25.216.507.377.758.544.376.251.562.637.743 1.026.14.3.283.594.535.826-.973.088-2.079-1.204-2.036-2.396zm21.562 2.421c.402-.333.541-.787.745-1.198.147-.295.354-.52.615-.705.228-.161.459-.318.69-.477.206.977-.87 2.252-2.05 2.38z" fill="#0F4978"/><path fill-rule="evenodd" clip-rule="evenodd" d="M3.978 18.54c-.22-.107-.355-.273-.47-.458a2.671 2.671 0 01-.348-2.068c.028-.124.03-.253.046-.399a.84.84 0 01.267.256c.306.418.49.883.503 1.406.01.412.002.825.002 1.263z" fill="#0E4978"/><path fill-rule="evenodd" clip-rule="evenodd" d="M23.969 11.836c.147 1.028-.207 2.23-1.439 2.62.257-.425.265-.908.42-1.348.108-.308.265-.574.501-.793l.518-.48zM1.532 14.46C.434 14.088-.051 13.144.077 11.835c.425.393.892.725 1.04 1.323.062.251.142.497.19.753.033.185.107.358.225.55zm7.073 9.008c.311-.531.673-.986 1.168-1.33.419-.289.861-.269 1.33-.14-.333.11-.472.416-.678.652-.455.52-1.022.804-1.713.827-.027.001-.055-.004-.107-.009z" fill="#0F4978"/><path fill-rule="evenodd" clip-rule="evenodd" d="M20.071 18.537c.045-.566-.05-1.108.053-1.644a2.25 2.25 0 01.702-1.274c.18.795.231 1.57-.186 2.309-.156.277-.324.48-.569.61z" fill="#0E4978"/><path fill-rule="evenodd" clip-rule="evenodd" d="M12.927 21.991c.477-.125.907-.135 1.32.13.523.334.875.815 1.202 1.35a1.922 1.922 0 01-.812-.121c-.466-.162-.836-.458-1.132-.852-.242-.322-.242-.321-.578-.507z" fill="#0F4978"/><path fill-rule="evenodd" clip-rule="evenodd" d="M9.351 1.924c.05-.62-.336-.96-.742-1.316C9.154.605 9.635.483 9.984 0c.024.58.276 1.004.753 1.317-.554-.002-1.038.115-1.386.607z" fill="#833B64"/><path fill-rule="evenodd" clip-rule="evenodd" d="M22.894 12.284c-.23-.524-.386-1.032-.19-1.597.115-.332.24-.662.309-1.01.545.382.479 2.052-.119 2.607zm-21.739 0c-.714-.656-.55-2.158-.112-2.647.071.426.248.812.351 1.22.13.507-.034.96-.24 1.427zm1.452 4.172c-.253-.233-.35-.507-.402-.806-.064-.362-.008-.715.09-1.063.09-.318.168-.637.153-.97.046-.02.055.016.068.037.203.34.351.704.415 1.098a.985.985 0 01-.024.455c-.063.201-.132.401-.194.603-.062.2-.082.409-.106.646zm18.976-2.839c0 .497.201.949.27 1.425.06.408.01.799-.194 1.162a.653.653 0 01-.187.226c-.013-.007-.03-.011-.03-.017-.017-.4-.15-.771-.278-1.143-.096-.275-.055-.546.025-.815.088-.298.208-.582.394-.838zm.556.531a3.067 3.067 0 00-.307-.968c-.17-.335-.178-.674-.09-1.027.057-.23.113-.462.246-.721.16.684.452 1.29.445 1.966-.002.27-.084.516-.294.75z" fill="#0F4978"/><path fill-rule="evenodd" clip-rule="evenodd" d="M2.077 11.434c.174.415.281.797.297 1.202a.93.93 0 01-.092.391c-.147.357-.315.705-.365 1.13-.264-.303-.325-.627-.293-.976.04-.444.201-.858.319-1.282.039-.141.081-.282.134-.465z" fill="#0E4978"/><path fill-rule="evenodd" clip-rule="evenodd" d="M16.435 30.563c-.829-.005-1.658-.007-2.487-.01-.004 0-.008-.005-.024-.016l1.3-3.542 1.109 3.013c.054.149.109.298.165.446.024.065.034.11-.063.108zm1.484 2.153l-2.29-6.073c-.136-.362-.134-.358-.525-.36-.115 0-.162.044-.2.146-.526 1.403-1.056 2.806-1.586 4.208l-.851 2.256c.17 0 .316-.008.461.002.108.008.15-.038.184-.134.188-.526.385-1.049.573-1.575.034-.095.074-.138.184-.137.906.005 1.811.005 2.717 0 .111-.001.15.044.183.138.146.41.3.817.45 1.226.185.512.184.512.731.474.005 0 .01-.003.027-.01l-.058-.161z" fill="#1674A7"/></g><defs><clipPath id="clip0_34_1991"><path fill="#fff" d="M0 0h24v33H0z"/></clipPath></defs></svg>